<svg width="176" height="90" viewBox="0 0 176 90" fill="none" xmlns="http://www.w3.org/2000/svg">
<path d="M46.0908 59.396H44.174C43.3609 59.396 42.7747 59.2005 42.4157 58.8096C42.0566 58.4086 41.8771 57.8823 41.8771 57.2307C41.8771 55.7871 43.0124 55.0654 45.2829 55.0654C47.4162 55.0654 49.0215 55.3661 50.0987 55.9676L49.1799 56.6292C48.4406 56.3084 47.1417 56.148 45.2829 56.148C44.3747 56.148 43.7622 56.2433 43.4453 56.4337C43.1391 56.6242 42.986 56.8899 42.986 57.2307C42.986 57.5715 43.0704 57.8372 43.2394 58.0276C43.4084 58.2181 43.7199 58.3133 44.174 58.3133H46.1384C47.5641 58.3133 48.8472 58.5439 49.9878 59.005C51.1389 59.4662 52.0841 60.0977 52.8234 60.8997C53.5627 61.6916 54.1277 62.6089 54.5184 63.6514C54.9092 64.684 55.1046 65.7917 55.1046 66.9746C55.1046 67.9369 54.962 68.8492 54.6768 69.7113C54.3917 70.5734 53.9587 71.3653 53.3779 72.0871C52.8076 72.8089 52.1158 73.4354 51.3026 73.9667C50.5 74.488 49.539 74.894 48.4195 75.1847C47.3106 75.4854 46.1067 75.6358 44.8077 75.6358C42.7695 75.6358 40.8579 75.3401 39.0731 74.7486C37.2989 74.1672 35.8204 73.3502 34.6376 72.2976L35.5564 71.651C36.6336 72.5733 37.9801 73.2901 39.5959 73.8013C41.2223 74.3026 42.9595 74.5532 44.8077 74.5532C46.2545 74.5532 47.5588 74.3577 48.7205 73.9667C49.8928 73.5657 50.8538 73.0194 51.6036 72.3277C52.364 71.636 52.9449 70.834 53.3462 69.9218C53.758 69.0096 53.964 68.0272 53.964 66.9746C53.964 65.5812 53.6683 64.3231 53.0769 63.2003C52.4855 62.0675 51.5825 61.1503 50.368 60.4486C49.1641 59.7469 47.7383 59.396 46.0908 59.396ZM44.174 60.4786H45.98C48.1238 60.4786 49.7977 61.1002 51.0017 62.3432C52.2162 63.5863 52.8234 65.1301 52.8234 66.9746C52.8234 68.8492 52.1211 70.403 50.7165 71.636C49.3119 72.859 47.3423 73.4705 44.8077 73.4705C43.118 73.4705 41.5391 73.25 40.0711 72.8089C38.6032 72.3678 37.3834 71.7463 36.4118 70.9443L37.2989 70.2677C38.1649 70.9393 39.2527 71.4606 40.5622 71.8315C41.8823 72.2024 43.2975 72.3879 44.8077 72.3879C47.036 72.3879 48.7363 71.8816 49.9086 70.8691C51.0914 69.8566 51.6828 68.5585 51.6828 66.9746C51.6828 65.4107 51.1865 64.1176 50.1937 63.0951C49.2116 62.0726 47.8017 61.5613 45.9641 61.5613H44.174C42.6322 61.5613 41.4757 61.1603 40.7048 60.3584C39.9339 59.5564 39.5484 58.5138 39.5484 57.2307C39.5484 55.9475 40.0236 54.905 40.9741 54.103C41.9351 53.301 43.3714 52.9001 45.2829 52.9001C46.6242 52.9001 47.8704 53.0504 49.0215 53.3512C50.1726 53.6419 51.1231 54.0629 51.8729 54.6143L50.97 55.2759C49.6499 54.4138 47.7542 53.9827 45.2829 53.9827C43.6882 53.9827 42.5213 54.2835 41.782 54.8849C41.0533 55.4764 40.689 56.2583 40.689 57.2307C40.689 58.2131 40.9583 59 41.4969 59.5915C42.046 60.1829 42.9384 60.4786 44.174 60.4786ZM44.174 62.644H45.9166C47.4585 62.644 48.6149 63.05 49.3858 63.8619C50.1568 64.6739 50.5423 65.7115 50.5423 66.9746C50.5423 68.2577 50.0617 69.3003 49.1007 70.1022C48.1502 70.9042 46.7192 71.3052 44.8077 71.3052C43.4665 71.3052 42.215 71.1598 41.0533 70.8691C39.9022 70.5684 38.9517 70.1423 38.2019 69.591L39.1048 68.9294C40.4249 69.7915 42.3259 70.2225 44.8077 70.2225C46.4024 70.2225 47.5641 69.9268 48.2928 69.3354C49.0321 68.7339 49.4017 67.947 49.4017 66.9746C49.4017 66.0022 49.1271 65.2203 48.5779 64.6288C48.0288 64.0274 47.1364 63.7266 45.9007 63.7266H44.174C42.0091 63.7266 40.314 63.1151 39.089 61.8921C37.8745 60.6591 37.2672 59.1053 37.2672 57.2307C37.2672 55.3561 37.9695 53.8073 39.3741 52.5843C40.7787 51.3513 42.7483 50.7348 45.2829 50.7348C46.9727 50.7348 48.5462 50.9553 50.0037 51.3964C51.4716 51.8375 52.6914 52.459 53.663 53.261L52.7759 53.9376C51.9099 53.266 50.8221 52.7447 49.5126 52.3738C48.203 52.0029 46.7931 51.8174 45.2829 51.8174C43.0546 51.8174 41.349 52.3237 40.1662 53.3361C38.9939 54.3486 38.4078 55.6468 38.4078 57.2307C38.4078 58.8045 38.9042 60.1027 39.8969 61.1252C40.8896 62.1377 42.3153 62.644 44.174 62.644ZM44.174 64.8093H45.9166C46.7298 64.8093 47.3159 65.0098 47.675 65.4107C48.034 65.8117 48.2136 66.333 48.2136 66.9746C48.2136 68.4181 47.0783 69.1399 44.8077 69.1399C42.6638 69.1399 41.0533 68.8392 39.9761 68.2377L40.8949 67.5761C41.6342 67.8968 42.9384 68.0572 44.8077 68.0572C45.7159 68.0572 46.3232 67.962 46.6295 67.7715C46.9463 67.5811 47.1047 67.3154 47.1047 66.9746C47.1047 66.6438 47.0149 66.3831 46.8354 66.1927C46.6664 65.9922 46.3496 65.8919 45.8849 65.8919H44.174C42.7166 65.8919 41.3965 65.6664 40.2137 65.2153C39.0415 64.7642 38.0751 64.1426 37.3148 63.3507C36.5649 62.5588 35.9894 61.6415 35.5881 60.5989C35.1867 59.5564 34.9861 58.4336 34.9861 57.2307C34.9861 56.2683 35.1287 55.3561 35.4138 54.494C35.6989 53.6319 36.1267 52.8399 36.6969 52.1181C37.2778 51.3964 37.9695 50.7749 38.7722 50.2536C39.5853 49.7223 40.5464 49.3113 41.6553 49.0206C42.7747 48.7198 43.984 48.5694 45.2829 48.5694C47.3212 48.5694 49.2274 48.8652 51.0017 49.4566C52.7759 50.038 54.2544 50.8551 55.4372 51.9076L54.5184 52.5542C53.4412 51.632 52.0947 50.9202 50.4789 50.419C48.8631 49.9077 47.1311 49.6521 45.2829 49.6521C43.8361 49.6521 42.5266 49.8526 41.3543 50.2536C40.1926 50.6445 39.2316 51.1859 38.4712 51.8776C37.7214 52.5693 37.1405 53.3712 36.7286 54.2835C36.3273 55.1957 36.1267 56.1781 36.1267 57.2307C36.1267 58.6441 36.4276 59.9173 37.0296 61.0501C37.6316 62.1828 38.5504 63.0951 39.786 63.7868C41.0216 64.4684 42.4843 64.8093 44.174 64.8093ZM82.7318 49.6521H83.8724V74.5532H82.7318V49.6521ZM57.6392 49.6521H58.7797V74.5532H57.6392V49.6521ZM80.4507 49.6521H81.5912V74.5532H80.4507V49.6521ZM78.1695 49.6521H79.3101V74.5532H78.1695V49.6521ZM75.8884 49.6521H77.0289V74.5532H75.8884V64.7942H65.6232V74.5532H64.4826V49.6521H65.6232V59.381H75.8884V49.6521ZM62.2015 49.6521H63.342V74.5532H62.2015V49.6521ZM59.9203 49.6521H61.0609V74.5532H59.9203V49.6521ZM75.8884 63.7116V62.6289H65.6232V63.7116H75.8884ZM75.8884 61.5463V60.4636H65.6232V61.5463H75.8884ZM103.072 63.877C103.072 62.5938 102.655 61.6014 101.821 60.8997C100.986 60.198 99.8827 59.8471 98.5098 59.8471C97.3481 59.8471 96.3501 60.228 95.5158 60.9899C94.6814 61.7518 94.2643 62.664 94.2643 63.7266C94.2643 64.3281 94.3488 64.8694 94.5178 65.3506C94.6867 65.8218 94.9138 66.2177 95.1989 66.5385C95.4946 66.8493 95.8431 67.1099 96.2445 67.3204C96.6458 67.5209 97.0629 67.6663 97.4959 67.7565C97.9395 67.8467 98.4094 67.8918 98.9058 67.8918C100.11 67.8918 101.208 67.6111 102.201 67.0498V68.1324C101.176 68.6437 100.073 68.8993 98.89 68.8993C98.1296 68.8993 97.4114 68.8041 96.7355 68.6136C96.0702 68.4131 95.463 68.1174 94.9138 67.7264C94.3646 67.3254 93.9263 66.7841 93.599 66.1024C93.2821 65.4107 93.1237 64.6188 93.1237 63.7266C93.1237 62.3432 93.6359 61.1703 94.6603 60.208C95.6847 59.2456 96.9679 58.7644 98.5098 58.7644C100.21 58.7644 101.583 59.2206 102.629 60.1328C103.685 61.035 104.213 62.2831 104.213 63.877V74.5532H103.072V63.877ZM106.494 63.877V74.5532H105.353V63.877C105.353 61.9823 104.714 60.4787 103.436 59.3659C102.159 58.2432 100.516 57.6818 98.5098 57.6818C96.6511 57.6818 95.0986 58.2682 93.8524 59.4411C92.6062 60.614 91.9831 62.0425 91.9831 63.7266C91.9831 64.7491 92.168 65.6664 92.5376 66.4784C92.9178 67.2904 93.43 67.942 94.0742 68.4332C94.7184 68.9244 95.4365 69.3003 96.2286 69.5609C97.0312 69.8115 97.8761 69.9368 98.7632 69.9368C99.9672 69.9368 101.113 69.6712 102.201 69.1399V70.2827C101.06 70.7338 99.9091 70.9594 98.7474 70.9594C97.7019 70.9594 96.7091 70.809 95.7692 70.5082C94.8293 70.1975 93.9897 69.7514 93.2505 69.17C92.5112 68.5785 91.9251 67.8166 91.4921 66.8844C91.0591 65.942 90.8426 64.8895 90.8426 63.7266C90.8426 61.7518 91.5766 60.0727 93.0445 58.6893C94.523 57.2958 96.3448 56.5991 98.5098 56.5991C100.031 56.5991 101.393 56.8949 102.597 57.4863C103.801 58.0677 104.751 58.9148 105.448 60.0275C106.145 61.1403 106.494 62.4234 106.494 63.877ZM108.775 63.877V74.5532H107.634V63.877C107.634 62.2229 107.233 60.7593 106.43 59.4862C105.638 58.2031 104.551 57.2207 103.167 56.539C101.784 55.8573 100.231 55.5165 98.5098 55.5165C96.8728 55.5165 95.3785 55.8874 94.0267 56.6292C92.6749 57.361 91.6135 58.3534 90.8426 59.6065C90.0822 60.8596 89.702 62.233 89.702 63.7266C89.702 65.0098 89.9502 66.1826 90.4465 67.2452C90.9429 68.2978 91.6082 69.165 92.4425 69.8466C93.2874 70.5283 94.2432 71.0596 95.3098 71.4405C96.387 71.8114 97.5118 71.9969 98.684 71.9969C99.8774 71.9969 101.05 71.7613 102.201 71.2902V72.3879C100.997 72.8189 99.814 73.0344 98.6523 73.0344C96.8253 73.0344 95.1461 72.6435 93.6148 71.8616C92.0835 71.0796 90.8584 69.9719 89.9396 68.5384C89.0208 67.1049 88.5614 65.501 88.5614 63.7266C88.5614 62.4635 88.8149 61.2606 89.3218 60.1178C89.8393 58.975 90.5363 57.9875 91.4129 57.1555C92.2894 56.3235 93.3455 55.6618 94.5811 55.1706C95.8167 54.6794 97.1263 54.4338 98.5098 54.4338C100.442 54.4338 102.185 54.8248 103.737 55.6067C105.3 56.3886 106.531 57.5014 107.428 58.9449C108.326 60.3884 108.775 62.0325 108.775 63.877ZM111.056 63.877V74.5532H109.916V63.877C109.916 61.832 109.414 60.0075 108.411 58.4036C107.407 56.7896 106.04 55.5466 104.308 54.6744C102.576 53.7923 100.643 53.3512 98.5098 53.3512C96.461 53.3512 94.5864 53.8173 92.8861 54.7496C91.1858 55.6819 89.8498 56.945 88.8783 58.5389C87.9066 60.1228 87.4208 61.852 87.4208 63.7266C87.4208 64.9596 87.6268 66.1325 88.0387 67.2452C88.4611 68.3479 89.0314 69.3153 89.7495 70.1474C90.4782 70.9694 91.3125 71.6811 92.2524 72.2826C93.2029 72.8841 94.2221 73.3402 95.3098 73.651C96.4082 73.9617 97.5223 74.1171 98.6523 74.1171C99.8985 74.1171 101.081 73.8915 102.201 73.4404V74.5532C101.029 74.9441 99.8246 75.1396 98.589 75.1396C97.3111 75.1396 96.0649 74.9692 94.8504 74.6283C93.6465 74.2875 92.527 73.7863 91.4921 73.1247C90.4677 72.453 89.5647 71.6661 88.7832 70.7639C88.0017 69.8516 87.3892 68.789 86.9456 67.5761C86.502 66.3631 86.2803 65.0799 86.2803 63.7266C86.2803 62.1728 86.5865 60.6942 87.1991 59.2907C87.8222 57.8773 88.667 56.6593 89.7337 55.6368C90.8109 54.6042 92.1099 53.7872 93.6306 53.1858C95.162 52.5743 96.7883 52.2685 98.5098 52.2685C100.263 52.2685 101.91 52.5492 103.452 53.1106C104.994 53.672 106.325 54.4539 107.444 55.4563C108.564 56.4488 109.446 57.6718 110.09 59.1253C110.734 60.5789 111.056 62.1628 111.056 63.877ZM130.287 60.3584L129.369 61.02C128.45 59.9373 127.267 59.396 125.82 59.396C124.563 59.396 123.486 59.822 122.589 60.6741C121.701 61.5162 121.258 62.5337 121.258 63.7266C121.258 64.9195 121.701 65.942 122.589 66.7941C123.486 67.6362 124.563 68.0572 125.82 68.0572C126.528 68.0572 127.188 67.9119 127.8 67.6212C128.423 67.3305 128.951 66.9295 129.385 66.4182L130.272 67.1249C129.744 67.7565 129.089 68.2527 128.307 68.6136C127.526 68.9645 126.697 69.1399 125.82 69.1399C124.247 69.1399 122.9 68.6136 121.781 67.561C120.672 66.4984 120.117 65.2203 120.117 63.7266C120.117 62.233 120.672 60.9598 121.781 59.9073C122.9 58.8446 124.247 58.3133 125.82 58.3133C126.707 58.3133 127.542 58.4988 128.323 58.8697C129.105 59.2306 129.759 59.7268 130.287 60.3584ZM132.062 59.005L131.159 59.6667C130.525 58.9048 129.738 58.3083 128.798 57.8773C127.869 57.4462 126.876 57.2307 125.82 57.2307C123.93 57.2307 122.314 57.8672 120.973 59.1404C119.642 60.4135 118.977 61.9422 118.977 63.7266C118.977 65.511 119.642 67.0397 120.973 68.3129C122.314 69.586 123.93 70.2225 125.82 70.2225C126.876 70.2225 127.874 70.007 128.814 69.576C129.754 69.1349 130.541 68.5334 131.175 67.7715L132.046 68.4632C131.307 69.3454 130.393 70.0421 129.305 70.5534C128.218 71.0546 127.056 71.3052 125.82 71.3052C124.373 71.3052 123.037 70.9694 121.812 70.2977C120.587 69.6161 119.616 68.6938 118.898 67.5309C118.19 66.3681 117.836 65.1 117.836 63.7266C117.836 62.3532 118.19 61.0851 118.898 59.9223C119.616 58.7594 120.587 57.8422 121.812 57.1705C123.037 56.4889 124.373 56.148 125.82 56.148C127.056 56.148 128.218 56.4037 129.305 56.9149C130.404 57.4161 131.322 58.1129 132.062 59.005ZM133.852 57.6517L132.965 58.3284C132.109 57.3159 131.058 56.5189 129.812 55.9375C128.566 55.3561 127.235 55.0654 125.82 55.0654C124.585 55.0654 123.402 55.2959 122.272 55.7571C121.152 56.2082 120.181 56.8247 119.357 57.6066C118.544 58.3785 117.894 59.3008 117.408 60.3734C116.933 61.436 116.696 62.5537 116.696 63.7266C116.696 64.8995 116.933 66.0222 117.408 67.0949C117.894 68.1575 118.544 69.0797 119.357 69.8617C120.181 70.6336 121.152 71.2501 122.272 71.7112C123.402 72.1623 124.585 72.3879 125.82 72.3879C127.235 72.3879 128.566 72.0971 129.812 71.5157C131.058 70.9343 132.109 70.1373 132.965 69.1249L133.82 69.8316C132.859 70.9644 131.681 71.8566 130.287 72.5082C128.893 73.1497 127.404 73.4705 125.82 73.4705C124.426 73.4705 123.095 73.2149 121.828 72.7036C120.561 72.1824 119.468 71.4907 118.549 70.6285C117.641 69.7564 116.912 68.7189 116.363 67.5159C115.824 66.313 115.555 65.0499 115.555 63.7266C115.555 62.4034 115.824 61.1403 116.363 59.9373C116.912 58.7344 117.641 57.7018 118.549 56.8397C119.468 55.9676 120.561 55.2759 121.828 54.7646C123.095 54.2434 124.426 53.9827 125.82 53.9827C127.415 53.9827 128.909 54.3085 130.303 54.9601C131.708 55.6117 132.891 56.5089 133.852 57.6517ZM135.626 56.2984L134.707 56.945C133.641 55.6919 132.331 54.7045 130.779 53.9827C129.237 53.261 127.584 52.9001 125.82 52.9001C124.278 52.9001 122.8 53.1858 121.385 53.7572C119.98 54.3286 118.766 55.1005 117.741 56.0728C116.727 57.0352 115.919 58.188 115.317 59.5313C114.715 60.8646 114.414 62.263 114.414 63.7266C114.414 65.1902 114.715 66.5936 115.317 67.9369C115.919 69.2702 116.727 70.423 117.741 71.3954C118.766 72.3578 119.98 73.1247 121.385 73.6961C122.8 74.2675 124.278 74.5532 125.82 74.5532C127.584 74.5532 129.237 74.1923 130.779 73.4705C132.331 72.7487 133.641 71.7613 134.707 70.5082L135.61 71.1699C134.438 72.5533 132.996 73.6459 131.285 74.4479C129.585 75.2398 127.763 75.6358 125.82 75.6358C124.12 75.6358 122.494 75.32 120.941 74.6885C119.399 74.0569 118.069 73.2099 116.949 72.1473C115.83 71.0847 114.937 69.8216 114.272 68.358C113.607 66.8844 113.274 65.3406 113.274 63.7266C113.274 62.1127 113.607 60.5739 114.272 59.1103C114.937 57.6367 115.83 56.3686 116.949 55.306C118.069 54.2434 119.399 53.3963 120.941 52.7647C122.494 52.1332 124.12 51.8174 125.82 51.8174C127.763 51.8174 129.59 52.2184 131.301 53.0204C133.012 53.8123 134.454 54.905 135.626 56.2984ZM161.764 52.9001H160.497L154.144 63.8168L160.402 74.5532H161.669L155.412 63.8168L161.764 52.9001ZM159.214 52.9001H157.946L151.594 63.8168L157.851 74.5532H159.119L152.861 63.8168L159.214 52.9001ZM156.663 52.9001H155.396L149.044 63.8168L155.301 74.5532H156.568L150.311 63.8168L156.663 52.9001ZM154.113 52.9001H152.846L146.477 63.8168L152.75 74.5532H154.018L147.745 63.8168L154.113 52.9001ZM144.64 52.9001H145.78V74.5532H144.64V52.9001ZM142.359 52.9001H143.499V74.5532H142.359V52.9001ZM140.077 52.9001H141.218V74.5532H140.077V52.9001ZM137.796 52.9001H138.937V74.5532H137.796V52.9001Z" fill="white"/>
<path d="M47.4428 60.0376H45.526C44.7128 60.0376 44.1267 59.8422 43.7676 59.4512C43.4086 59.0502 43.229 58.5239 43.229 57.8723C43.229 56.4288 44.3643 55.707 46.6349 55.707C48.7682 55.707 50.3735 56.0078 51.4507 56.6092L50.5319 57.2709C49.7926 56.9501 48.4936 56.7897 46.6349 56.7897C45.7267 56.7897 45.1142 56.8849 44.7973 57.0754C44.4911 57.2658 44.3379 57.5315 44.3379 57.8723C44.3379 58.2132 44.4224 58.4788 44.5914 58.6693C44.7604 58.8598 45.0719 58.955 45.526 58.955H47.4903C48.9161 58.955 50.1992 59.1856 51.3398 59.6467C52.4909 60.1078 53.4361 60.7394 54.1754 61.5413C54.9146 62.3333 55.4797 63.2505 55.8704 64.2931C56.2612 65.3256 56.4565 66.4333 56.4565 67.6162C56.4565 68.5786 56.314 69.4908 56.0288 70.3529C55.7437 71.215 55.3107 72.007 54.7298 72.7288C54.1595 73.4505 53.4678 74.0771 52.6546 74.6084C51.852 75.1297 50.891 75.5356 49.7715 75.8264C48.6626 76.1271 47.4587 76.2775 46.1597 76.2775C44.1214 76.2775 42.2099 75.9817 40.4251 75.3903C38.6509 74.8089 37.1724 73.9919 35.9896 72.9393L36.9083 72.2927C37.9856 73.215 39.3321 73.9317 40.9479 74.443C42.5743 74.9442 44.3115 75.1948 46.1597 75.1948C47.6065 75.1948 48.9108 74.9993 50.0725 74.6084C51.2447 74.2074 52.2058 73.661 52.9556 72.9693C53.716 72.2777 54.2968 71.4757 54.6982 70.5634C55.11 69.6512 55.316 68.6688 55.316 67.6162C55.316 66.2228 55.0203 64.9647 54.4288 63.842C53.8374 62.7092 52.9345 61.7919 51.72 61.0902C50.516 60.3885 49.0903 60.0376 47.4428 60.0376ZM45.526 61.1203H47.3319C49.4758 61.1203 51.1497 61.7418 52.3536 62.9849C53.5681 64.2279 54.1754 65.7717 54.1754 67.6162C54.1754 69.4908 53.4731 71.0446 52.0685 72.2777C50.6639 73.5007 48.6943 74.1122 46.1597 74.1122C44.4699 74.1122 42.8911 73.8916 41.4231 73.4505C39.9552 73.0095 38.7354 72.3879 37.7638 71.586L38.6509 70.9093C39.5169 71.5809 40.6047 72.1022 41.9142 72.4731C43.2343 72.844 44.6495 73.0295 46.1597 73.0295C48.388 73.0295 50.0883 72.5233 51.2606 71.5108C52.4434 70.4983 53.0348 69.2001 53.0348 67.6162C53.0348 66.0524 52.5385 64.7592 51.5457 63.7367C50.5636 62.7142 49.1537 62.2029 47.3161 62.2029H45.526C43.9841 62.2029 42.8277 61.802 42.0568 61C41.2858 60.198 40.9004 59.1555 40.9004 57.8723C40.9004 56.5892 41.3756 55.5466 42.3261 54.7447C43.2871 53.9427 44.7234 53.5417 46.6349 53.5417C47.9762 53.5417 49.2223 53.6921 50.3735 53.9928C51.5246 54.2835 52.4751 54.7046 53.2249 55.2559L52.322 55.9175C51.0018 55.0554 49.1062 54.6244 46.6349 54.6244C45.0402 54.6244 43.8732 54.9251 43.134 55.5266C42.4053 56.118 42.0409 56.8999 42.0409 57.8723C42.0409 58.8547 42.3102 59.6417 42.8488 60.2331C43.398 60.8246 44.2904 61.1203 45.526 61.1203ZM45.526 63.2856H47.2686C48.8105 63.2856 49.9669 63.6916 50.7378 64.5036C51.5088 65.3156 51.8942 66.3531 51.8942 67.6162C51.8942 68.8994 51.4137 69.9419 50.4527 70.7439C49.5022 71.5459 48.0712 71.9468 46.1597 71.9468C44.8184 71.9468 43.567 71.8015 42.4053 71.5108C41.2542 71.21 40.3037 70.784 39.5538 70.2326L40.4568 69.571C41.7769 70.4331 43.6779 70.8642 46.1597 70.8642C47.7544 70.8642 48.9161 70.5685 49.6448 69.977C50.384 69.3755 50.7537 68.5886 50.7537 67.6162C50.7537 66.6438 50.4791 65.8619 49.9299 65.2705C49.3807 64.669 48.4883 64.3683 47.2527 64.3683H45.526C43.361 64.3683 41.666 63.7568 40.441 62.5338C39.2265 61.3007 38.6192 59.7469 38.6192 57.8723C38.6192 55.9977 39.3215 54.4489 40.7261 53.2259C42.1307 51.9929 44.1003 51.3764 46.6349 51.3764C48.3247 51.3764 49.8982 51.5969 51.3556 52.038C52.8236 52.4791 54.0434 53.1006 55.015 53.9026L54.1279 54.5793C53.2619 53.9076 52.1741 53.3863 50.8646 53.0154C49.555 52.6445 48.1451 52.4591 46.6349 52.4591C44.4066 52.4591 42.701 52.9653 41.5182 53.9778C40.3459 54.9903 39.7598 56.2884 39.7598 57.8723C39.7598 59.4462 40.2561 60.7444 41.2489 61.7669C42.2416 62.7794 43.6673 63.2856 45.526 63.2856ZM45.526 65.4509H47.2686C48.0818 65.4509 48.6679 65.6514 49.027 66.0524C49.386 66.4534 49.5656 66.9746 49.5656 67.6162C49.5656 69.0598 48.4303 69.7815 46.1597 69.7815C44.0158 69.7815 42.4053 69.4808 41.3281 68.8793L42.2469 68.2177C42.9861 68.5385 44.2904 68.6989 46.1597 68.6989C47.0679 68.6989 47.6752 68.6036 47.9814 68.4132C48.2983 68.2227 48.4567 67.9571 48.4567 67.6162C48.4567 67.2854 48.3669 67.0248 48.1874 66.8343C48.0184 66.6338 47.7016 66.5336 47.2369 66.5336H45.526C44.0686 66.5336 42.7485 66.308 41.5657 65.8569C40.3934 65.4058 39.4271 64.7843 38.6667 63.9923C37.9169 63.2004 37.3413 62.2831 36.94 61.2406C36.5387 60.198 36.3381 59.0753 36.3381 57.8723C36.3381 56.91 36.4806 55.9977 36.7658 55.1356C37.0509 54.2735 37.4786 53.4816 38.0489 52.7598C38.6298 52.038 39.3215 51.4165 40.1241 50.8952C40.9373 50.3639 41.8984 49.9529 43.0073 49.6622C44.1267 49.3615 45.3359 49.2111 46.6349 49.2111C48.6732 49.2111 50.5794 49.5068 52.3536 50.0983C54.1279 50.6797 55.6064 51.4967 56.7892 52.5493L55.8704 53.1959C54.7932 52.2736 53.4467 51.5619 51.8309 51.0606C50.2151 50.5494 48.4831 50.2937 46.6349 50.2937C45.1881 50.2937 43.8785 50.4942 42.7063 50.8952C41.5446 51.2862 40.5835 51.8275 39.8232 52.5192C39.0733 53.2109 38.4925 54.0129 38.0806 54.9251C37.6793 55.8373 37.4786 56.8197 37.4786 57.8723C37.4786 59.2858 37.7796 60.5589 38.3816 61.6917C38.9836 62.8245 39.9024 63.7367 41.138 64.4284C42.3736 65.1101 43.8363 65.4509 45.526 65.4509Z" fill="white"/>
<path d="M84.0838 50.2937H85.2244V75.1948H84.0838V50.2937ZM58.9911 50.2937H60.1317V75.1948H58.9911V50.2937ZM81.8026 50.2937H82.9432V75.1948H81.8026V50.2937ZM79.5215 50.2937H80.6621V75.1948H79.5215V50.2937ZM77.2403 50.2937H78.3809V75.1948H77.2403V65.4359H66.9752V75.1948H65.8346V50.2937H66.9752V60.0226H77.2403V50.2937ZM63.5534 50.2937H64.694V75.1948H63.5534V50.2937ZM61.2723 50.2937H62.4129V75.1948H61.2723V50.2937ZM77.2403 64.3532V63.2706H66.9752V64.3532H77.2403ZM77.2403 62.1879V61.1053H66.9752V62.1879H77.2403Z" fill="white"/>
<path d="M104.424 64.5186C104.424 63.2355 104.007 62.243 103.173 61.5413C102.338 60.8396 101.235 60.4887 99.8617 60.4887C98.7 60.4887 97.702 60.8697 96.8677 61.6315C96.0334 62.3934 95.6163 63.3057 95.6163 64.3683C95.6163 64.9697 95.7008 65.5111 95.8697 65.9922C96.0387 66.4634 96.2658 66.8594 96.5509 67.1802C96.8466 67.4909 97.1951 67.7516 97.5964 67.9621C97.9977 68.1626 98.4149 68.3079 98.8479 68.3981C99.2915 68.4884 99.7614 68.5335 100.258 68.5335C101.462 68.5335 102.56 68.2528 103.553 67.6914V68.7741C102.528 69.2853 101.425 69.5409 100.242 69.5409C99.4816 69.5409 98.7634 69.4457 98.0875 69.2552C97.4222 69.0548 96.8149 68.759 96.2658 68.3681C95.7166 67.9671 95.2783 67.4258 94.9509 66.7441C94.6341 66.0524 94.4757 65.2604 94.4757 64.3683C94.4757 62.9849 94.9879 61.812 96.0123 60.8496C97.0367 59.8873 98.3198 59.4061 99.8617 59.4061C101.562 59.4061 102.935 59.8622 103.98 60.7744C105.037 61.6767 105.565 62.9247 105.565 64.5186V75.1948H104.424V64.5186ZM107.846 64.5186V75.1948H106.705V64.5186C106.705 62.624 106.066 61.1203 104.788 60.0076C103.511 58.8848 101.868 58.3234 99.8617 58.3234C98.003 58.3234 96.4506 58.9099 95.2044 60.0828C93.9582 61.2556 93.3351 62.6841 93.3351 64.3683C93.3351 65.3908 93.5199 66.308 93.8896 67.12C94.2698 67.932 94.782 68.5836 95.4262 69.0748C96.0704 69.566 96.7885 69.9419 97.5806 70.2026C98.3832 70.4532 99.2281 70.5785 100.115 70.5785C101.319 70.5785 102.465 70.3128 103.553 69.7815V70.9243C102.412 71.3754 101.261 71.601 100.099 71.601C99.0538 71.601 98.0611 71.4506 97.1212 71.1499C96.1813 70.8391 95.3417 70.393 94.6024 69.8116C93.8632 69.2202 93.277 68.4583 92.844 67.526C92.411 66.5837 92.1945 65.5311 92.1945 64.3683C92.1945 62.3934 92.9285 60.7143 94.3965 59.3309C95.875 57.9375 97.6968 57.2408 99.8617 57.2408C101.383 57.2408 102.745 57.5365 103.949 58.128C105.153 58.7094 106.103 59.5565 106.8 60.6692C107.497 61.7819 107.846 63.0651 107.846 64.5186ZM110.127 64.5186V75.1948H108.986V64.5186C108.986 62.8646 108.585 61.401 107.782 60.1279C106.99 58.8447 105.903 57.8623 104.519 57.1806C103.136 56.499 101.583 56.1581 99.8617 56.1581C98.2248 56.1581 96.7304 56.529 95.3787 57.2709C94.0269 58.0027 92.9655 58.9951 92.1945 60.2482C91.4342 61.5012 91.054 62.8746 91.054 64.3683C91.054 65.6514 91.3022 66.8243 91.7985 67.8869C92.2949 68.9395 92.9602 69.8066 93.7945 70.4883C94.6394 71.1699 95.5952 71.7012 96.6618 72.0822C97.739 72.4531 98.8637 72.6385 100.036 72.6385C101.229 72.6385 102.402 72.403 103.553 71.9318V73.0295C102.349 73.4606 101.166 73.6761 100.004 73.6761C98.1773 73.6761 96.4981 73.2851 94.9668 72.5032C93.4354 71.7213 92.2104 70.6136 91.2916 69.1801C90.3728 67.7465 89.9134 66.1426 89.9134 64.3683C89.9134 63.1052 90.1669 61.9022 90.6738 60.7594C91.1913 59.6166 91.8883 58.6292 92.7648 57.7971C93.6414 56.9651 94.6975 56.3035 95.9331 55.8123C97.1687 55.3211 98.4783 55.0755 99.8617 55.0755C101.794 55.0755 103.537 55.4664 105.089 56.2483C106.652 57.0303 107.883 58.143 108.78 59.5865C109.678 61.0301 110.127 62.6741 110.127 64.5186ZM112.408 64.5186V75.1948H111.267V64.5186C111.267 62.4736 110.766 60.6491 109.763 59.0452C108.759 57.4312 107.392 56.1882 105.66 55.3161C103.928 54.4339 101.995 53.9928 99.8617 53.9928C97.8129 53.9928 95.9384 54.459 94.2381 55.3912C92.5378 56.3235 91.2018 57.5866 90.2302 59.1805C89.2586 60.7644 88.7728 62.4937 88.7728 64.3683C88.7728 65.6013 88.9788 66.7742 89.3906 67.8869C89.8131 68.9896 90.3834 69.957 91.1015 70.789C91.8302 71.611 92.6645 72.3228 93.6044 72.9242C94.5549 73.5257 95.574 73.9818 96.6618 74.2926C97.7601 74.6034 98.8743 74.7587 100.004 74.7587C101.25 74.7587 102.433 74.5332 103.553 74.0821V75.1948C102.381 75.5858 101.177 75.7812 99.941 75.7812C98.6631 75.7812 97.4169 75.6108 96.2024 75.27C94.9985 74.9292 93.879 74.4279 92.844 73.7663C91.8196 73.0947 90.9167 72.3077 90.1352 71.4055C89.3537 70.4933 88.7411 69.4307 88.2976 68.2177C87.854 67.0047 87.6322 65.7216 87.6322 64.3683C87.6322 62.8144 87.9385 61.3358 88.551 59.9324C89.1741 58.5189 90.019 57.3009 91.0857 56.2784C92.1629 55.2459 93.4618 54.4289 94.9826 53.8274C96.5139 53.2159 98.1403 52.9102 99.8617 52.9102C101.615 52.9102 103.262 53.1908 104.804 53.7522C106.346 54.3136 107.677 55.0955 108.796 56.098C109.916 57.0904 110.798 58.3134 111.442 59.767C112.086 61.2205 112.408 62.8044 112.408 64.5186Z" fill="white"/>
<path d="M131.639 61L130.721 61.6616C129.802 60.579 128.619 60.0376 127.172 60.0376C125.915 60.0376 124.838 60.4637 123.941 61.3158C123.053 62.1578 122.61 63.1753 122.61 64.3683C122.61 65.5612 123.053 66.5837 123.941 67.4358C124.838 68.2778 125.915 68.6989 127.172 68.6989C127.88 68.6989 128.54 68.5535 129.152 68.2628C129.775 67.9721 130.303 67.5711 130.736 67.0599L131.624 67.7666C131.096 68.3981 130.441 68.8944 129.659 69.2552C128.878 69.6061 128.049 69.7815 127.172 69.7815C125.599 69.7815 124.252 69.2552 123.133 68.2027C122.024 67.1401 121.469 65.8619 121.469 64.3683C121.469 62.8746 122.024 61.6015 123.133 60.5489C124.252 59.4863 125.599 58.955 127.172 58.955C128.059 58.955 128.894 59.1404 129.675 59.5113C130.457 59.8722 131.111 60.3685 131.639 61ZM133.414 59.6467L132.511 60.3083C131.877 59.5464 131.09 58.95 130.15 58.5189C129.221 58.0879 128.228 57.8723 127.172 57.8723C125.282 57.8723 123.666 58.5089 122.325 59.782C120.994 61.0551 120.329 62.5839 120.329 64.3683C120.329 66.1526 120.994 67.6814 122.325 68.9545C123.666 70.2276 125.282 70.8642 127.172 70.8642C128.228 70.8642 129.226 70.6487 130.166 70.2176C131.106 69.7765 131.893 69.175 132.527 68.4132L133.398 69.1049C132.659 69.987 131.745 70.6837 130.657 71.195C129.569 71.6962 128.408 71.9468 127.172 71.9468C125.725 71.9468 124.389 71.611 123.164 70.9394C121.939 70.2577 120.968 69.3354 120.25 68.1726C119.542 67.0097 119.188 65.7416 119.188 64.3683C119.188 62.9949 119.542 61.7268 120.25 60.5639C120.968 59.4011 121.939 58.4838 123.164 57.8122C124.389 57.1305 125.725 56.7897 127.172 56.7897C128.408 56.7897 129.569 57.0453 130.657 57.5566C131.756 58.0578 132.674 58.7545 133.414 59.6467ZM135.204 58.2934L134.317 58.97C133.461 57.9575 132.41 57.1606 131.164 56.5792C129.918 55.9977 128.587 55.707 127.172 55.707C125.937 55.707 124.754 55.9376 123.624 56.3987C122.504 56.8498 121.533 57.4663 120.709 58.2483C119.896 59.0201 119.246 59.9424 118.76 61.015C118.285 62.0776 118.048 63.1954 118.048 64.3683C118.048 65.5411 118.285 66.6639 118.76 67.7365C119.246 68.7991 119.896 69.7214 120.709 70.5033C121.533 71.2752 122.504 71.8917 123.624 72.3528C124.754 72.8039 125.937 73.0295 127.172 73.0295C128.587 73.0295 129.918 72.7388 131.164 72.1574C132.41 71.5759 133.461 70.779 134.317 69.7665L135.172 70.4732C134.211 71.606 133.033 72.4982 131.639 73.1498C130.245 73.7914 128.756 74.1122 127.172 74.1122C125.778 74.1122 124.447 73.8565 123.18 73.3453C121.913 72.824 120.82 72.1323 119.901 71.2702C118.993 70.398 118.264 69.3605 117.715 68.1576C117.176 66.9546 116.907 65.6915 116.907 64.3683C116.907 63.045 117.176 61.7819 117.715 60.579C118.264 59.376 118.993 58.3435 119.901 57.4814C120.82 56.6092 121.913 55.9175 123.18 55.4063C124.447 54.885 125.778 54.6244 127.172 54.6244C128.767 54.6244 130.261 54.9502 131.655 55.6018C133.06 56.2534 134.243 57.1506 135.204 58.2934ZM136.978 56.94L136.059 57.5866C134.993 56.3336 133.683 55.3461 132.131 54.6244C130.589 53.9026 128.936 53.5417 127.172 53.5417C125.63 53.5417 124.152 53.8274 122.737 54.3988C121.332 54.9702 120.118 55.7421 119.093 56.7145C118.079 57.6768 117.271 58.8297 116.669 60.173C116.067 61.5062 115.766 62.9047 115.766 64.3683C115.766 65.8318 116.067 67.2353 116.669 68.5786C117.271 69.9119 118.079 71.0647 119.093 72.0371C120.118 72.9994 121.332 73.7663 122.737 74.3377C124.152 74.9091 125.63 75.1948 127.172 75.1948C128.936 75.1948 130.589 74.8339 132.131 74.1122C133.683 73.3904 134.993 72.403 136.059 71.1499L136.962 71.8115C135.79 73.1949 134.348 74.2876 132.637 75.0896C130.937 75.8815 129.115 76.2775 127.172 76.2775C125.472 76.2775 123.846 75.9617 122.293 75.3301C120.751 74.6986 119.42 73.8515 118.301 72.7889C117.182 71.7263 116.289 70.4632 115.624 68.9996C114.959 67.526 114.626 65.9822 114.626 64.3683C114.626 62.7543 114.959 61.2155 115.624 59.7519C116.289 58.2783 117.182 57.0102 118.301 55.9476C119.42 54.885 120.751 54.0379 122.293 53.4064C123.846 52.7748 125.472 52.4591 127.172 52.4591C129.115 52.4591 130.942 52.86 132.653 53.662C134.364 54.4539 135.806 55.5466 136.978 56.94Z" fill="white"/>
<path d="M163.116 53.5417H161.849L155.496 64.4585L161.754 75.1948H163.021L156.764 64.4585L163.116 53.5417ZM160.566 53.5417H159.298L152.946 64.4585L159.203 75.1948H160.471L154.213 64.4585L160.566 53.5417ZM158.015 53.5417H156.748L150.396 64.4585L156.653 75.1948H157.92L151.663 64.4585L158.015 53.5417ZM155.465 53.5417H154.197L147.829 64.4585L154.102 75.1948H155.37L149.097 64.4585L155.465 53.5417ZM145.992 53.5417H147.132V75.1948H145.992V53.5417ZM143.711 53.5417H144.851V75.1948H143.711V53.5417ZM141.429 53.5417H142.57V75.1948H141.429V53.5417ZM139.148 53.5417H140.289V75.1948H139.148V53.5417Z" fill="white"/>
<path d="M1 39.9228C1 39.6221 1.15842 39.338 1.47525 39.0707C1.79208 38.7699 2.16172 38.5026 2.58416 38.2687C3.00661 38.0348 3.42905 37.8343 3.85149 37.6672C4.27394 37.4667 4.59077 37.3164 4.80199 37.2161C5.71728 36.8485 6.63258 36.5144 7.54787 36.2136C8.46317 35.8795 9.37846 35.5453 10.2938 35.2111C11.1034 34.9438 11.6315 34.4092 11.8779 33.6072C12.5116 31.502 13.2333 29.4302 14.0429 27.3918C14.8878 25.3534 15.8207 23.3485 16.8416 21.377C17.2993 20.4747 17.8097 20.0236 18.373 20.0236C18.8306 20.0236 19.3411 20.1907 19.9043 20.5248C20.4676 20.859 20.9076 21.1765 21.2245 21.4772C21.999 22.2124 22.2278 23.0979 21.9109 24.1338C21.5237 25.4036 21.0661 26.6734 20.538 27.9432C20.0452 29.1796 19.6227 30.4327 19.2707 31.7025C19.2003 31.903 19.1123 32.1035 19.0066 32.304C18.9362 32.471 18.9362 32.6882 19.0066 32.9556C19.9219 32.8887 20.802 32.8386 21.6469 32.8052C22.527 32.7718 23.4071 32.7217 24.2872 32.6548C24.5688 32.6548 24.7448 32.588 24.8152 32.4543C24.8857 32.3207 24.9561 32.1536 25.0265 31.9531C25.8009 29.0459 26.7162 26.1554 27.7724 23.2817C28.8637 20.3745 30.0254 17.5508 31.2575 14.8107L31.7328 13.7581C31.9792 13.3571 32.2256 13.1232 32.472 13.0564C32.7185 12.9561 33.0705 12.9896 33.5281 13.1566C35.4995 13.9252 36.2916 15.3287 35.9044 17.367C35.7988 17.9351 35.658 18.4865 35.4819 19.0211C35.3059 19.5224 35.1299 20.0403 34.9539 20.575C34.2498 22.5799 33.5809 24.5849 32.9473 26.5898C32.3136 28.5948 31.8032 30.6499 31.4159 32.7551C31.3455 33.1895 31.3279 33.4568 31.3631 33.5571C31.4335 33.6573 31.68 33.7743 32.1024 33.9079C33.0177 34.1753 33.8274 34.5595 34.5314 35.0608C35.2707 35.5286 35.746 36.247 35.9572 37.2161C36.1332 38.0849 35.7988 38.3355 34.9539 37.968C34.3554 37.7006 33.757 37.5336 33.1585 37.4667C32.56 37.3665 31.944 37.2829 31.3103 37.2161C31.0287 37.1827 30.7999 37.2161 30.6238 37.3164C30.4478 37.4166 30.3246 37.6338 30.2542 37.968C29.7261 40.14 29.3037 42.3287 28.9869 44.5342C28.7052 46.7062 28.494 48.895 28.3532 51.1004C28.2828 51.6685 28.23 52.2533 28.1948 52.8548C28.1596 53.4562 28.1068 54.041 28.0364 54.6091C28.0012 54.8764 27.9836 55.1103 27.9836 55.3108C28.0188 55.5113 28.142 55.7118 28.3532 55.9123C28.5644 56.1128 28.6348 56.2966 28.5644 56.4637C28.494 56.6642 28.3532 56.8145 28.142 56.9148C27.8604 57.0485 27.6315 57.1153 27.4555 57.1153C26.7866 57.1821 26.1178 57.1654 25.4489 57.0652C24.8152 56.9649 24.2168 56.7644 23.6535 56.4637C23.1255 56.1629 22.6678 55.7285 22.2806 55.1605C21.9285 54.6258 21.7173 53.9408 21.6469 53.1054C21.5765 52.0027 21.5589 50.8999 21.5941 49.7972C21.6645 48.6945 21.7877 47.5918 21.9638 46.489C22.1398 45.119 22.2982 43.7489 22.439 42.3789C22.615 41.0088 22.9319 39.6722 23.3895 38.369C23.4599 38.2019 23.4599 38.0515 23.3895 37.9178C22.8967 37.8176 22.4214 37.8343 21.9638 37.968C21.5061 38.0682 21.0309 38.135 20.538 38.1685C20.0804 38.2019 19.6227 38.2687 19.1651 38.369C18.7426 38.4358 18.3026 38.5026 17.8449 38.5695C17.3169 38.6697 16.9824 38.937 16.8416 39.3714C16.4192 40.7081 16.0847 42.028 15.8383 43.3312C15.5919 44.6344 15.3807 45.9711 15.2047 47.3411C15.1343 47.7421 15.099 48.1431 15.099 48.5441C15.1343 48.9451 15.3983 49.2625 15.8911 49.4965C16.1024 49.5967 16.1904 49.7471 16.1552 49.9476C16.12 50.1147 16.0143 50.2817 15.8383 50.4488C15.6975 50.5491 15.4687 50.6326 15.1519 50.6994C14.483 50.8331 13.8317 50.8164 13.1981 50.6493C12.5644 50.5156 11.9835 50.2817 11.4555 49.9476C10.9626 49.6134 10.5402 49.1957 10.1881 48.6945C9.83611 48.1598 9.60728 47.575 9.50167 46.9401C9.36086 46.1047 9.34326 45.2861 9.44887 44.4841C9.55448 43.6821 9.64249 42.8801 9.71289 42.0781C9.7481 41.8108 9.7833 41.5435 9.81851 41.2761C9.85371 41.0088 9.90652 40.6914 9.97692 40.3238C9.13204 40.5911 8.33995 40.825 7.60068 41.0255C6.8262 41.226 6.06932 41.4265 5.33004 41.627C5.04842 41.6938 4.78439 41.7774 4.53796 41.8776C4.29154 41.9445 4.02751 42.028 3.74588 42.1282C3.35864 42.2619 3.00661 42.2786 2.68977 42.1784C2.37294 42.0447 2.09131 41.8609 1.84489 41.627C1.56326 41.3597 1.35204 41.0756 1.21122 40.7749C1.07041 40.4407 1 40.1567 1 39.9228Z" fill="white"/>
<path d="M31.8008 42.1784C32.0473 41.2093 32.4873 40.0732 33.121 38.7699C33.7546 37.4333 34.5115 36.1802 35.3916 35.0107C36.3069 33.8077 37.3102 32.7885 38.4015 31.9531C39.528 31.1177 40.7073 30.7 41.9395 30.7C42.89 30.7 43.8229 30.984 44.7382 31.5521C45.6534 32.1202 46.4279 32.705 47.0616 33.3064C47.1672 33.4067 47.2552 33.5236 47.3256 33.6573C47.4312 33.7576 47.572 33.8244 47.7481 33.8578C47.8889 33.7576 47.9769 33.6406 48.0121 33.5069C48.0825 33.3733 48.1529 33.2396 48.2233 33.1059C48.4697 32.7384 48.7162 32.5045 48.9626 32.4042C49.2442 32.304 49.5963 32.3374 50.0187 32.5045C50.7228 32.8052 51.286 33.3064 51.7085 34.0082C52.1661 34.7099 52.3597 35.4451 52.2893 36.2136C52.2541 36.8151 52.1309 37.3999 51.9197 37.968C51.7437 38.5026 51.5501 39.054 51.3388 39.6221C50.7404 41.1258 50.1595 42.6295 49.5963 44.1332C49.033 45.6369 48.5401 47.1908 48.1177 48.7947C48.0473 49.0955 47.9769 49.3795 47.9065 49.6468C47.8713 49.9142 47.8713 50.1982 47.9065 50.4989C47.9769 51.3343 47.6249 51.5682 46.8504 51.2007C46.7448 51.1338 46.6215 51.067 46.4807 51.0002C46.3751 50.9668 46.2695 50.8999 46.1639 50.7997C45.4598 50.1314 44.879 49.4296 44.4213 48.6945C43.9989 47.9259 43.8053 47.0571 43.8405 46.088C43.8405 45.8875 43.8405 45.687 43.8405 45.4865C43.8757 45.2526 43.8405 45.0187 43.7349 44.7848C43.5588 44.8516 43.4356 44.9519 43.3652 45.0856C43.2948 45.2192 43.2244 45.3362 43.154 45.4364C42.5907 46.1382 42.0275 46.8065 41.4642 47.4414C40.901 48.0763 40.3025 48.6778 39.6688 49.2458C38.8591 50.0144 38.0143 50.3987 37.1342 50.3987C36.4653 50.3987 35.6908 50.1147 34.8107 49.5466C33.473 48.6444 32.5401 47.575 32.012 46.3387C31.484 45.0688 31.4136 43.6821 31.8008 42.1784ZM37.7678 45.2359C37.8382 45.2025 37.8734 45.2025 37.8734 45.2359C37.9087 45.2359 37.9439 45.2192 37.9791 45.1858C39.4576 43.916 40.8658 42.5961 42.2035 41.226C43.5764 39.8225 44.7734 38.3021 45.7943 36.6647C45.8647 36.5311 45.9703 36.3974 46.1111 36.2638C46.2519 36.1301 46.2695 35.9797 46.1639 35.8126C46.0583 35.6456 45.8999 35.5787 45.6887 35.6121C45.4774 35.6121 45.2662 35.6121 45.055 35.6121C44.8086 35.6121 44.5093 35.7124 44.1573 35.9129C43.8053 36.1134 43.4708 36.3473 43.154 36.6146C42.8372 36.8819 42.5379 37.166 42.2563 37.4667C41.9747 37.7675 41.7634 38.0014 41.6226 38.1685C40.8482 39.1375 40.1617 40.14 39.5632 41.1759C38.9648 42.2118 38.4191 43.2811 37.9263 44.3838C37.8558 44.5175 37.7854 44.6511 37.715 44.7848C37.6798 44.9185 37.6974 45.0688 37.7678 45.2359Z" fill="white"/>
<path d="M64.8876 33.6072C65.0284 33.4067 65.134 33.2229 65.2044 33.0558C65.31 32.8887 65.4156 32.7217 65.5212 32.5546C65.9085 32.0199 66.4365 31.8696 67.1054 32.1035C68.1263 32.471 68.7599 33.1059 69.0064 34.0082C69.288 34.9104 69.1296 35.7959 68.5311 36.6647C68.1087 37.2662 67.6862 37.8677 67.2638 38.4692C66.8413 39.0373 66.5421 39.6889 66.3661 40.424C66.2957 40.6914 66.1725 40.8417 65.9965 40.8751C65.8204 40.9086 65.6268 40.8751 65.4156 40.7749C64.5003 40.3405 64.0427 39.6889 64.0427 38.8201C64.0075 38.5527 64.0075 38.2854 64.0427 38.0181C64.0779 37.7508 64.1131 37.4834 64.1483 37.2161C64.1835 36.8819 64.1483 36.6647 64.0427 36.5645C63.937 36.4642 63.7082 36.4475 63.3562 36.5144C62.9338 36.6146 62.5113 36.8151 62.0889 37.1159C61.7016 37.3832 61.332 37.7173 60.9799 38.1183C60.6279 38.4859 60.3111 38.8869 60.0294 39.3213C59.7478 39.7223 59.519 40.0899 59.343 40.424C58.8501 41.3931 58.4277 42.3789 58.0756 43.3813C57.7588 44.3838 57.6532 45.4364 57.7588 46.5391C57.7588 46.8065 57.7764 46.9903 57.8116 47.0905C57.9172 47.3913 58.0052 47.5918 58.0756 47.692C58.1461 47.7588 58.3397 47.7421 58.6565 47.6419C59.431 47.3745 60.2231 46.9234 61.0328 46.2885C61.8424 45.6536 62.5113 45.0521 63.0394 44.4841C63.2154 44.317 63.3914 44.1833 63.5674 44.0831C63.7434 43.9828 63.9723 43.9828 64.2539 44.0831C65.1692 44.4172 65.3804 44.9686 64.8876 45.7372C64.6059 46.1716 64.3067 46.606 63.9899 47.0404C63.7082 47.4414 63.409 47.8591 63.0922 48.2935C62.5641 48.9952 61.9128 49.6134 61.1384 50.1481C60.3639 50.6827 59.5014 50.9501 58.5509 50.9501C57.706 50.9501 56.9139 50.6994 56.1747 50.1982C53.0415 48.2601 51.7918 45.5534 52.4255 42.0781C52.7071 40.5076 53.1999 38.9871 53.904 37.5168C54.6433 36.0465 55.6114 34.7433 56.8083 33.6072C58.0756 32.4042 59.3606 31.8027 60.6631 31.8027C61.4728 31.8027 62.2297 31.9865 62.9337 32.3541C63.6378 32.7217 64.2891 33.1394 64.8876 33.6072Z" fill="white"/>
<path d="M68.2027 45.1357C68.4844 43.4315 68.8716 41.7607 69.3645 40.1233C69.8573 38.4859 70.3678 36.8485 70.8958 35.2111C71.6351 32.9054 72.4272 30.6332 73.2721 28.3943C74.117 26.122 75.0322 23.8664 76.0179 21.6276C76.3348 20.8924 76.6164 20.1573 76.8628 19.4221C77.1093 18.6536 77.3557 17.885 77.6021 17.1164C77.8133 16.3813 78.183 16.0137 78.711 16.0137C78.9574 16.0137 79.2919 16.1139 79.7143 16.3144C80.6296 16.7489 81.2809 17.3503 81.6681 18.1189C82.0554 18.8541 82.161 19.7062 81.985 20.6752C81.8089 21.6109 81.5625 22.5298 81.2457 23.432C80.9641 24.3343 80.6472 25.2365 80.2952 26.1387C79.6263 27.8429 79.0454 29.5639 78.5526 31.3015C78.0598 33.0391 77.5141 34.7767 76.9156 36.5144C76.8804 36.5812 76.8628 36.648 76.8628 36.7149C76.8628 36.7817 76.898 36.8987 76.9684 37.0657C77.3909 36.7316 77.9013 36.3306 78.4998 35.8628C79.1335 35.3949 79.8023 34.9271 80.5064 34.4593C81.2105 33.9915 81.8969 33.5738 82.5658 33.2062C83.2699 32.8052 83.886 32.5212 84.414 32.3541C84.6956 32.2538 84.9949 32.2538 85.3117 32.3541C85.6285 32.4543 85.9102 32.6214 86.1566 32.8553C86.403 33.0558 86.5966 33.3064 86.7374 33.6072C86.8783 33.8745 86.9135 34.1418 86.8431 34.4092C86.7727 34.6765 86.6494 34.877 86.4734 35.0107C86.2974 35.1109 86.1038 35.2279 85.8926 35.3615C84.4492 36.2303 82.8826 37.2161 81.1929 38.3188C79.5383 39.4216 78.1126 40.541 76.9156 41.6771C77.2677 41.744 77.5845 41.7607 77.8661 41.7273C78.1478 41.6604 78.4294 41.627 78.711 41.627C79.6967 41.5936 80.6648 41.6103 81.6153 41.6771C82.601 41.7105 83.5867 41.7607 84.5724 41.8275C84.9597 41.8609 85.3293 41.9445 85.6813 42.0781C86.0334 42.2118 86.315 42.4624 86.5262 42.83C86.8783 43.4649 86.667 43.799 85.8926 43.8325C84.9069 43.8325 83.9388 43.8325 82.9883 43.8325C82.0378 43.8325 81.0697 43.8492 80.084 43.8826C79.2391 43.916 78.3942 43.9995 77.5493 44.1332C76.7396 44.2334 75.9299 44.3671 75.1202 44.5342C74.8386 44.601 74.6626 44.718 74.5922 44.8851C74.5218 45.0187 74.469 45.1691 74.4338 45.3362C74.3634 45.9377 74.2578 46.5391 74.117 47.1406C74.0113 47.7421 73.9761 48.3603 74.0113 48.9952C74.0465 49.9309 73.5537 50.3486 72.5328 50.2483C71.0542 50.1147 69.9101 49.58 69.1004 48.6444C68.2907 47.7087 67.9915 46.5391 68.2027 45.1357Z" fill="white"/>
<path d="M45.4151 58.4336H43.4983C42.6851 58.4336 42.0989 58.2382 41.7399 57.8472C41.3808 57.4462 41.2013 56.9199 41.2013 56.2683C41.2013 54.8248 42.3366 54.103 44.6072 54.103C46.7405 54.103 48.3457 54.4038 49.4229 55.0052L48.5041 55.6669C47.7649 55.3461 46.4659 55.1857 44.6072 55.1857C43.6989 55.1857 43.0864 55.2809 42.7696 55.4714C42.4633 55.6618 42.3102 55.9275 42.3102 56.2683C42.3102 56.6092 42.3946 56.8748 42.5636 57.0653C42.7326 57.2558 43.0441 57.351 43.4983 57.351H45.4626C46.8883 57.351 48.1715 57.5816 49.312 58.0427C50.4632 58.5038 51.4084 59.1354 52.1476 59.9373C52.8869 60.7293 53.4519 61.6465 53.8426 62.6891C54.2334 63.7216 54.4288 64.8293 54.4288 66.0122C54.4288 66.9746 54.2862 67.8868 54.0011 68.7489C53.7159 69.611 53.2829 70.403 52.7021 71.1248C52.1318 71.8465 51.44 72.4731 50.6269 73.0044C49.8242 73.5257 48.8632 73.9316 47.7437 74.2224C46.6348 74.5231 45.4309 74.6735 44.1319 74.6735C42.0937 74.6735 40.1821 74.3777 38.3974 73.7863C36.6231 73.2049 35.1446 72.3879 33.9618 71.3353L34.8806 70.6887C35.9578 71.611 37.3043 72.3277 38.9201 72.839C40.5465 73.3402 42.2838 73.5908 44.1319 73.5908C45.5788 73.5908 46.883 73.3953 48.0447 73.0044C49.217 72.6034 50.178 72.057 50.9278 71.3653C51.6882 70.6737 52.2691 69.8717 52.6704 68.9594C53.0823 68.0472 53.2882 67.0648 53.2882 66.0122C53.2882 64.6188 52.9925 63.3607 52.4011 62.238C51.8097 61.1052 50.9067 60.1879 49.6922 59.4862C48.4883 58.7845 47.0626 58.4336 45.4151 58.4336ZM43.4983 59.5163H45.3042C47.448 59.5163 49.1219 60.1378 50.3259 61.3809C51.5404 62.6239 52.1476 64.1677 52.1476 66.0122C52.1476 67.8868 51.4453 69.4406 50.0407 70.6737C48.6361 71.8967 46.6665 72.5082 44.1319 72.5082C42.4422 72.5082 40.8633 72.2876 39.3954 71.8465C37.9274 71.4055 36.7076 70.7839 35.736 69.982L36.6231 69.3053C37.4891 69.9769 38.5769 70.4982 39.8864 70.8691C41.2066 71.24 42.6217 71.4255 44.1319 71.4255C46.3603 71.4255 48.0606 70.9193 49.2328 69.9068C50.4156 68.8943 51.007 67.5961 51.007 66.0122C51.007 64.4484 50.5107 63.1552 49.518 62.1327C48.5358 61.1102 47.1259 60.5989 45.2883 60.5989H43.4983C41.9564 60.5989 40.8 60.198 40.029 59.396C39.2581 58.594 38.8726 57.5515 38.8726 56.2683C38.8726 54.9852 39.3478 53.9426 40.2983 53.1407C41.2594 52.3387 42.6956 51.9377 44.6072 51.9377C45.9484 51.9377 47.1946 52.0881 48.3457 52.3888C49.4968 52.6795 50.4473 53.1006 51.1971 53.6519L50.2942 54.3135C48.9741 53.4514 47.0784 53.0204 44.6072 53.0204C43.0125 53.0204 41.8455 53.3211 41.1062 53.9226C40.3775 54.514 40.0132 55.2959 40.0132 56.2683C40.0132 57.2507 40.2825 58.0377 40.8211 58.6291C41.3702 59.2206 42.2626 59.5163 43.4983 59.5163ZM43.4983 61.6816H45.2408C46.7827 61.6816 47.9391 62.0876 48.7101 62.8996C49.481 63.7116 49.8665 64.7491 49.8665 66.0122C49.8665 67.2954 49.386 68.3379 48.4249 69.1399C47.4744 69.9419 46.0434 70.3428 44.1319 70.3428C42.7907 70.3428 41.5392 70.1975 40.3775 69.9068C39.2264 69.606 38.2759 69.18 37.5261 68.6286L38.429 67.967C39.7492 68.8291 41.6501 69.2602 44.1319 69.2602C45.7266 69.2602 46.8883 68.9645 47.617 68.373C48.3563 67.7715 48.7259 66.9846 48.7259 66.0122C48.7259 65.0398 48.4513 64.2579 47.9021 63.6665C47.353 63.065 46.4606 62.7643 45.225 62.7643H43.4983C41.3333 62.7643 39.6383 62.1528 38.4132 60.9298C37.1987 59.6967 36.5914 58.1429 36.5914 56.2683C36.5914 54.3937 37.2937 52.8449 38.6983 51.6219C40.1029 50.3889 42.0725 49.7724 44.6072 49.7724C46.2969 49.7724 47.8705 49.9929 49.3279 50.434C50.7958 50.8751 52.0156 51.4966 52.9872 52.2986L52.1001 52.9753C51.2341 52.3036 50.1463 51.7823 48.8368 51.4114C47.5272 51.0405 46.1174 50.8551 44.6072 50.8551C42.3788 50.8551 40.6732 51.3613 39.4904 52.3738C38.3182 53.3863 37.732 54.6844 37.732 56.2683C37.732 57.8422 38.2284 59.1404 39.2211 60.1629C40.2138 61.1754 41.6395 61.6816 43.4983 61.6816ZM43.4983 63.8469H45.2408C46.054 63.8469 46.6401 64.0474 46.9992 64.4484C47.3583 64.8494 47.5378 65.3706 47.5378 66.0122C47.5378 67.4558 46.4025 68.1775 44.1319 68.1775C41.9881 68.1775 40.3775 67.8768 39.3003 67.2753L40.2191 66.6137C40.9584 66.9345 42.2626 67.0949 44.1319 67.0949C45.0402 67.0949 45.6474 66.9996 45.9537 66.8092C46.2705 66.6187 46.4289 66.3531 46.4289 66.0122C46.4289 65.6814 46.3391 65.4208 46.1596 65.2303C45.9906 65.0298 45.6738 64.9296 45.2091 64.9296H43.4983C42.0409 64.9296 40.7208 64.704 39.5379 64.2529C38.3657 63.8018 37.3994 63.1803 36.639 62.3883C35.8892 61.5964 35.3136 60.6791 34.9123 59.6366C34.511 58.594 34.3103 57.4713 34.3103 56.2683C34.3103 55.306 34.4529 54.3937 34.738 53.5316C35.0232 52.6695 35.4509 51.8776 36.0212 51.1558C36.602 50.434 37.2937 49.8125 38.0964 49.2912C38.9096 48.7599 39.8706 48.3489 40.9795 48.0582C42.0989 47.7575 43.3082 47.6071 44.6072 47.6071C46.6454 47.6071 48.5516 47.9028 50.3259 48.4943C52.1001 49.0757 53.5786 49.8927 54.7614 50.9453L53.8426 51.5919C52.7654 50.6696 51.4189 49.9579 49.8031 49.4566C48.1873 48.9454 46.4553 48.6897 44.6072 48.6897C43.1603 48.6897 41.8508 48.8902 40.6785 49.2912C39.5168 49.6822 38.5558 50.2235 37.7954 50.9152C37.0456 51.6069 36.4647 52.4089 36.0528 53.3211C35.6515 54.2333 35.4509 55.2157 35.4509 56.2683C35.4509 57.6818 35.7519 58.9549 36.3538 60.0877C36.9558 61.2205 37.8746 62.1327 39.1102 62.8244C40.3458 63.5061 41.8085 63.8469 43.4983 63.8469Z" fill="white"/>
<path d="M82.056 48.6897H83.1966V73.5908H82.056V48.6897ZM56.9634 48.6897H58.104V73.5908H56.9634V48.6897ZM79.7749 48.6897H80.9155V73.5908H79.7749V48.6897ZM77.4937 48.6897H78.6343V73.5908H77.4937V48.6897ZM75.2126 48.6897H76.3532V73.5908H75.2126V63.8319H64.9474V73.5908H63.8068V48.6897H64.9474V58.4186H75.2126V48.6897ZM61.5257 48.6897H62.6663V73.5908H61.5257V48.6897ZM59.2445 48.6897H60.3851V73.5908H59.2445V48.6897ZM75.2126 62.7492V61.6666H64.9474V62.7492H75.2126ZM75.2126 60.5839V59.5013H64.9474V60.5839H75.2126Z" fill="white"/>
<path d="M102.396 62.9146C102.396 61.6315 101.979 60.639 101.145 59.9373C100.311 59.2356 99.2069 58.8847 97.834 58.8847C96.6723 58.8847 95.6743 59.2657 94.84 60.0275C94.0057 60.7894 93.5885 61.7017 93.5885 62.7643C93.5885 63.3657 93.673 63.9071 93.842 64.3882C94.0109 64.8594 94.238 65.2554 94.5231 65.5762C94.8189 65.8869 95.1674 66.1476 95.5687 66.3581C95.97 66.5586 96.3871 66.7039 96.8201 66.7941C97.2637 66.8844 97.7337 66.9295 98.23 66.9295C99.434 66.9295 100.532 66.6488 101.525 66.0874V67.1701C100.501 67.6813 99.397 67.9369 98.2142 67.9369C97.4538 67.9369 96.7357 67.8417 96.0598 67.6512C95.3944 67.4508 94.7872 67.155 94.238 66.7641C93.6888 66.3631 93.2506 65.8218 92.9232 65.1401C92.6063 64.4484 92.4479 63.6564 92.4479 62.7643C92.4479 61.3809 92.9601 60.208 93.9845 59.2456C95.0089 58.2833 96.2921 57.8021 97.834 57.8021C99.5343 57.8021 100.907 58.2582 101.953 59.1704C103.009 60.0727 103.537 61.3207 103.537 62.9146V73.5908H102.396V62.9146ZM105.818 62.9146V73.5908H104.677V62.9146C104.677 61.02 104.039 59.5163 102.761 58.4036C101.483 57.2808 99.8406 56.7194 97.834 56.7194C95.9753 56.7194 94.4228 57.3059 93.1766 58.4788C91.9305 59.6516 91.3074 61.0801 91.3074 62.7643C91.3074 63.7868 91.4922 64.704 91.8618 65.516C92.242 66.328 92.7542 66.9796 93.3984 67.4708C94.0426 67.962 94.7608 68.3379 95.5528 68.5986C96.3555 68.8492 97.2003 68.9745 98.0874 68.9745C99.2914 68.9745 100.437 68.7088 101.525 68.1775V69.3203C100.384 69.7714 99.2333 69.997 98.0716 69.997C97.0261 69.997 96.0334 69.8466 95.0934 69.5459C94.1535 69.2351 93.3139 68.789 92.5747 68.2076C91.8354 67.6162 91.2493 66.8543 90.8163 65.922C90.3833 64.9797 90.1668 63.9271 90.1668 62.7643C90.1668 60.7894 90.9008 59.1103 92.3687 57.7269C93.8473 56.3335 95.669 55.6368 97.834 55.6368C99.3548 55.6368 100.717 55.9325 101.921 56.524C103.125 57.1054 104.075 57.9525 104.772 59.0652C105.47 60.1779 105.818 61.4611 105.818 62.9146ZM108.099 62.9146V73.5908H106.959V62.9146C106.959 61.2606 106.557 59.797 105.755 58.5239C104.963 57.2407 103.875 56.2583 102.491 55.5766C101.108 54.895 99.5554 54.5541 97.834 54.5541C96.197 54.5541 94.7027 54.925 93.3509 55.6669C91.9991 56.3987 90.9377 57.3911 90.1668 58.6442C89.4064 59.8972 89.0262 61.2706 89.0262 62.7643C89.0262 64.0474 89.2744 65.2203 89.7708 66.2829C90.2671 67.3355 90.9324 68.2026 91.7668 68.8843C92.6116 69.5659 93.5674 70.0972 94.634 70.4782C95.7113 70.8491 96.836 71.0345 98.0082 71.0345C99.2016 71.0345 100.374 70.799 101.525 70.3278V71.4255C100.321 71.8566 99.1383 72.0721 97.9766 72.0721C96.1495 72.0721 94.4703 71.6811 92.939 70.8992C91.4077 70.1173 90.1826 69.0096 89.2638 67.5761C88.345 66.1425 87.8856 64.5386 87.8856 62.7643C87.8856 61.5012 88.1391 60.2982 88.646 59.1554C89.1635 58.0126 89.8605 57.0252 90.7371 56.1931C91.6136 55.3611 92.6697 54.6995 93.9053 54.2083C95.141 53.7171 96.4505 53.4715 97.834 53.4715C99.7666 53.4715 101.509 53.8624 103.062 54.6443C104.625 55.4263 105.855 56.539 106.753 57.9825C107.65 59.4261 108.099 61.0701 108.099 62.9146ZM110.38 62.9146V73.5908H109.24V62.9146C109.24 60.8696 108.738 59.0451 107.735 57.4412C106.732 55.8272 105.364 54.5842 103.632 53.7121C101.9 52.8299 99.9673 52.3888 97.834 52.3888C95.7852 52.3888 93.9106 52.855 92.2103 53.7872C90.51 54.7195 89.1741 55.9826 88.2025 57.5765C87.2309 59.1604 86.7451 60.8897 86.7451 62.7643C86.7451 63.9973 86.951 65.1702 87.3629 66.2829C87.7853 67.3856 88.3556 68.353 89.0737 69.185C89.8024 70.007 90.6367 70.7188 91.5767 71.3202C92.5271 71.9217 93.5463 72.3778 94.634 72.6886C95.7324 72.9994 96.8465 73.1547 97.9766 73.1547C99.2227 73.1547 100.406 72.9292 101.525 72.4781V73.5908C100.353 73.9818 99.1488 74.1772 97.9132 74.1772C96.6353 74.1772 95.3891 74.0068 94.1746 73.666C92.9707 73.3252 91.8512 72.8239 90.8163 72.1623C89.7919 71.4907 88.8889 70.7037 88.1074 69.8015C87.3259 68.8893 86.7134 67.8267 86.2698 66.6137C85.8263 65.4007 85.6045 64.1176 85.6045 62.7643C85.6045 61.2104 85.9108 59.7318 86.5233 58.3284C87.1464 56.9149 87.9912 55.6969 89.0579 54.6744C90.1351 53.6419 91.4341 52.8249 92.9549 52.2234C94.4862 51.6119 96.1126 51.3062 97.834 51.3062C99.5871 51.3062 101.235 51.5868 102.776 52.1482C104.318 52.7096 105.649 53.4915 106.768 54.494C107.888 55.4864 108.77 56.7094 109.414 58.163C110.058 59.6165 110.38 61.2004 110.38 62.9146Z" fill="white"/>
<path d="M129.612 59.396L128.693 60.0576C127.774 58.975 126.591 58.4336 125.144 58.4336C123.888 58.4336 122.81 58.8597 121.913 59.7118C121.026 60.5538 120.582 61.5713 120.582 62.7643C120.582 63.9572 121.026 64.9797 121.913 65.8318C122.81 66.6738 123.888 67.0949 125.144 67.0949C125.852 67.0949 126.512 66.9495 127.125 66.6588C127.748 66.3681 128.276 65.9671 128.709 65.4559L129.596 66.1626C129.068 66.7941 128.413 67.2904 127.632 67.6512C126.85 68.0021 126.021 68.1775 125.144 68.1775C123.571 68.1775 122.224 67.6512 121.105 66.5987C119.996 65.5361 119.442 64.2579 119.442 62.7643C119.442 61.2706 119.996 59.9975 121.105 58.9449C122.224 57.8823 123.571 57.351 125.144 57.351C126.032 57.351 126.866 57.5364 127.647 57.9073C128.429 58.2682 129.084 58.7645 129.612 59.396ZM131.386 58.0427L130.483 58.7043C129.849 57.9424 129.062 57.346 128.123 56.9149C127.193 56.4839 126.201 56.2683 125.144 56.2683C123.254 56.2683 121.638 56.9049 120.297 58.178C118.966 59.4511 118.301 60.9799 118.301 62.7643C118.301 64.5486 118.966 66.0774 120.297 67.3505C121.638 68.6236 123.254 69.2602 125.144 69.2602C126.201 69.2602 127.199 69.0447 128.138 68.6136C129.078 68.1725 129.865 67.571 130.499 66.8092L131.37 67.5009C130.631 68.383 129.717 69.0797 128.63 69.591C127.542 70.0922 126.38 70.3428 125.144 70.3428C123.698 70.3428 122.362 70.007 121.137 69.3354C119.911 68.6537 118.94 67.7314 118.222 66.5686C117.514 65.4057 117.16 64.1376 117.16 62.7643C117.16 61.3909 117.514 60.1228 118.222 58.9599C118.94 57.7971 119.911 56.8798 121.137 56.2082C122.362 55.5265 123.698 55.1857 125.144 55.1857C126.38 55.1857 127.542 55.4413 128.63 55.9526C129.728 56.4538 130.647 57.1505 131.386 58.0427ZM133.176 56.6894L132.289 57.366C131.433 56.3535 130.383 55.5566 129.136 54.9752C127.89 54.3937 126.56 54.103 125.144 54.103C123.909 54.103 122.726 54.3336 121.596 54.7947C120.477 55.2458 119.505 55.8623 118.681 56.6443C117.868 57.4161 117.218 58.3384 116.733 59.411C116.257 60.4736 116.02 61.5914 116.02 62.7643C116.02 63.9371 116.257 65.0599 116.733 66.1325C117.218 67.1951 117.868 68.1174 118.681 68.8993C119.505 69.6712 120.477 70.2877 121.596 70.7488C122.726 71.1999 123.909 71.4255 125.144 71.4255C126.56 71.4255 127.89 71.1348 129.136 70.5534C130.383 69.9719 131.433 69.175 132.289 68.1625L133.144 68.8692C132.183 70.002 131.006 70.8942 129.612 71.5458C128.218 72.1874 126.729 72.5082 125.144 72.5082C123.75 72.5082 122.42 72.2525 121.152 71.7413C119.885 71.22 118.792 70.5283 117.873 69.6662C116.965 68.794 116.236 67.7565 115.687 66.5535C115.149 65.3506 114.879 64.0875 114.879 62.7643C114.879 61.441 115.149 60.1779 115.687 58.975C116.236 57.772 116.965 56.7395 117.873 55.8774C118.792 55.0052 119.885 54.3135 121.152 53.8023C122.42 53.281 123.75 53.0204 125.144 53.0204C126.739 53.0204 128.233 53.3462 129.628 53.9978C131.032 54.6494 132.215 55.5466 133.176 56.6894ZM134.95 55.336L134.031 55.9826C132.965 54.7296 131.655 53.7421 130.103 53.0204C128.561 52.2986 126.908 51.9377 125.144 51.9377C123.603 51.9377 122.124 52.2234 120.709 52.7948C119.304 53.3662 118.09 54.1381 117.065 55.1105C116.051 56.0728 115.244 57.2257 114.642 58.569C114.04 59.9022 113.739 61.3007 113.739 62.7643C113.739 64.2278 114.04 65.6313 114.642 66.9746C115.244 68.3079 116.051 69.4607 117.065 70.4331C118.09 71.3954 119.304 72.1623 120.709 72.7337C122.124 73.3051 123.603 73.5908 125.144 73.5908C126.908 73.5908 128.561 73.2299 130.103 72.5082C131.655 71.7864 132.965 70.799 134.031 69.5459L134.934 70.2075C133.762 71.5909 132.321 72.6836 130.61 73.4855C128.909 74.2775 127.088 74.6735 125.144 74.6735C123.444 74.6735 121.818 74.3577 120.265 73.7261C118.723 73.0946 117.393 72.2475 116.273 71.1849C115.154 70.1223 114.261 68.8592 113.596 67.3956C112.931 65.922 112.598 64.3782 112.598 62.7643C112.598 61.1503 112.931 59.6115 113.596 58.1479C114.261 56.6743 115.154 55.4062 116.273 54.3436C117.393 53.281 118.723 52.4339 120.265 51.8024C121.818 51.1708 123.444 50.8551 125.144 50.8551C127.088 50.8551 128.915 51.256 130.626 52.058C132.336 52.8499 133.778 53.9426 134.95 55.336Z" fill="white"/>
<path d="M161.088 51.9377H159.821L153.469 62.8545L159.726 73.5908H160.993L154.736 62.8545L161.088 51.9377ZM158.538 51.9377H157.271L150.918 62.8545L157.176 73.5908H158.443L152.186 62.8545L158.538 51.9377ZM155.987 51.9377H154.72L148.368 62.8545L154.625 73.5908H155.892L149.635 62.8545L155.987 51.9377ZM153.437 51.9377H152.17L145.801 62.8545L152.075 73.5908H153.342L147.069 62.8545L153.437 51.9377ZM143.964 51.9377H145.104V73.5908H143.964V51.9377ZM141.683 51.9377H142.823V73.5908H141.683V51.9377ZM139.402 51.9377H140.542V73.5908H139.402V51.9377ZM137.12 51.9377H138.261V73.5908H137.12V51.9377Z" fill="white"/>
<path d="M45.4151 58.4336H43.4983C42.6851 58.4336 42.0989 58.2382 41.7399 57.8472C41.3808 57.4462 41.2013 56.9199 41.2013 56.2683C41.2013 54.8248 42.3366 54.103 44.6072 54.103C46.7405 54.103 48.3457 54.4038 49.4229 55.0052L48.5041 55.6669C47.7649 55.3461 46.4659 55.1857 44.6072 55.1857C43.6989 55.1857 43.0864 55.2809 42.7696 55.4714C42.4633 55.6618 42.3102 55.9275 42.3102 56.2683C42.3102 56.6092 42.3946 56.8748 42.5636 57.0653C42.7326 57.2558 43.0441 57.351 43.4983 57.351H45.4626C46.8883 57.351 48.1715 57.5816 49.312 58.0427C50.4632 58.5038 51.4084 59.1354 52.1476 59.9373C52.8869 60.7293 53.4519 61.6465 53.8426 62.6891C54.2334 63.7216 54.4288 64.8293 54.4288 66.0122C54.4288 66.9746 54.2862 67.8868 54.0011 68.7489C53.7159 69.611 53.2829 70.403 52.7021 71.1248C52.1318 71.8465 51.44 72.4731 50.6269 73.0044C49.8242 73.5257 48.8632 73.9316 47.7437 74.2224C46.6348 74.5231 45.4309 74.6735 44.1319 74.6735C42.0937 74.6735 40.1821 74.3777 38.3974 73.7863C36.6231 73.2049 35.1446 72.3879 33.9618 71.3353L34.8806 70.6887C35.9578 71.611 37.3043 72.3277 38.9201 72.839C40.5465 73.3402 42.2838 73.5908 44.1319 73.5908C45.5788 73.5908 46.883 73.3953 48.0447 73.0044C49.217 72.6034 50.178 72.057 50.9278 71.3653C51.6882 70.6737 52.2691 69.8717 52.6704 68.9594C53.0823 68.0472 53.2882 67.0648 53.2882 66.0122C53.2882 64.6188 52.9925 63.3607 52.4011 62.238C51.8097 61.1052 50.9067 60.1879 49.6922 59.4862C48.4883 58.7845 47.0626 58.4336 45.4151 58.4336ZM43.4983 59.5163H45.3042C47.448 59.5163 49.1219 60.1378 50.3259 61.3809C51.5404 62.6239 52.1476 64.1677 52.1476 66.0122C52.1476 67.8868 51.4453 69.4406 50.0407 70.6737C48.6361 71.8967 46.6665 72.5082 44.1319 72.5082C42.4422 72.5082 40.8633 72.2876 39.3954 71.8465C37.9274 71.4055 36.7076 70.7839 35.736 69.982L36.6231 69.3053C37.4891 69.9769 38.5769 70.4982 39.8864 70.8691C41.2066 71.24 42.6217 71.4255 44.1319 71.4255C46.3603 71.4255 48.0606 70.9193 49.2328 69.9068C50.4156 68.8943 51.007 67.5961 51.007 66.0122C51.007 64.4484 50.5107 63.1552 49.518 62.1327C48.5358 61.1102 47.1259 60.5989 45.2883 60.5989H43.4983C41.9564 60.5989 40.8 60.198 40.029 59.396C39.2581 58.594 38.8726 57.5515 38.8726 56.2683C38.8726 54.9852 39.3478 53.9426 40.2983 53.1407C41.2594 52.3387 42.6956 51.9377 44.6072 51.9377C45.9484 51.9377 47.1946 52.0881 48.3457 52.3888C49.4968 52.6795 50.4473 53.1006 51.1971 53.6519L50.2942 54.3135C48.9741 53.4514 47.0784 53.0204 44.6072 53.0204C43.0125 53.0204 41.8455 53.3211 41.1062 53.9226C40.3775 54.514 40.0132 55.2959 40.0132 56.2683C40.0132 57.2507 40.2825 58.0377 40.8211 58.6291C41.3702 59.2206 42.2626 59.5163 43.4983 59.5163ZM43.4983 61.6816H45.2408C46.7827 61.6816 47.9391 62.0876 48.7101 62.8996C49.481 63.7116 49.8665 64.7491 49.8665 66.0122C49.8665 67.2954 49.386 68.3379 48.4249 69.1399C47.4744 69.9419 46.0434 70.3428 44.1319 70.3428C42.7907 70.3428 41.5392 70.1975 40.3775 69.9068C39.2264 69.606 38.2759 69.18 37.5261 68.6286L38.429 67.967C39.7492 68.8291 41.6501 69.2602 44.1319 69.2602C45.7266 69.2602 46.8883 68.9645 47.617 68.373C48.3563 67.7715 48.7259 66.9846 48.7259 66.0122C48.7259 65.0398 48.4513 64.2579 47.9021 63.6665C47.353 63.065 46.4606 62.7643 45.225 62.7643H43.4983C41.3333 62.7643 39.6383 62.1528 38.4132 60.9298C37.1987 59.6967 36.5914 58.1429 36.5914 56.2683C36.5914 54.3937 37.2937 52.8449 38.6983 51.6219C40.1029 50.3889 42.0725 49.7724 44.6072 49.7724C46.2969 49.7724 47.8705 49.9929 49.3279 50.434C50.7958 50.8751 52.0156 51.4966 52.9872 52.2986L52.1001 52.9753C51.2341 52.3036 50.1463 51.7823 48.8368 51.4114C47.5272 51.0405 46.1174 50.8551 44.6072 50.8551C42.3788 50.8551 40.6732 51.3613 39.4904 52.3738C38.3182 53.3863 37.732 54.6844 37.732 56.2683C37.732 57.8422 38.2284 59.1404 39.2211 60.1629C40.2138 61.1754 41.6395 61.6816 43.4983 61.6816ZM43.4983 63.8469H45.2408C46.054 63.8469 46.6401 64.0474 46.9992 64.4484C47.3583 64.8494 47.5378 65.3706 47.5378 66.0122C47.5378 67.4558 46.4025 68.1775 44.1319 68.1775C41.9881 68.1775 40.3775 67.8768 39.3003 67.2753L40.2191 66.6137C40.9584 66.9345 42.2626 67.0949 44.1319 67.0949C45.0402 67.0949 45.6474 66.9996 45.9537 66.8092C46.2705 66.6187 46.4289 66.3531 46.4289 66.0122C46.4289 65.6814 46.3391 65.4208 46.1596 65.2303C45.9906 65.0298 45.6738 64.9296 45.2091 64.9296H43.4983C42.0409 64.9296 40.7208 64.704 39.5379 64.2529C38.3657 63.8018 37.3994 63.1803 36.639 62.3883C35.8892 61.5964 35.3136 60.6791 34.9123 59.6366C34.511 58.594 34.3103 57.4713 34.3103 56.2683C34.3103 55.306 34.4529 54.3937 34.738 53.5316C35.0232 52.6695 35.4509 51.8776 36.0212 51.1558C36.602 50.434 37.2937 49.8125 38.0964 49.2912C38.9096 48.7599 39.8706 48.3489 40.9795 48.0582C42.0989 47.7575 43.3082 47.6071 44.6072 47.6071C46.6454 47.6071 48.5516 47.9028 50.3259 48.4943C52.1001 49.0757 53.5786 49.8927 54.7614 50.9453L53.8426 51.5919C52.7654 50.6696 51.4189 49.9579 49.8031 49.4566C48.1873 48.9454 46.4553 48.6897 44.6072 48.6897C43.1603 48.6897 41.8508 48.8902 40.6785 49.2912C39.5168 49.6822 38.5558 50.2235 37.7954 50.9152C37.0456 51.6069 36.4647 52.4089 36.0528 53.3211C35.6515 54.2333 35.4509 55.2157 35.4509 56.2683C35.4509 57.6818 35.7519 58.9549 36.3538 60.0877C36.9558 61.2205 37.8746 62.1327 39.1102 62.8244C40.3458 63.5061 41.8085 63.8469 43.4983 63.8469Z" fill="white"/>
<path d="M82.056 48.6897H83.1966V73.5908H82.056V48.6897ZM56.9634 48.6897H58.104V73.5908H56.9634V48.6897ZM79.7749 48.6897H80.9155V73.5908H79.7749V48.6897ZM77.4937 48.6897H78.6343V73.5908H77.4937V48.6897ZM75.2126 48.6897H76.3532V73.5908H75.2126V63.8319H64.9474V73.5908H63.8068V48.6897H64.9474V58.4186H75.2126V48.6897ZM61.5257 48.6897H62.6663V73.5908H61.5257V48.6897ZM59.2445 48.6897H60.3851V73.5908H59.2445V48.6897ZM75.2126 62.7492V61.6666H64.9474V62.7492H75.2126ZM75.2126 60.5839V59.5013H64.9474V60.5839H75.2126Z" fill="white"/>
<path d="M102.396 62.9146C102.396 61.6315 101.979 60.639 101.145 59.9373C100.311 59.2356 99.2069 58.8847 97.834 58.8847C96.6723 58.8847 95.6743 59.2657 94.84 60.0275C94.0057 60.7894 93.5885 61.7017 93.5885 62.7643C93.5885 63.3657 93.673 63.9071 93.842 64.3882C94.0109 64.8594 94.238 65.2554 94.5231 65.5762C94.8189 65.8869 95.1674 66.1476 95.5687 66.3581C95.97 66.5586 96.3871 66.7039 96.8201 66.7941C97.2637 66.8844 97.7337 66.9295 98.23 66.9295C99.434 66.9295 100.532 66.6488 101.525 66.0874V67.1701C100.501 67.6813 99.397 67.9369 98.2142 67.9369C97.4538 67.9369 96.7357 67.8417 96.0598 67.6512C95.3944 67.4508 94.7872 67.155 94.238 66.7641C93.6888 66.3631 93.2506 65.8218 92.9232 65.1401C92.6063 64.4484 92.4479 63.6564 92.4479 62.7643C92.4479 61.3809 92.9601 60.208 93.9845 59.2456C95.0089 58.2833 96.2921 57.8021 97.834 57.8021C99.5343 57.8021 100.907 58.2582 101.953 59.1704C103.009 60.0727 103.537 61.3207 103.537 62.9146V73.5908H102.396V62.9146ZM105.818 62.9146V73.5908H104.677V62.9146C104.677 61.02 104.039 59.5163 102.761 58.4036C101.483 57.2808 99.8406 56.7194 97.834 56.7194C95.9753 56.7194 94.4228 57.3059 93.1766 58.4788C91.9305 59.6516 91.3074 61.0801 91.3074 62.7643C91.3074 63.7868 91.4922 64.704 91.8618 65.516C92.242 66.328 92.7542 66.9796 93.3984 67.4708C94.0426 67.962 94.7608 68.3379 95.5528 68.5986C96.3555 68.8492 97.2003 68.9745 98.0874 68.9745C99.2914 68.9745 100.437 68.7088 101.525 68.1775V69.3203C100.384 69.7714 99.2333 69.997 98.0716 69.997C97.0261 69.997 96.0334 69.8466 95.0934 69.5459C94.1535 69.2351 93.3139 68.789 92.5747 68.2076C91.8354 67.6162 91.2493 66.8543 90.8163 65.922C90.3833 64.9797 90.1668 63.9271 90.1668 62.7643C90.1668 60.7894 90.9008 59.1103 92.3687 57.7269C93.8473 56.3335 95.669 55.6368 97.834 55.6368C99.3548 55.6368 100.717 55.9325 101.921 56.524C103.125 57.1054 104.075 57.9525 104.772 59.0652C105.47 60.1779 105.818 61.4611 105.818 62.9146ZM108.099 62.9146V73.5908H106.959V62.9146C106.959 61.2606 106.557 59.797 105.755 58.5239C104.963 57.2407 103.875 56.2583 102.491 55.5766C101.108 54.895 99.5554 54.5541 97.834 54.5541C96.197 54.5541 94.7027 54.925 93.3509 55.6669C91.9991 56.3987 90.9377 57.3911 90.1668 58.6442C89.4064 59.8972 89.0262 61.2706 89.0262 62.7643C89.0262 64.0474 89.2744 65.2203 89.7708 66.2829C90.2671 67.3355 90.9324 68.2026 91.7668 68.8843C92.6116 69.5659 93.5674 70.0972 94.634 70.4782C95.7113 70.8491 96.836 71.0345 98.0082 71.0345C99.2016 71.0345 100.374 70.799 101.525 70.3278V71.4255C100.321 71.8566 99.1383 72.0721 97.9766 72.0721C96.1495 72.0721 94.4703 71.6811 92.939 70.8992C91.4077 70.1173 90.1826 69.0096 89.2638 67.5761C88.345 66.1425 87.8856 64.5386 87.8856 62.7643C87.8856 61.5012 88.1391 60.2982 88.646 59.1554C89.1635 58.0126 89.8605 57.0252 90.7371 56.1931C91.6136 55.3611 92.6697 54.6995 93.9053 54.2083C95.141 53.7171 96.4505 53.4715 97.834 53.4715C99.7666 53.4715 101.509 53.8624 103.062 54.6443C104.625 55.4263 105.855 56.539 106.753 57.9825C107.65 59.4261 108.099 61.0701 108.099 62.9146ZM110.38 62.9146V73.5908H109.24V62.9146C109.24 60.8696 108.738 59.0451 107.735 57.4412C106.732 55.8272 105.364 54.5842 103.632 53.7121C101.9 52.8299 99.9673 52.3888 97.834 52.3888C95.7852 52.3888 93.9106 52.855 92.2103 53.7872C90.51 54.7195 89.1741 55.9826 88.2025 57.5765C87.2309 59.1604 86.7451 60.8897 86.7451 62.7643C86.7451 63.9973 86.951 65.1702 87.3629 66.2829C87.7853 67.3856 88.3556 68.353 89.0737 69.185C89.8024 70.007 90.6367 70.7188 91.5767 71.3202C92.5271 71.9217 93.5463 72.3778 94.634 72.6886C95.7324 72.9994 96.8465 73.1547 97.9766 73.1547C99.2227 73.1547 100.406 72.9292 101.525 72.4781V73.5908C100.353 73.9818 99.1488 74.1772 97.9132 74.1772C96.6353 74.1772 95.3891 74.0068 94.1746 73.666C92.9707 73.3252 91.8512 72.8239 90.8163 72.1623C89.7919 71.4907 88.8889 70.7037 88.1074 69.8015C87.3259 68.8893 86.7134 67.8267 86.2698 66.6137C85.8263 65.4007 85.6045 64.1176 85.6045 62.7643C85.6045 61.2104 85.9108 59.7318 86.5233 58.3284C87.1464 56.9149 87.9912 55.6969 89.0579 54.6744C90.1351 53.6419 91.4341 52.8249 92.9549 52.2234C94.4862 51.6119 96.1126 51.3062 97.834 51.3062C99.5871 51.3062 101.235 51.5868 102.776 52.1482C104.318 52.7096 105.649 53.4915 106.768 54.494C107.888 55.4864 108.77 56.7094 109.414 58.163C110.058 59.6165 110.38 61.2004 110.38 62.9146Z" fill="white"/>
<path d="M129.612 59.396L128.693 60.0576C127.774 58.975 126.591 58.4336 125.144 58.4336C123.888 58.4336 122.81 58.8597 121.913 59.7118C121.026 60.5538 120.582 61.5713 120.582 62.7643C120.582 63.9572 121.026 64.9797 121.913 65.8318C122.81 66.6738 123.888 67.0949 125.144 67.0949C125.852 67.0949 126.512 66.9495 127.125 66.6588C127.748 66.3681 128.276 65.9671 128.709 65.4559L129.596 66.1626C129.068 66.7941 128.413 67.2904 127.632 67.6512C126.85 68.0021 126.021 68.1775 125.144 68.1775C123.571 68.1775 122.224 67.6512 121.105 66.5987C119.996 65.5361 119.442 64.2579 119.442 62.7643C119.442 61.2706 119.996 59.9975 121.105 58.9449C122.224 57.8823 123.571 57.351 125.144 57.351C126.032 57.351 126.866 57.5364 127.647 57.9073C128.429 58.2682 129.084 58.7645 129.612 59.396ZM131.386 58.0427L130.483 58.7043C129.849 57.9424 129.062 57.346 128.123 56.9149C127.193 56.4839 126.201 56.2683 125.144 56.2683C123.254 56.2683 121.638 56.9049 120.297 58.178C118.966 59.4511 118.301 60.9799 118.301 62.7643C118.301 64.5486 118.966 66.0774 120.297 67.3505C121.638 68.6236 123.254 69.2602 125.144 69.2602C126.201 69.2602 127.199 69.0447 128.138 68.6136C129.078 68.1725 129.865 67.571 130.499 66.8092L131.37 67.5009C130.631 68.383 129.717 69.0797 128.63 69.591C127.542 70.0922 126.38 70.3428 125.144 70.3428C123.698 70.3428 122.362 70.007 121.137 69.3354C119.911 68.6537 118.94 67.7314 118.222 66.5686C117.514 65.4057 117.16 64.1376 117.16 62.7643C117.16 61.3909 117.514 60.1228 118.222 58.9599C118.94 57.7971 119.911 56.8798 121.137 56.2082C122.362 55.5265 123.698 55.1857 125.144 55.1857C126.38 55.1857 127.542 55.4413 128.63 55.9526C129.728 56.4538 130.647 57.1505 131.386 58.0427ZM133.176 56.6894L132.289 57.366C131.433 56.3535 130.383 55.5566 129.136 54.9752C127.89 54.3937 126.56 54.103 125.144 54.103C123.909 54.103 122.726 54.3336 121.596 54.7947C120.477 55.2458 119.505 55.8623 118.681 56.6443C117.868 57.4161 117.218 58.3384 116.733 59.411C116.257 60.4736 116.02 61.5914 116.02 62.7643C116.02 63.9371 116.257 65.0599 116.733 66.1325C117.218 67.1951 117.868 68.1174 118.681 68.8993C119.505 69.6712 120.477 70.2877 121.596 70.7488C122.726 71.1999 123.909 71.4255 125.144 71.4255C126.56 71.4255 127.89 71.1348 129.136 70.5534C130.383 69.9719 131.433 69.175 132.289 68.1625L133.144 68.8692C132.183 70.002 131.006 70.8942 129.612 71.5458C128.218 72.1874 126.729 72.5082 125.144 72.5082C123.75 72.5082 122.42 72.2525 121.152 71.7413C119.885 71.22 118.792 70.5283 117.873 69.6662C116.965 68.794 116.236 67.7565 115.687 66.5535C115.149 65.3506 114.879 64.0875 114.879 62.7643C114.879 61.441 115.149 60.1779 115.687 58.975C116.236 57.772 116.965 56.7395 117.873 55.8774C118.792 55.0052 119.885 54.3135 121.152 53.8023C122.42 53.281 123.75 53.0204 125.144 53.0204C126.739 53.0204 128.233 53.3462 129.628 53.9978C131.032 54.6494 132.215 55.5466 133.176 56.6894ZM134.95 55.336L134.031 55.9826C132.965 54.7296 131.655 53.7421 130.103 53.0204C128.561 52.2986 126.908 51.9377 125.144 51.9377C123.603 51.9377 122.124 52.2234 120.709 52.7948C119.304 53.3662 118.09 54.1381 117.065 55.1105C116.051 56.0728 115.244 57.2257 114.642 58.569C114.04 59.9022 113.739 61.3007 113.739 62.7643C113.739 64.2278 114.04 65.6313 114.642 66.9746C115.244 68.3079 116.051 69.4607 117.065 70.4331C118.09 71.3954 119.304 72.1623 120.709 72.7337C122.124 73.3051 123.603 73.5908 125.144 73.5908C126.908 73.5908 128.561 73.2299 130.103 72.5082C131.655 71.7864 132.965 70.799 134.031 69.5459L134.934 70.2075C133.762 71.5909 132.321 72.6836 130.61 73.4855C128.909 74.2775 127.088 74.6735 125.144 74.6735C123.444 74.6735 121.818 74.3577 120.265 73.7261C118.723 73.0946 117.393 72.2475 116.273 71.1849C115.154 70.1223 114.261 68.8592 113.596 67.3956C112.931 65.922 112.598 64.3782 112.598 62.7643C112.598 61.1503 112.931 59.6115 113.596 58.1479C114.261 56.6743 115.154 55.4062 116.273 54.3436C117.393 53.281 118.723 52.4339 120.265 51.8024C121.818 51.1708 123.444 50.8551 125.144 50.8551C127.088 50.8551 128.915 51.256 130.626 52.058C132.336 52.8499 133.778 53.9426 134.95 55.336Z" fill="white"/>
<path d="M161.088 51.9377H159.821L153.469 62.8545L159.726 73.5908H160.993L154.736 62.8545L161.088 51.9377ZM158.538 51.9377H157.271L150.918 62.8545L157.176 73.5908H158.443L152.186 62.8545L158.538 51.9377ZM155.987 51.9377H154.72L148.368 62.8545L154.625 73.5908H155.892L149.635 62.8545L155.987 51.9377ZM153.437 51.9377H152.17L145.801 62.8545L152.075 73.5908H153.342L147.069 62.8545L153.437 51.9377ZM143.964 51.9377H145.104V73.5908H143.964V51.9377ZM141.683 51.9377H142.823V73.5908H141.683V51.9377ZM139.402 51.9377H140.542V73.5908H139.402V51.9377ZM137.12 51.9377H138.261V73.5908H137.12V51.9377Z" fill="white"/>
<path d="M132.49 33.7858L131.152 34.0098L131.494 35.8484L129.523 36.1782L129.182 34.3396L127.843 34.5636L128.743 39.4087L130.082 39.1847L129.726 37.2672L131.696 36.9374L132.052 38.8549L133.39 38.6309L132.49 33.7858Z" fill="white"/>
<path d="M135.192 36.7753L136.106 36.6223C137.212 36.4372 137.85 35.7202 137.651 34.647C137.45 33.5659 136.592 33.0993 135.486 33.2844L133.25 33.6587L134.15 38.5037L135.472 38.2825L135.192 36.7753ZM136.354 34.864C136.422 35.227 136.251 35.5078 135.769 35.5885L134.996 35.7179L134.77 34.5027L135.543 34.3733C136.025 34.2926 136.285 34.4932 136.354 34.864Z" fill="white"/>
<path d="M141.56 32.2679L137.91 32.8787L138.81 37.7238L142.46 37.113L142.256 36.0161L139.92 36.4071L139.764 35.5707L141.901 35.2131L141.703 34.1478L139.567 34.5054L139.426 33.7478L141.762 33.3568L141.56 32.2679Z" fill="white"/>
<path d="M144.933 31.7033L145.833 36.5483L147.387 36.2882C148.867 36.0405 149.689 34.9266 149.415 33.451C149.141 31.9754 147.967 31.1954 146.487 31.4431L144.933 31.7033ZM147.319 35.9173L146.188 36.1065L145.426 32.0032L146.556 31.814C147.812 31.6039 148.752 32.2845 148.983 33.5233C149.213 34.7622 148.574 35.7072 147.319 35.9173Z" fill="white"/>
<path d="M154.613 30.0832L151.445 30.6133L152.345 35.4584L155.513 34.9282L155.444 34.5574L152.692 35.0179L152.331 33.0767L154.825 32.6593L154.757 32.2884L152.263 32.7058L151.93 30.9146L154.681 30.454L154.613 30.0832Z" fill="white"/>
<path d="M159.681 34.2305L160.064 34.1665L161.184 28.9833L160.752 29.0557L159.77 33.6461L157.21 29.6484L156.77 29.7221L159.681 34.2305Z" fill="white"/>
</svg>
