<svg width="1376" height="680" viewBox="0 0 1376 680" fill="none" xmlns="http://www.w3.org/2000/svg">
<g style="mix-blend-mode:overlay" opacity="0.5">
<path d="M79.5234 268.118C79.5234 139.486 81.6243 18.5268 85.8639 -96.628L88.6521 -96.5613C80.1727 133.682 80.1727 387.243 88.6521 678.599L85.8639 678.666C81.6242 532.987 79.5234 396.716 79.5234 268.118Z" fill="#EDEDF2"/>
<path d="M169.895 -37.1491C169.895 -57.0644 170.429 -76.9129 171.69 -96.6947L174.478 -96.5613C169.971 -25.5736 174.898 46.9486 179.711 117.102C183.148 167.641 186.739 219.881 186.739 271.154C186.739 271.22 186.739 271.254 186.739 271.287C186.739 333.368 183.53 396.283 180.436 457.163C176.731 529.652 172.912 604.609 174.516 678.566L171.728 678.599C170.124 604.576 173.981 529.585 177.648 457.029C180.742 396.216 183.95 333.301 183.95 271.287C183.95 271.254 183.95 271.187 183.95 271.154C183.95 219.981 180.398 167.741 176.922 117.236C173.447 66.5302 169.895 14.5905 169.895 -37.1491Z" fill="#EDEDF2"/>
<path d="M257.515 678.599C258.203 616.818 266.95 555.038 275.429 495.325C284.252 433.178 293.343 368.928 293.343 304.746C293.343 304.346 293.343 303.912 293.343 303.512C293.228 234.893 284.176 165.773 275.391 98.9217C267.026 35.0728 258.356 -30.9444 257.515 -96.5613L260.304 -96.5946C261.182 -31.1112 269.814 34.8393 278.179 98.6549C286.926 165.573 296.017 234.759 296.131 303.545C296.131 303.945 296.131 304.379 296.131 304.779C296.131 369.129 287.002 433.445 278.179 495.659C269.738 555.338 260.991 617.052 260.265 678.666L257.515 678.599Z" fill="#EDEDF2"/>
<path d="M343.341 678.599C346.779 625.325 361.484 573.819 375.731 524.014C391.659 468.338 408.083 410.761 408.503 351.048C409.076 268.485 391.888 185.154 375.273 104.626C361.713 38.8758 347.695 -29.1096 343.341 -96.5279L346.129 -96.6614C350.484 -29.3765 364.463 38.5088 378.023 104.192C394.638 184.821 411.788 268.352 411.291 351.048C410.871 411.027 394.37 468.738 378.443 524.581C364.234 574.286 349.567 625.658 346.129 678.699L343.341 678.599Z" fill="#EDEDF2"/>
<path d="M429.205 -96.4278L431.993 -96.6614C439.594 -26.8079 459.189 45.0805 478.096 114.634C504.069 210.074 530.882 308.816 527.864 404.723C526.146 458.831 502.426 505.533 479.547 550.734C459.303 590.665 438.372 631.963 432.031 678.832L429.243 678.532C435.622 631.296 456.668 589.831 476.988 549.734C499.791 504.766 523.357 458.297 525.076 404.656C528.132 308.983 501.319 210.474 475.384 115.201C456.4 45.5809 436.806 -26.4076 429.205 -96.4278Z" fill="#EDEDF2"/>
<path d="M514.993 675.763C514.993 628.094 545.893 595.635 575.8 564.211C605.096 533.454 635.347 501.664 638.556 454.994C645.775 349.68 609.221 236.36 573.852 126.743C549.903 52.4862 525.114 -24.3059 515.069 -96.3611L517.857 -96.6613C527.903 -24.8063 552.653 51.9191 576.564 126.076C611.971 235.893 648.639 349.414 641.382 455.128C638.135 502.598 607.541 534.722 577.977 565.779C547.039 598.271 517.819 628.961 517.819 675.663C517.819 676.664 517.819 677.698 517.857 678.699L515.069 678.766C514.993 677.765 514.993 676.764 514.993 675.763Z" fill="#EDEDF2"/>
<path d="M600.742 674.529C600.742 629.094 634.431 607.344 670.029 584.36C704.405 562.143 739.965 539.192 744.625 492.69C751.729 422.136 722.701 340.206 697.11 267.951C688.707 244.2 680.724 221.749 674.23 200.333C645.927 107.628 616.975 8.3524 600.857 -96.2944L603.645 -96.628C619.763 7.85202 648.677 107.061 676.942 199.666C683.474 221.015 691.38 243.432 699.822 267.184C725.489 339.673 754.594 421.836 747.452 492.857C742.639 540.493 706.582 563.778 671.71 586.295C635.615 609.613 601.468 631.63 603.645 678.699L600.856 678.799C600.78 677.365 600.742 675.93 600.742 674.529Z" fill="#EDEDF2"/>
<path d="M686.262 670.693C686.262 627.727 721.211 610.68 758.108 592.7C795.311 574.553 833.812 555.805 838.93 508.335C846.76 436.013 815.669 351.348 788.206 276.691C779.307 252.473 770.904 229.622 764.067 207.939C732.25 107.495 702.381 8.61927 686.682 -96.3278L689.471 -96.628C705.131 8.15225 734.962 106.928 766.779 207.305C773.616 228.921 782.019 251.772 790.918 275.957C818.419 350.848 849.625 435.746 841.757 508.569C836.486 557.339 797.373 576.387 759.521 594.835C721.211 613.516 685.04 631.163 689.509 678.632L686.72 678.832C686.377 676.03 686.262 673.295 686.262 670.693Z" fill="#EDEDF2"/>
<path d="M772.393 674.996C772.393 629.828 806.273 609.146 842.1 587.296C876.744 566.146 912.572 544.296 917.499 497.994C924.985 427.373 895.651 344.643 869.754 271.687C861.198 247.569 853.101 224.818 846.531 203.202C818.075 109.697 788.894 9.58668 772.508 -96.261L775.258 -96.628C791.644 9.0863 820.787 109.13 849.205 202.534C855.775 224.118 863.834 246.835 872.39 270.92C898.363 344.076 927.812 427.006 920.249 498.194C915.207 545.597 878.845 567.781 843.667 589.264C807.495 611.347 773.234 632.163 775.22 678.699L772.432 678.799C772.432 677.531 772.393 676.231 772.393 674.996Z" fill="#EDEDF2"/>
<path d="M858.295 676.998C858.295 630.796 890.074 601.974 920.86 574.119C951.035 546.798 982.202 518.543 986.022 473.308C995.189 364.859 956.42 245.734 918.912 130.513C894.238 54.6545 868.723 -23.8055 858.334 -96.2944L861.122 -96.5946C871.473 -24.3059 896.95 54.0541 921.624 129.845C959.17 245.267 998.015 364.592 988.81 473.509C984.914 519.611 953.365 548.199 922.884 575.82C891.144 604.609 861.122 631.796 861.122 676.964C861.122 677.565 861.122 678.165 861.122 678.766L858.334 678.799C858.295 678.199 858.295 677.598 858.295 676.998Z" fill="#EDEDF2"/>
<path d="M944.121 677.532C944.121 629.962 970.285 592.433 995.571 556.105C1020.02 521.045 1045.26 484.751 1047.78 439.049C1053.36 336.204 1023.07 227.587 993.737 122.607C973.494 50.1177 952.563 -24.8397 944.121 -96.3277L946.91 -96.5613C955.351 -25.24 976.244 49.6173 996.449 122.039C1025.82 227.22 1056.19 336.003 1050.57 439.182C1048.05 485.518 1022.58 522.079 997.977 557.406C971.737 595.068 946.91 630.696 946.91 677.532C946.91 677.965 946.91 678.366 946.91 678.799L944.121 678.833C944.121 678.365 944.121 677.932 944.121 677.532Z" fill="#EDEDF2"/>
<path d="M1029.91 676.331C1029.91 626.159 1049.27 580.257 1067.99 535.823C1086.13 492.823 1104.85 448.356 1106.19 399.952C1108.74 305.413 1087.47 208.606 1066.88 114.967C1051.6 45.5476 1035.83 -26.2407 1029.95 -96.3611L1032.74 -96.5279C1038.62 -26.5076 1054.39 45.1806 1069.63 114.534C1090.26 208.306 1111.53 305.213 1109.01 400.052C1107.68 448.856 1088.84 493.524 1070.66 536.724C1052.02 580.958 1032.74 626.659 1032.74 676.397C1032.74 677.198 1032.74 677.999 1032.74 678.799L1029.95 678.832C1029.91 677.965 1029.91 677.131 1029.91 676.331Z" fill="#EDEDF2"/>
<path d="M1115.73 -96.4612L1118.52 -96.5612C1121.62 -28.0088 1132.24 41.4778 1142.51 108.629C1155.11 191.126 1168.1 276.391 1167.38 360.822C1166.84 418.133 1154.58 474.509 1142.7 529.051C1132.12 577.655 1121.16 627.927 1118.52 678.766L1115.73 678.666C1118.37 627.66 1129.33 577.288 1139.95 528.617C1151.79 474.176 1164.05 417.899 1164.59 360.822C1165.31 276.658 1152.36 191.393 1139.76 108.996C1129.45 41.7446 1118.83 -27.7752 1115.73 -96.4612Z" fill="#EDEDF2"/>
<path d="M1201.52 678.699C1202.13 621.022 1208.09 562.844 1213.9 506.601C1219.93 447.722 1226.2 386.809 1226.31 326.429C1226.31 325.795 1226.31 325.162 1226.31 324.528C1226.31 251.939 1220.01 178.449 1213.9 107.362C1208.17 40.6438 1202.25 -28.3423 1201.56 -96.5279L1204.35 -96.5612C1205.04 -28.4758 1210.96 40.477 1216.69 107.161C1222.8 178.283 1229.1 251.839 1229.1 324.495C1229.1 325.128 1229.1 325.762 1229.1 326.396C1229.02 386.876 1222.76 447.822 1216.69 506.767C1210.92 562.977 1204.96 621.088 1204.35 678.666L1201.52 678.699Z" fill="#EDEDF2"/>
<path d="M1285.67 288.667C1285.67 159.168 1286.24 30.4694 1287.35 -96.5279L1290.14 -96.4945C1287.88 157.433 1287.88 418.266 1290.14 678.732L1287.35 678.766C1286.2 548.499 1285.67 418.166 1285.67 288.667Z" fill="#EDEDF2"/>
<path d="M1.33676 628.994C147.703 618.253 296.131 624.925 439.709 631.363C523.434 635.099 609.985 639.002 695.276 639.402C802.492 639.903 911.349 636.934 1016.69 634.098C1133.95 630.896 1255.19 627.627 1374.59 629.094L1374.55 631.53C1255.23 630.062 1133.99 633.364 1016.77 636.533C911.426 639.402 802.53 642.371 695.276 641.837C609.909 641.437 523.319 637.568 439.594 633.798C296.131 627.36 147.779 620.721 1.60421 631.43L1.33676 628.994Z" fill="#EDEDF2"/>
<path d="M1.26034 580.49C146.098 562.176 291.166 578.255 431.42 593.801C523.166 603.975 618.083 614.483 712.426 615.384C825.218 616.451 938.965 607.111 1049.01 598.037C1155.42 589.297 1265.46 580.224 1374.59 580.591L1374.59 583.026C1265.61 582.659 1155.61 591.699 1049.27 600.439C939.156 609.513 825.333 618.853 712.388 617.786C617.854 616.885 522.899 606.344 431.077 596.169C291.013 580.657 146.137 564.612 1.68051 582.859L1.26034 580.49Z" fill="#EDEDF2"/>
<path d="M1.18405 531.987C149.345 508.035 292.885 535.623 431.726 562.277C530.691 581.291 633.055 600.939 737.139 602.207C850.58 603.575 963.295 585.061 1072.34 567.18C1170.66 551.035 1272.3 534.355 1374.55 532.154L1374.62 534.589C1272.6 536.757 1171.08 553.436 1072.88 569.582C963.716 587.496 850.847 606.043 737.139 604.676C632.75 603.408 530.271 583.726 431.153 564.678C292.579 538.058 149.307 510.537 1.75693 534.388L1.18405 531.987Z" fill="#EDEDF2"/>
<path d="M1.14573 483.483C155.915 454.394 299.683 494.558 438.716 533.354C543.525 562.61 651.886 592.9 765.48 594.134C877.279 595.369 985.64 566.546 1090.41 538.658C1182.16 514.273 1277 489.054 1374.51 483.683L1374.7 486.118C1277.49 491.456 1182.81 516.642 1091.25 540.994C986.251 568.915 877.661 597.804 765.442 596.569C651.428 595.335 542.875 565.012 437.875 535.689C299.225 496.96 155.8 456.929 1.75693 485.851L1.14573 483.483Z" fill="#EDEDF2"/>
<path d="M1.10764 435.012C164.089 400.186 309.232 453.126 449.602 504.299C558.841 544.129 671.824 585.328 793.707 586.061C903.443 586.729 1005.81 547.866 1104.81 510.27C1190.87 477.612 1279.86 443.819 1374.43 435.279L1374.74 437.715C1280.63 446.221 1191.82 479.914 1105.96 512.505C1006.69 550.201 904.016 589.164 793.707 588.497C671.251 587.763 558.039 546.464 448.532 506.534C308.583 455.495 163.859 402.721 1.79514 437.381L1.10764 435.012Z" fill="#EDEDF2"/>
<path d="M1.03123 386.509C171.995 344.109 319.507 409.159 462.168 472.074C574.349 521.545 690.387 572.718 818.381 572.785C926.78 572.851 1022.77 525.415 1115.62 479.547C1196.9 439.416 1280.93 397.884 1374.43 386.809L1374.82 389.244C1281.85 400.252 1198.05 441.651 1117.03 481.682C1023.87 527.717 927.544 575.287 818.419 575.253C689.738 575.186 573.432 523.88 460.946 474.276C318.781 411.561 171.766 346.745 1.87156 388.877L1.03123 386.509Z" fill="#EDEDF2"/>
<path d="M0.954814 338.038C177.725 284.998 328.445 360.555 474.238 433.611C587.794 490.522 705.245 549.4 835.798 549.233C944.121 549.1 1034.38 495.726 1121.65 444.119C1199.38 398.151 1279.75 350.648 1374.4 338.372L1374.82 340.807C1280.82 352.983 1200.72 400.353 1123.26 446.154C1035.6 497.961 945 551.568 835.836 551.702C704.52 551.869 586.762 492.823 472.863 435.746C327.643 362.957 177.457 287.666 1.90977 340.34L0.954814 338.038Z" fill="#EDEDF2"/>
<path d="M0.840314 289.534C80.4783 259.111 162.446 256.476 251.442 281.428C330.775 303.679 408.656 345.444 483.978 385.841C597.342 446.655 714.565 509.536 842.444 510.237C951.951 510.837 1034.3 457.596 1121.46 401.22C1197.55 352.016 1276.23 301.11 1374.43 289.935L1374.78 292.37C1277.3 303.478 1198.92 354.184 1123.11 403.221C1039.42 457.363 952.868 513.306 842.406 512.705C713.725 512.005 596.158 448.923 482.488 387.943C325.886 303.912 177.954 224.585 1.94798 291.803L0.840314 289.534Z" fill="#EDEDF2"/>
<path d="M0.954818 241.131C177.725 188.09 328.445 263.648 474.238 336.704C587.794 393.614 705.245 452.492 835.798 452.326C944.121 452.192 1034.38 398.818 1121.65 347.212C1199.38 301.243 1279.75 253.74 1374.4 241.464L1374.82 243.899C1280.82 256.075 1200.72 303.445 1123.26 349.247C1035.6 401.087 945 454.661 835.836 454.794C704.52 454.961 586.762 395.916 472.863 338.839C327.643 266.05 177.457 190.759 1.90977 243.432L0.954818 241.131Z" fill="#EDEDF2"/>
<path d="M1.03124 192.727C171.995 150.328 319.507 215.378 462.168 278.292C574.349 327.764 690.387 378.936 818.381 379.003C926.78 379.07 1022.77 331.633 1115.62 285.765C1196.9 245.634 1280.93 204.102 1374.43 193.027L1374.82 195.462C1281.85 206.471 1198.05 247.869 1117.03 287.9C1023.87 333.935 927.544 381.505 818.419 381.471C689.738 381.405 573.432 330.099 460.946 280.494C318.781 217.779 171.766 152.963 1.87157 195.095L1.03124 192.727Z" fill="#EDEDF2"/>
<path d="M1.10765 144.29C164.089 109.463 309.232 162.404 449.601 213.576C558.841 253.407 671.824 294.605 793.707 295.339C903.443 296.006 1005.81 257.143 1104.85 219.547C1190.9 186.889 1279.9 153.097 1374.47 144.557L1374.78 146.992C1280.66 155.498 1191.86 189.191 1105.99 221.816C1006.72 259.511 904.054 298.475 793.745 297.807C671.289 297.073 558.077 255.775 448.57 215.845C308.621 164.806 163.898 112.032 1.83336 146.692L1.10765 144.29Z" fill="#EDEDF2"/>
<path d="M1.14574 95.8861C155.915 66.7971 299.683 106.961 438.716 145.758C543.525 175.013 651.886 205.303 765.442 206.537C877.202 207.772 985.564 178.95 1090.37 151.062C1182.12 126.71 1276.96 101.457 1374.51 96.0863L1374.7 98.5215C1277.49 103.892 1182.81 129.045 1091.21 153.397C986.213 181.318 877.622 210.174 765.442 208.973C651.466 207.738 542.875 177.415 437.875 148.093C299.187 109.363 155.8 69.3324 1.75695 98.2546L1.14574 95.8861Z" fill="#EDEDF2"/>
<path d="M1.18408 47.4823C149.345 23.5307 292.885 51.1185 431.726 77.7722C530.691 96.7868 633.055 116.435 737.139 117.703C850.58 119.071 963.295 100.556 1072.34 82.676C1170.66 66.5303 1272.3 49.8509 1374.55 47.6492L1374.62 50.0844C1272.6 52.2527 1171.08 68.9322 1072.88 85.0779C963.716 102.992 850.847 121.539 737.139 120.171C632.75 118.904 530.271 99.222 431.153 80.1741C292.579 53.5537 149.307 26.0326 1.75695 49.8842L1.18408 47.4823Z" fill="#EDEDF2"/>
<path d="M1.26037 -0.921391C146.099 -19.2354 291.166 -3.15642 431.42 12.3888C523.166 22.5633 618.083 33.0713 712.426 33.972C825.218 35.0395 938.965 25.699 1049.01 16.6254C1155.42 7.8854 1265.46 -1.18821 1374.59 -0.821259L1374.59 1.61394C1265.61 1.24699 1155.61 10.2872 1049.27 19.0273C939.156 28.1009 825.333 37.4747 712.388 36.3738C617.854 35.4732 522.899 24.9318 431.077 14.7573C291.013 -0.754585 146.137 -16.8002 1.68054 1.44709L1.26037 -0.921391Z" fill="#EDEDF2"/>
<path d="M1.33679 -49.3251C147.703 -60.0667 296.169 -53.3949 439.747 -46.9566C523.434 -43.2204 609.985 -39.3174 695.276 -38.9171C802.453 -38.4167 911.311 -41.3857 1016.62 -44.2545C1133.88 -47.457 1255.15 -50.7595 1374.55 -49.2584L1374.51 -46.8232C1255.15 -48.2909 1133.92 -44.9884 1016.69 -41.8193C911.388 -38.9505 802.492 -35.9815 695.238 -36.4819C609.871 -36.8822 523.319 -40.7852 439.556 -44.5214C296.055 -50.9597 147.703 -57.5981 1.52783 -46.8899L1.33679 -49.3251Z" fill="#EDEDF2"/>
</g>
</svg>
