<svg xmlns="http://www.w3.org/2000/svg" width="98" height="32" viewBox="0 0 98 32" fill="none">
  <path d="M39.8598 9.70153C39.7842 9.70999 39.7487 9.7493 39.7773 9.83771C39.8344 10.0143 39.9569 10.1502 40.1082 10.2683C40.092 10.2868 40.0775 10.3082 40.0652 10.3325C40.0498 10.3631 40.04 10.3941 40.0331 10.4255C39.9742 10.4555 39.9159 10.4861 39.864 10.5225C38.1824 10.5389 36.5014 10.5941 34.823 10.6797C34.7548 10.6831 34.6868 10.6887 34.6186 10.6925C33.5728 10.6687 32.5268 10.6479 31.4806 10.6483C30.646 10.6488 29.6483 10.2763 28.9785 10.7349C28.8757 10.8054 28.8458 10.9121 28.8632 11.0326C27.255 11.0424 25.6469 11.0674 24.042 11.1559C23.9411 11.13 23.8525 11.1225 23.8009 11.1684C23.325 11.1966 22.8492 11.2288 22.374 11.2696C22.3414 11.2738 22.3087 11.2774 22.276 11.2814C22.2399 11.2788 22.2038 11.2765 22.1677 11.2739C22.2009 11.1644 21.909 11.2266 21.7799 11.2137C20.7118 11.1063 19.8488 11.0719 18.7564 11.0101C18.6447 11.0057 18.0277 10.8882 17.4692 10.926C17.1747 10.8461 16.8418 10.7047 16.7215 10.9128C16.7209 10.9138 16.7205 10.9147 16.7199 10.9157C15.7442 10.8181 14.769 10.7302 13.7971 10.8162C13.5087 10.8417 13.2246 10.9002 12.9456 10.9791C12.6361 10.9496 12.3268 10.9191 12.0179 10.8846C11.88 10.8692 11.4919 10.7413 11.6092 10.8098C11.8306 10.9389 12.0503 11.0775 12.2714 11.214C11.959 11.3429 11.6562 11.4924 11.3658 11.6525C10.9517 11.639 10.0106 11.6116 9.97986 11.6293C9.96599 11.6373 9.95411 11.6475 9.94078 11.656C9.78417 11.6497 9.57406 11.641 9.55956 11.6404C9.39266 11.6397 9.19149 11.6341 9.10519 11.6928C9.06157 11.6926 9.01799 11.692 8.97438 11.6916C8.63687 11.7049 8.21733 11.5283 7.96153 11.7316C7.89414 11.7851 7.84377 11.8518 7.80634 11.9266C7.5202 11.8791 7.2453 11.8586 7.0408 11.9957C6.72386 12.0051 6.42772 12.0825 6.84226 12.4641C6.75599 12.5299 6.70026 12.5872 6.67081 12.6367C6.58384 12.6372 6.49693 12.6363 6.40996 12.637C5.75824 12.6421 5.10676 12.6532 4.45509 12.6627C4.09293 12.668 3.67505 12.5075 3.36446 12.6687C3.17663 12.6707 2.98899 12.6765 2.80211 12.6919C2.88943 12.857 2.935 13.0562 3.00491 13.2355C2.96721 13.3645 2.93073 13.4945 2.8741 13.6084C3.00763 13.6107 3.14142 13.6094 3.27506 13.6091C3.2824 13.6139 3.2879 13.6202 3.29557 13.6248C3.61079 13.8111 4.04459 13.6414 4.4191 13.6476C4.54927 13.6498 4.67944 13.6511 4.80961 13.6533C5.24239 13.683 5.67408 13.7199 6.10575 13.7606C6.09894 13.7722 6.09353 13.7842 6.08718 13.7959C5.51533 13.853 4.93758 13.9201 4.43962 13.9877C4.1321 14.0294 3.81603 14.0445 3.52082 14.1342C3.38689 14.1749 3.08679 14.2748 3.18334 14.3695C3.29284 14.4768 3.42031 14.5638 3.55565 14.6418C3.42205 14.6438 3.24281 14.6448 3.14851 14.6475C2.77199 14.6586 2.39723 14.6972 2.02149 14.722C1.91998 15.0019 1.4372 15.4176 1.7169 15.5615C1.8053 15.607 1.9455 15.6503 2.10935 15.692C2.10635 15.6968 2.10395 15.7023 2.10083 15.707C2.12224 15.7067 2.14366 15.7069 2.16507 15.7066C3.23637 15.9644 5.55063 16.1458 7.06712 16.2449C7.05794 16.2911 7.05244 16.3374 7.05087 16.3835C7.03775 16.3938 7.02446 16.4038 7.01179 16.4149C6.7901 16.3746 6.77178 16.3824 6.95179 16.4677C6.90673 16.5117 6.86151 16.5557 6.81595 16.5989C6.12469 16.5876 5.35823 16.5815 5.21831 16.58C5.07112 16.8348 4.60194 17.1054 4.77401 17.3442C4.10255 17.3333 3.43088 17.3305 2.76032 17.3471C2.83301 17.5286 2.84761 17.7563 2.89694 17.9563C2.88945 17.9723 2.88159 17.988 2.87411 18.004C2.30007 18.0252 1.72631 18.0529 1.15339 18.1006C0.868931 18.1244 0.507518 18.0103 0.302329 18.1933C0.289919 18.2044 0.280422 18.2175 0.269045 18.2293C0.223525 18.2331 0.17792 18.235 0.132428 18.2397C0.195136 18.2445 0.224065 18.2465 0.251243 18.2486C0.242721 18.2581 0.232849 18.2668 0.224925 18.2767C0.11835 18.3086 -0.0419064 18.3909 0.0654718 18.614C0.0214792 18.7819 0.00841033 18.963 6.7159e-05 19.1291C-0.00390221 19.2078 0.169082 19.1533 0.253566 19.1654C0.355321 19.159 0.457101 19.1546 0.558931 19.1512C0.558374 19.1538 0.556758 19.1558 0.556608 19.1586C0.489219 20.2059 0.67769 20.0365 1.34227 20.0323C1.71122 20.0192 2.07795 20.0009 2.4449 19.9611C2.50186 19.9548 2.94573 19.8949 3.01267 19.8887C3.10359 19.88 3.1951 19.8763 3.28629 19.8702C3.36867 19.924 3.45721 19.9673 3.54947 20.0035C3.51098 20.0331 3.49217 20.0656 3.5189 20.1069C3.5978 20.2286 3.7611 20.1943 3.95043 20.1122C4.20373 20.1558 4.46945 20.1648 4.72486 20.1646C4.71644 20.201 4.71416 20.2385 4.72793 20.2783C4.77011 20.4002 4.87964 20.4722 5.01395 20.5236C5.0132 20.6286 5.11285 20.6426 5.27751 20.5981C5.29963 20.6031 5.3208 20.6096 5.34291 20.6145C5.37031 20.6897 5.40257 20.7617 5.44238 20.8287C5.42879 20.9014 5.41551 20.9737 5.3971 21.0412C5.38857 21.0723 5.46697 21.0397 5.50198 21.0391C5.53966 21.0376 5.57732 21.0362 5.61499 21.0348C5.63019 21.0475 5.64374 21.0616 5.66027 21.0733C5.90904 21.2481 6.28561 21.0985 6.59842 21.1061C7.89413 21.1374 7.89205 21.1262 9.21432 21.115C9.59812 21.1061 9.982 21.1001 10.3657 21.0886C11.4502 21.0562 12.5335 21.0022 13.6183 20.9756C14.6494 20.9504 15.6891 20.9358 16.7199 20.9193C18.4256 20.873 20.132 20.8826 21.8383 20.879C21.8407 20.8792 21.8432 20.8795 21.8456 20.8797C21.8398 21.0124 22.0378 21.0489 22.2466 21.0551C22.451 21.1921 22.7257 21.1713 23.0117 21.1239C23.0492 21.1987 23.0998 21.2652 23.1673 21.3189C23.4231 21.5221 23.8422 21.3455 24.1798 21.3588C24.2234 21.3585 24.267 21.3583 24.3106 21.3581C24.397 21.4166 24.5982 21.4108 24.7649 21.4101C24.7795 21.4095 24.9898 21.4008 25.1465 21.3945C25.1599 21.403 25.1718 21.4132 25.1856 21.4212C25.2164 21.4389 26.1583 21.4119 26.572 21.3984C26.8621 21.5583 27.1643 21.7081 27.4764 21.8368C27.2554 21.9733 27.0358 22.1116 26.8146 22.2407C26.6973 22.3092 27.0854 22.1813 27.2233 22.1659C27.5322 22.1314 27.8419 22.1009 28.1514 22.0714C28.4303 22.1502 28.7141 22.2088 29.0025 22.2343C29.9743 22.3203 30.9497 22.2324 31.9253 22.1348C31.9259 22.136 31.9262 22.137 31.9268 22.1381C32.0473 22.3464 32.3806 22.2044 32.6754 22.1245C33.2336 22.1622 33.8505 22.0448 33.9622 22.0404C35.0546 21.9787 35.9172 21.9446 36.9853 21.8372C37.1144 21.8243 37.4068 21.8862 37.3734 21.7766C37.4094 21.774 37.4454 21.7717 37.4814 21.7691C37.5141 21.7731 37.5467 21.7768 37.5793 21.7809C37.9648 21.814 38.3506 21.8415 38.7365 21.8661C38.7369 21.8733 38.737 21.8811 38.7373 21.8882C38.74 21.9443 38.8051 21.9242 38.8936 21.8761C38.9312 21.8784 38.9688 21.8799 39.0063 21.8822C39.0295 21.9029 39.0601 21.9127 39.0961 21.9149C39.2012 21.9493 39.3227 21.931 39.4467 21.905C40.9854 21.9849 42.5268 22.0089 44.0686 22.0183C44.0513 22.1387 44.0815 22.2453 44.1843 22.3156C44.8541 22.7742 45.8518 22.4018 46.6864 22.4022C47.7322 22.4027 48.7776 22.3819 49.8232 22.358C49.8917 22.3618 49.9599 22.3674 50.0283 22.3709C51.7065 22.4565 53.3877 22.5116 55.0689 22.5281C55.1211 22.5646 55.1797 22.5953 55.2388 22.6254C55.2456 22.6568 55.2556 22.6879 55.271 22.7184C55.2832 22.7427 55.2977 22.7637 55.314 22.7822C55.1625 22.9004 55.0398 23.0362 54.9827 23.2129C54.8683 23.5665 55.7792 23.1332 56.1774 23.0931C56.2448 23.0863 56.4055 23.0705 56.499 23.0614C56.539 23.0776 56.5807 23.0924 56.6186 23.1105C57.4899 23.0607 58.3608 23.0038 59.2314 22.9451C59.7503 23.1776 60.3938 22.8793 60.973 22.8403C63.3179 22.6827 64.4248 22.5823 66.1932 22.4215C66.2808 22.4253 66.3684 22.4302 66.456 22.4322C66.6864 22.4374 66.9924 22.5812 67.1476 22.4243C67.1589 22.413 67.1666 22.4033 67.1774 22.3923C67.2606 22.3896 67.3251 22.3695 67.3559 22.317C67.4539 22.3082 67.4795 22.306 67.583 22.2967C68.2976 22.2102 69.0618 22.2787 69.7562 22.1292C70.1721 22.1622 70.5889 22.1942 70.8553 21.977C71.3039 21.9696 71.7525 21.9682 72.2014 21.9862C72.4483 21.9917 72.6953 21.9994 72.9422 22.0062C72.9533 22.0111 72.9639 22.0167 72.9762 22.0201C73.0457 22.0389 73.1154 22.0536 73.1856 22.0664C73.2001 22.0765 73.2147 22.0854 73.2297 22.0935C73.2275 22.1023 73.2275 22.1121 73.2252 22.1206C73.2434 22.1192 73.2616 22.1174 73.2798 22.116C73.4148 22.1689 73.5708 22.1566 73.7342 22.1221C74.1217 22.1949 74.5279 22.1313 74.9348 22.06C76.0605 22.0881 77.1863 22.1027 78.3123 22.0611C79.4334 22.0195 79.3765 22.0278 80.446 21.966C80.5576 21.9595 80.6692 21.9529 80.7808 21.9464C80.8469 21.9506 80.9128 21.9571 80.9789 21.961C82.0003 22.0352 83.0198 21.9517 84.0399 21.9164C85.1032 21.8817 86.1676 21.8939 87.2294 21.8284C87.2256 21.8173 87.2249 21.8086 87.2249 21.8002C87.3255 21.8197 87.4303 21.8449 87.4803 21.792C87.5926 21.8235 87.7029 21.8526 87.711 21.7874C87.7247 21.6762 87.7373 21.5599 87.7442 21.4438C87.9099 21.4195 88.0752 21.3983 88.2392 21.3881C88.9914 21.3416 89.744 21.298 90.4948 21.2359C90.9991 21.1942 91.5051 21.1574 92.0038 21.0766C92.1539 21.0523 92.5279 21.0295 92.4291 20.9226C92.2363 20.7139 91.9906 20.5589 91.7333 20.4153C91.8516 20.3053 91.9662 20.1924 92.0712 20.0717C92.2007 20.0514 92.2969 20.0056 92.3018 19.8956C92.3021 19.8897 92.3016 19.8844 92.3018 19.8785C92.3484 19.8758 92.392 19.8745 92.4388 19.8717C92.8058 19.8501 93.204 19.9335 93.5384 19.7926C93.5873 19.772 93.6455 19.7388 93.704 19.7003C94.0145 19.7023 94.4201 19.7166 94.7432 19.6347C94.9567 19.6664 95.219 19.7463 95.2575 19.5873C95.2769 19.5071 95.288 19.4351 95.2947 19.367C95.3526 19.3577 95.4141 19.3498 95.4785 19.3427C95.6248 19.3834 95.7607 19.4093 95.804 19.3042C95.8044 19.3032 95.8047 19.3024 95.8055 19.3014C96.2536 19.2341 96.587 19.0763 95.9108 18.355C95.7663 18.2009 95.4711 18.3108 95.2505 18.2987C94.9167 18.2802 94.5823 18.2743 94.2481 18.2634C94.0261 18.2561 93.7815 18.1717 93.5615 18.1721C93.5466 18.1318 93.4731 18.1427 93.3982 18.1554C93.1878 18.0699 92.9851 17.9917 92.7929 17.9236C93.1003 17.7801 93.4281 17.6127 93.7876 17.4139C93.9874 17.3034 93.3221 17.3901 93.0894 17.3782C92.6814 17.3944 92.273 17.4075 91.8648 17.4214C91.8497 17.3909 91.8337 17.3606 91.8168 17.3308C92.7366 17.2579 93.6566 17.187 94.5763 17.112C94.781 17.0533 95.3689 17.0455 95.1905 16.9359C94.8285 16.7136 94.4896 16.5352 94.1637 16.3876C94.4108 16.2771 94.6733 16.1549 94.9722 16.0087C95.1232 15.9348 94.6306 16.0213 94.4598 16.0276C94.0954 16.044 93.7315 16.0634 93.3672 16.0807C93.1111 16.0012 92.8604 15.9437 92.6106 15.8996C92.563 15.8008 92.4909 15.7035 92.4051 15.6216C92.7734 15.5989 93.1358 15.5588 93.4806 15.4654C93.8145 15.4946 94.1556 15.5286 94.3007 15.2979C94.3836 15.1662 94.3511 14.9921 94.2616 14.8309C94.281 14.7566 94.2878 14.6823 94.2849 14.6106C95.0958 14.5757 96.0115 14.4784 96.7351 14.1886C96.8851 14.1799 97.0352 14.172 97.1852 14.1632C97.4508 14.1369 98.1173 14.2963 97.9821 14.0841C97.8725 13.9121 97.7365 13.7693 97.5815 13.6492C97.7271 13.4977 97.8423 13.3241 97.9147 13.122C98 12.8841 97.3711 13.1025 97.0993 13.0928C96.7113 13.1012 96.3234 13.1137 95.9355 13.1234C95.4774 13.0912 94.998 13.1138 94.536 13.1601C94.2731 13.1677 94.0101 13.1734 93.7473 13.1815C93.8005 12.9962 93.8145 12.7913 93.8521 12.6058C93.8647 12.5443 93.6834 12.6011 93.5441 12.6361C93.5354 12.6231 93.5289 12.6091 93.5189 12.5966C93.4607 12.5234 93.3601 12.5241 93.2507 12.5406C92.5963 12.4824 91.942 12.4161 91.2869 12.3642C91.2802 12.2781 91.2744 12.192 91.2734 12.1064C91.098 12.0891 90.9229 12.0671 90.747 12.0544C90.37 12.0273 89.0272 11.9632 88.7225 11.9478C87.25 11.8735 85.779 11.8144 84.305 11.7728C83.2718 11.7559 82.2379 11.7379 81.2042 11.7325C81.4715 11.6987 81.739 11.6672 82.0073 11.6409C82.4666 11.573 83.1526 11.5819 82.5754 10.8727C82.6034 10.7134 82.5183 10.6627 82.3838 10.6584C82.373 10.6473 82.365 10.6378 82.3537 10.6264C82.1984 10.4694 81.8928 10.6136 81.6624 10.6189C81.3395 10.6262 81.0171 10.6488 80.6945 10.6638C80.3452 10.685 79.9953 10.7012 79.6464 10.7276C78.3978 10.8223 78.7887 10.8254 77.5472 10.913C77.1078 10.9439 76.6675 10.9628 76.2278 10.99C74.8643 11.0741 74.541 11.1 73.173 11.1964C72.9478 11.2115 72.7222 11.2263 72.4969 11.2416C72.4692 11.2072 72.3793 11.2303 72.2871 11.2559C72.2827 11.2562 72.2776 11.2563 72.2728 11.2566C72.2221 11.2065 72.1186 11.2312 72.0193 11.2505C72.0198 11.2421 72.0208 11.2334 72.0238 11.2223C70.962 11.1568 69.8977 11.1694 68.8344 11.1347C67.8143 11.0993 66.7948 11.0155 65.7734 11.0897C65.7073 11.0937 65.6416 11.1001 65.5756 11.1044C65.464 11.0978 65.3524 11.0912 65.2408 11.0848C64.1714 11.0229 64.2282 11.0312 63.1072 10.9896C61.9812 10.948 60.855 10.9626 59.7292 10.9906C59.3225 10.9194 58.9164 10.8558 58.5291 10.9286C58.3653 10.8939 58.2091 10.8818 58.0739 10.935C58.0559 10.9336 58.0378 10.9318 58.0198 10.9304C58.022 10.939 58.0228 10.9487 58.0243 10.9575C58.0094 10.9655 57.9948 10.9743 57.9805 10.9842C57.9103 10.9971 57.8402 11.0121 57.7708 11.0309C57.7583 11.0343 57.7478 11.0399 57.7367 11.0448C57.4899 11.0516 57.2431 11.0593 56.9963 11.0648C56.5475 11.0828 56.0988 11.081 55.6502 11.0737C55.3841 10.8565 54.9675 10.8888 54.5519 10.9218C53.8573 10.7721 53.0925 10.8404 52.3776 10.7539C49.3379 10.4817 48.7298 10.4094 45.7676 10.2103C45.1882 10.1714 44.5449 9.87306 44.026 10.1059C43.1554 10.0472 42.2848 9.99028 41.4136 9.94046C41.3757 9.95866 41.3339 9.97336 41.294 9.98965C41.2004 9.98049 41.0397 9.96471 40.9723 9.95793C40.6737 9.9278 40.0866 9.67625 39.86 9.70162L39.8598 9.70153ZM91.6703 20.0894C91.6007 20.0949 91.531 20.0993 91.4613 20.1044C91.4628 20.103 91.4651 20.1018 91.4666 20.1005C91.5266 20.0923 91.5968 20.0901 91.6705 20.0894L91.6703 20.0894Z" fill="#06A192"/>
  <path d="M26.9057 32C26.6052 31.933 26.3881 31.7991 26.2546 31.5981C26.2546 31.6316 26.2045 31.6818 26.1043 31.7488C26.0041 31.7823 25.904 31.7991 25.8038 31.7991C25.737 31.8326 25.6702 31.8493 25.6034 31.8493L25.1025 31.5479L24.7519 31.2967C24.0173 31.5311 23.5832 31.6484 23.4496 31.6484C23.3494 31.6484 23.1324 31.4809 22.7984 31.146L22.8986 30.8446V30.3422C22.8652 30.2418 22.8485 30.0073 22.8485 29.6389L22.8986 28.8854C22.8652 28.8519 22.8485 28.7682 22.8485 28.6342C22.8485 28.5672 22.8485 28.5003 22.8485 28.4333C22.8819 28.3328 22.9153 28.2323 22.9487 28.1319C22.8819 27.5625 22.8318 27.1104 22.7984 26.7755C22.7651 26.4071 22.7484 26.1727 22.7484 26.0722L22.9988 25.5699C22.6315 25.3019 22.4478 25.101 22.4478 24.967C22.4478 24.8666 22.5814 24.7159 22.8485 24.5149C22.7817 24.5149 22.7317 24.4479 22.6983 24.314C22.6649 24.18 22.6148 24.113 22.548 24.113C22.5814 24.0126 22.5981 23.7949 22.5981 23.46L22.548 22.8069L22.8986 22.606C22.8318 22.4385 22.7484 22.3213 22.6482 22.2543V21.9027C22.4478 21.5008 22.3476 21.2831 22.3476 21.2496C22.3476 21.2161 22.3977 21.1324 22.4979 20.9984C22.5981 20.898 22.6482 20.8142 22.6482 20.7473L22.5981 20.5463C22.5313 20.4123 22.4979 20.3286 22.4979 20.2951L22.5981 19.2904C22.5313 19.2234 22.4812 19.1397 22.4478 19.0392V18.5871C22.4478 18.5871 22.4478 18.5704 22.4478 18.5369C22.4478 18.5034 22.4311 18.4699 22.3977 18.4364C22.3309 18.3694 22.3143 18.3192 22.3476 18.2857C22.3476 18.0178 22.4979 17.6661 22.7984 17.2308C22.7651 17.1638 22.6148 17.0968 22.3476 17.0298C22.1807 17.0298 22.0972 16.9461 22.0972 16.7787V16.6279H21.9469L21.997 16.8791C21.997 16.8791 21.997 16.8959 21.997 16.9294C21.997 16.9294 21.9803 16.9461 21.9469 16.9796C21.7466 16.9796 21.6297 17.0968 21.5963 17.3312C21.5963 17.3982 21.5462 17.4819 21.446 17.5824L21.4961 17.8336C21.4627 17.8671 21.4127 17.9508 21.3459 18.0848C21.446 18.2857 21.446 18.4699 21.3459 18.6374C21.1121 19.0392 20.9785 19.2234 20.9452 19.19L20.8951 19.1397C20.8951 19.1397 20.8617 19.1397 20.7949 19.1397C20.5945 19.0727 20.4944 19.3239 20.4944 19.8933V20.7473C20.5277 20.8142 20.5611 20.898 20.5945 20.9984C20.6279 21.0989 20.6613 21.2161 20.6947 21.3501L20.6446 22.2041H20.4443C20.3775 22.0031 20.3107 21.8859 20.2439 21.8524H20.0936L19.9935 21.9027C20.2606 22.3715 20.3942 22.6562 20.3942 22.7567C20.3274 23.0246 20.2272 23.1418 20.0936 23.1083C20.0269 23.0413 19.9434 22.9911 19.8432 22.9576C19.7764 22.8906 19.6929 22.8404 19.5928 22.8069C19.4926 22.8069 19.4425 22.8237 19.4425 22.8571C19.4425 22.8906 19.5427 22.9911 19.743 23.1586C19.7764 23.393 19.91 23.5437 20.1437 23.6107L20.0936 24.4647L19.5427 24.4144C19.5761 24.6824 19.5928 24.9001 19.5928 25.0675C19.5928 25.2015 19.5928 25.2852 19.5928 25.3187L19.5427 25.4694C19.5427 25.5029 19.526 25.5364 19.4926 25.5699C19.4592 25.5699 19.4425 25.5866 19.4425 25.6201L19.5427 26.0722C19.5761 26.2062 19.5928 26.3234 19.5928 26.4239C19.5928 26.4908 19.5928 26.5411 19.5928 26.5746C19.5594 26.6081 19.5093 26.675 19.4425 26.7755C19.4091 26.8425 19.359 26.9597 19.2922 27.1272L19.0919 27.73C18.9917 27.9644 18.8247 28.1486 18.591 28.2826C18.591 28.4835 18.6411 28.6677 18.7412 28.8352C18.8414 29.0026 18.8748 29.1868 18.8414 29.3878C18.808 29.4547 18.7579 29.572 18.6912 29.7394C18.6244 29.8734 18.5576 30.0408 18.4908 30.2418C18.4574 30.2752 18.4574 30.4762 18.4908 30.8446C18.3906 31.0455 18.2237 31.1293 17.9899 31.0958L17.6393 30.9451C17.5057 30.8781 17.3888 30.8446 17.2887 30.8446L16.938 30.9451L16.4872 31.0455C16.4539 31.012 16.3871 30.9785 16.2869 30.9451C16.2201 30.9116 16.1366 30.8948 16.0364 30.8948H15.5356C15.5022 30.8948 15.4354 30.8781 15.3352 30.8446C15.2684 30.8111 15.1682 30.7776 15.0347 30.7441L14.5338 30.6436C14.5004 30.6436 14.4169 30.6771 14.2833 30.7441C14.1498 30.8446 14.0663 30.8781 14.0329 30.8446C13.9327 30.8446 13.8325 30.6939 13.7324 30.3925C13.6322 30.3255 13.5821 30.2418 13.5821 30.1413L13.7324 29.6389V29.4882C13.7324 29.3208 13.6823 29.1868 13.5821 29.0863L13.7824 28.9859H13.8325V29.0863C13.8993 29.0194 13.9494 28.9189 13.9828 28.7849H13.7824C13.6489 28.7849 13.5821 28.6175 13.5821 28.2826V27.6798C13.5821 27.2779 13.5487 27.1104 13.4819 27.1774C13.7824 27.0434 13.9494 26.9262 13.9828 26.8257C13.9828 26.7253 13.7991 26.5411 13.4318 26.2732L13.532 26.022C13.532 26.022 13.4986 25.955 13.4318 25.821C13.3984 25.5866 13.3316 25.4024 13.2315 25.2684C13.2983 24.6991 13.3483 24.2302 13.3817 23.8619C13.4151 23.46 13.4318 23.192 13.4318 23.0581L13.2315 22.2543C13.2315 22.1873 13.2983 22.0869 13.4318 21.9529L13.6322 21.752C13.5988 21.7855 13.5153 21.618 13.3817 21.2496C13.4485 21.1826 13.4485 21.0654 13.3817 20.898C13.3483 20.831 13.2983 20.764 13.2315 20.697C13.1647 20.5965 13.0979 20.4793 13.0311 20.3454C13.0645 20.2784 13.0812 20.1612 13.0812 19.9937L13.0311 19.843C13.0311 19.8095 13.0144 19.7928 12.981 19.7928C12.9476 19.7593 12.9309 19.7258 12.9309 19.6923L12.981 18.6374C12.981 18.6039 12.981 18.5369 12.981 18.4364C12.981 18.336 12.9643 18.2187 12.9309 18.0848L13.0311 17.7834C13.365 17.5824 13.532 17.3815 13.532 17.1805C13.532 16.9796 13.2816 16.6614 12.7807 16.2261C12.7473 16.0586 12.7306 15.8744 12.7306 15.6735C12.7306 15.4725 12.7306 15.2381 12.7306 14.9702V14.5683C12.7306 14.3339 12.6972 14.1832 12.6304 14.1162C12.6972 13.9822 12.7306 13.8315 12.7306 13.6641C12.6304 13.4966 12.5302 13.2789 12.43 13.011C12.4634 12.9105 12.4801 12.7766 12.4801 12.6091C12.4801 12.4417 12.4801 12.2407 12.4801 12.0063C12.4467 11.7718 12.4133 11.6379 12.38 11.6044C12.4467 11.5039 12.4968 11.3867 12.5302 11.2527C12.597 11.1188 12.6638 10.9681 12.7306 10.8006C13.0311 10.6332 13.2148 10.449 13.2816 10.248V10.0973C13.2816 9.89639 13.2315 9.74568 13.1313 9.64521C12.9643 9.77917 12.8475 10.0806 12.7807 10.5495H12.7306C12.6972 10.5495 12.6638 10.5662 12.6304 10.5997C12.6304 10.5997 12.6137 10.5997 12.5803 10.5997C12.5135 10.5997 12.43 10.516 12.3299 10.3485C12.4634 9.91314 12.5302 9.62847 12.5302 9.49451C12.5302 9.42753 12.4801 9.3438 12.38 9.24333L12.43 8.54003C12.3299 8.37258 12.2297 8.10466 12.1295 7.73626L12.1796 6.53061C12.1796 6.46363 12.1629 6.37991 12.1295 6.27944L12.0794 6.07849L11.9792 4.42072C11.9792 4.28676 12.0293 4.10256 12.1295 3.86813C12.1629 3.83464 12.213 3.78441 12.2798 3.71743C12.3466 3.65045 12.4467 3.58346 12.5803 3.51648C12.5469 3.4495 12.3967 3.39927 12.1295 3.36578L11.9792 3.26531C11.9459 2.89691 11.8457 2.39456 11.6787 1.75824C11.8123 1.62428 11.9459 1.57405 12.0794 1.60754C12.0794 1.57405 12.1128 1.52381 12.1796 1.45683C11.9792 1.28938 11.829 1.0382 11.7288 0.703297L11.7789 0C11.8457 0.0334899 11.9292 0.0837257 12.0293 0.150707C12.1629 0.184197 12.2965 0.234433 12.43 0.301415C12.4634 0.267923 12.5135 0.251177 12.5803 0.251177C12.6471 0.251177 12.7306 0.234432 12.8308 0.200942L13.2315 0.401885C13.2983 0.368395 13.3817 0.334905 13.4819 0.301415C13.6155 0.267923 13.7491 0.234432 13.8826 0.200942L14.3835 0.35165H14.4837C14.6507 0.35165 14.8009 0.301414 14.9345 0.200942C15.0013 0.267924 15.0681 0.334905 15.1348 0.401885C15.2016 0.468864 15.2851 0.535845 15.3853 0.602827C15.4521 0.602827 15.5689 0.519101 15.7359 0.35165L15.8862 0.401885C15.8862 0.401885 15.8862 0.5191 15.8862 0.753531C15.8528 0.887493 15.9029 0.97122 16.0364 1.00471C16.17 1.00471 16.2535 0.954476 16.2869 0.854004C16.3203 0.787022 16.3203 0.703297 16.2869 0.602827C16.2535 0.468865 16.2368 0.401885 16.2368 0.401885L16.4872 0.452119L16.8379 0.602827H17.1885L17.2887 0.803769L17.1384 2.66248C16.9714 2.76295 16.7878 2.94715 16.5874 3.21507C16.5874 3.21507 16.6709 3.34903 16.8379 3.61696C16.9714 3.85139 17.0382 3.98535 17.0382 4.01884C17.0048 4.21978 16.8713 4.32025 16.6375 4.32025C16.5707 4.32025 16.4872 4.32025 16.3871 4.32025C16.2869 4.32025 16.1867 4.30351 16.0865 4.27002C16.0531 4.30351 16.0364 4.38723 16.0364 4.52119C16.2034 4.68865 16.337 4.78912 16.4372 4.82261C16.5707 4.82261 16.7043 4.75563 16.8379 4.62166L17.0883 4.97331C17.2219 5.17426 17.2887 5.27473 17.2887 5.27473L17.1384 5.62638C17.105 5.76034 17.105 5.96128 17.1384 6.2292C17.1384 6.29618 17.1217 6.34642 17.0883 6.37991C16.9213 6.37991 16.8379 6.48038 16.8379 6.68132C16.8379 6.88226 16.8713 7.04971 16.938 7.18367C16.7711 7.31764 16.6876 7.43485 16.6876 7.53532C16.6876 7.73626 16.7544 7.7865 16.888 7.68603H17.0883L17.2887 8.33909C17.2219 8.47305 17.1551 8.59027 17.0883 8.69074C17.0215 8.75772 16.9547 8.8247 16.888 8.89168L16.7878 9.99686C17.0883 10.1643 17.2219 10.3485 17.1885 10.5495C17.1885 10.5829 17.1551 10.6332 17.0883 10.7002C16.9881 10.8006 16.938 10.8844 16.938 10.9513L17.0382 11.303C17.0716 11.4035 17.105 11.4872 17.1384 11.5542C17.1718 11.6211 17.1885 11.6714 17.1885 11.7049L17.3888 11.8556C17.3888 11.9226 17.3721 12.0063 17.3388 12.1068C17.3388 12.2072 17.3388 12.3412 17.3388 12.5086L17.2386 13.9152V13.9655C17.2386 14.1329 17.2887 14.4678 17.3888 14.9702L17.2386 15.1711C17.2052 15.2046 17.1885 15.2548 17.1885 15.3218H17.2386C17.272 15.3218 17.3054 15.3386 17.3388 15.3721C17.5391 15.3721 17.8063 15.1041 18.1402 14.5683C18.1068 14.5348 18.1235 14.4343 18.1903 14.2669C18.2571 14.0659 18.3572 13.9822 18.4908 14.0157C18.4908 13.9487 18.4407 13.8985 18.3405 13.865C18.3071 13.798 18.2904 13.6306 18.2904 13.3626L18.7412 11.8053C18.7746 11.7049 18.7913 11.4704 18.7913 11.102L18.9416 10.9513V10.449C18.975 10.4155 18.9917 10.3485 18.9917 10.248L19.192 9.99686C19.192 9.8629 19.192 9.71219 19.192 9.54474C19.2254 9.3438 19.2588 9.12611 19.2922 8.89168C19.359 8.52329 19.4926 8.33909 19.6929 8.33909C19.8933 8.40607 20.0436 8.47305 20.1437 8.54003L20.2439 8.4898C20.2439 8.35583 20.1938 8.27211 20.0936 8.23862C19.9601 8.23862 19.8599 8.20513 19.7931 8.13815C19.7597 8.07117 19.7263 8.00419 19.6929 7.93721C19.6929 7.83674 19.6762 7.71952 19.6428 7.58556L19.9935 7.33438C20.0603 7.13344 20.0936 6.98273 20.0936 6.88226L20.1938 6.48038L20.0936 6.02826C20.0269 5.76034 20.0102 5.60963 20.0436 5.57614C20.0436 5.44218 20.1103 5.30822 20.2439 5.17426L20.1437 4.72214C20.1437 4.65516 20.3274 4.4877 20.6947 4.21978C20.4944 3.85139 20.3942 3.68394 20.3942 3.71743L20.4944 3.16484C20.6947 2.99739 20.7949 2.7797 20.7949 2.51177V2.16013C20.8283 2.12664 20.8617 2.09314 20.8951 2.05965C20.9285 2.02617 20.9619 1.97593 20.9952 1.90895L21.0954 1.30612C21.1288 0.971221 21.2958 0.803769 21.5963 0.803769C21.6297 0.837259 21.7466 0.90424 21.9469 1.00471C22.1473 1.10518 22.2642 1.15542 22.2976 1.15542C22.3977 1.15542 22.5146 1.05495 22.6482 0.854004L22.7984 0.904239C22.8318 0.937729 22.8652 0.97122 22.8986 1.00471C22.932 1.0382 22.9821 1.07169 23.0489 1.10518C23.0823 1.07169 23.1992 1.05495 23.3995 1.05495C23.4997 1.28938 23.5999 1.40659 23.7 1.40659C23.9004 1.40659 24.0173 1.38985 24.0507 1.35636C24.0841 1.32287 24.0674 1.30612 24.0006 1.30612H24.1008L24.1508 1.35636C24.251 1.45683 24.3345 1.40659 24.4013 1.20565C24.5683 1.27263 24.6851 1.35636 24.7519 1.45683L24.8521 2.31083C24.8855 2.27734 24.9857 1.95918 25.1526 1.35636C25.186 1.32287 25.2361 1.30612 25.3029 1.30612C25.3363 1.30612 25.57 1.44009 26.0041 1.70801C26.0041 1.70801 25.9874 1.7415 25.954 1.80848C25.9207 1.87546 25.8706 1.95918 25.8038 2.05965C25.8372 2.12664 25.8539 2.31083 25.8539 2.61225H25.7537C25.7871 2.64574 25.8038 2.71272 25.8038 2.81319L25.7537 2.96389V3.51648L25.954 3.71743V4.21978L26.0542 4.32025C26.0876 4.35374 26.1043 4.42072 26.1043 4.52119C26.0375 4.58817 25.9874 4.75563 25.954 5.02355C25.8539 5.32496 25.7871 5.49241 25.7537 5.5259L25.954 5.97802C25.954 6.01151 25.954 6.07849 25.954 6.17896C25.954 6.24595 25.9373 6.36316 25.904 6.53061L26.0041 6.68132C26.0375 6.7483 26.0542 6.81528 26.0542 6.88226C26.0208 6.91575 25.9874 6.94924 25.954 6.98273C25.9207 7.01622 25.8706 7.06646 25.8038 7.13344V7.73626C25.904 7.87023 26.0041 8.07117 26.1043 8.33909L25.904 9.54474L26.0542 9.74568C26.121 9.87965 26.1377 10.0471 26.1043 10.248C26.1377 10.4155 26.1711 10.4992 26.2045 10.4992L25.8539 11.1523C25.8539 11.1523 25.8706 11.1858 25.904 11.2527C25.9707 11.2862 26.0375 11.37 26.1043 11.5039L26.0041 11.956C25.904 11.8556 25.8038 11.7886 25.7036 11.7551C25.57 13.0947 25.5199 13.798 25.5533 13.865C26.0542 14.4008 26.3047 14.7525 26.3047 14.9199L25.954 15.4725C25.954 15.4725 25.8539 15.506 25.6535 15.573V15.7237C25.6201 15.7572 25.6368 15.7739 25.7036 15.7739C25.737 15.7405 25.8038 15.7237 25.904 15.7237L26.4048 15.9246C26.4048 16.0921 26.288 16.2428 26.0542 16.3768C26.0876 16.4437 26.2212 16.5107 26.4549 16.5777C26.6219 16.5777 26.7388 16.5442 26.8056 16.4772V16.3768C26.8056 16.2428 26.7555 16.1088 26.6553 15.9749C27.0894 15.8744 27.3231 15.707 27.3565 15.4725C27.3565 15.3386 27.3231 15.2716 27.2564 15.2716L26.9558 15.1711L27.3565 15.0204C27.5903 14.853 27.6237 14.6018 27.4567 14.2669L27.607 12.8603C27.6738 12.7933 27.7405 12.7096 27.8073 12.6091C27.8741 12.4751 27.9409 12.3412 28.0077 12.2072L28.0578 11.2527V10.7002L28.3583 9.94663C28.4251 9.84615 28.5253 9.81266 28.6588 9.84615C28.6922 9.64521 28.6755 9.47776 28.6088 9.3438L28.4585 8.99215C28.5587 8.89168 28.6255 8.77446 28.6588 8.6405V8.03768C28.6588 7.76975 28.7256 7.48509 28.8592 7.18367L29.1096 6.83203C29.0429 6.73155 28.9928 6.5641 28.9594 6.32967C29.0262 5.8943 29.0763 5.60963 29.1096 5.47567C29.2432 5.34171 29.3768 5.15751 29.5104 4.92308L29.4603 4.47096L29.3601 4.06908C29.5938 3.56672 29.7775 3.04762 29.9111 2.51177V2.4113C29.9111 2.31083 29.861 2.16013 29.7608 1.95919L29.861 1.80848C30.0613 1.64103 30.2617 1.59079 30.462 1.65777C30.462 1.65777 30.5622 1.69126 30.7626 1.75824C30.8961 1.82522 30.9796 1.85871 31.013 1.85871H31.0631C31.1967 1.85871 31.3303 1.79173 31.4638 1.65777C31.564 1.75824 31.6642 1.82522 31.7644 1.85871C31.7644 1.85871 31.8311 1.85871 31.9647 1.85871L32.2152 1.80848C32.2485 1.80848 32.332 1.84197 32.4656 1.90895C32.499 1.90895 32.5825 1.87546 32.716 1.80848L32.9164 1.75824C33.0166 1.85871 33.1835 1.95918 33.4173 2.05965L34.3189 1.95919C34.3523 1.99268 34.3857 2.00942 34.4191 2.00942C34.4859 2.00942 34.5359 2.02617 34.5693 2.05965H34.6695C34.7363 2.05965 34.8031 2.05965 34.8699 2.05965C34.97 2.05965 35.0702 2.04291 35.1704 2.00942C35.2706 2.04291 35.3207 2.05965 35.3207 2.05965V2.31083C35.3207 2.34432 35.2873 2.39456 35.2205 2.46154L34.92 3.46625C34.8532 3.6337 34.7697 3.73417 34.6695 3.76766C34.7029 3.83464 34.7196 3.9686 34.7196 4.16954L34.5693 4.52119C34.6695 4.75563 34.6862 4.95657 34.6194 5.12402L34.2688 5.5259C34.2354 5.55939 34.2354 5.59288 34.2688 5.62638C34.2354 5.76034 34.1185 5.87755 33.9182 5.97802C33.985 6.01151 34.0351 6.11198 34.0684 6.27944L33.7178 7.03297C33.7512 7.06646 33.8681 7.0832 34.0684 7.0832C34.0351 7.21716 34.0518 7.33438 34.1185 7.43485L33.6176 7.93721C33.651 8.20513 33.6844 8.35583 33.7178 8.38933L33.4173 8.84145C33.4173 8.90843 33.4173 8.99215 33.4173 9.09262C33.4173 9.1596 33.4006 9.26007 33.3672 9.39404C33.3338 9.42753 33.2837 9.46102 33.2169 9.49451C33.1835 9.528 33.1335 9.57823 33.0667 9.64521L33.3171 9.99686H32.9665C32.6994 10.0638 32.6159 10.1141 32.716 10.1476C32.6827 10.1476 32.6326 10.0973 32.5658 9.99686C32.3654 10.1308 32.2485 10.2648 32.2152 10.3987C32.2152 10.4657 32.2485 10.516 32.3153 10.5495C32.3487 10.516 32.6159 10.4825 33.1168 10.449C33.1835 10.6499 33.2169 10.7671 33.2169 10.8006C33.0834 10.9346 32.9999 11.0518 32.9665 11.1523C32.8329 11.3867 32.7661 11.6881 32.7661 12.0565L32.4656 12.5086C32.499 12.5421 32.5157 12.6091 32.5157 12.7096C32.5157 12.7766 32.5324 12.877 32.5658 13.011C32.4322 13.0445 32.3153 13.0445 32.2152 13.011L31.9647 12.9105C31.9313 12.9105 31.8812 12.944 31.8144 13.011C31.6141 13.0445 31.4805 13.1784 31.4137 13.4129L31.7644 14.1162C32.0315 13.8482 32.2319 13.6138 32.3654 13.4129C32.2319 14.1497 32.1818 14.5515 32.2152 14.6185L31.3636 16.7284C31.2301 16.7619 31.0631 16.7619 30.8628 16.7284C30.8294 16.7619 30.8127 16.8456 30.8127 16.9796C30.8127 16.9796 30.8628 17.0131 30.9629 17.0801L31.1132 17.0298H31.2134C31.2802 17.2308 31.3136 17.3647 31.3136 17.4317C31.2802 17.4652 31.2134 17.5824 31.1132 17.7834C31.0464 17.9843 31.013 18.1015 31.013 18.135C31.013 18.2355 31.0631 18.4197 31.1633 18.6876V18.9388C31.0965 19.0058 30.9796 19.0727 30.8127 19.1397C30.6123 19.2737 30.5121 19.4244 30.5121 19.5918C30.5121 19.6923 30.6123 19.8263 30.8127 19.9937C30.8127 20.0607 30.7626 20.1779 30.6624 20.3454C30.5622 20.4793 30.5121 20.697 30.5121 20.9984C30.4453 21.2998 30.3452 21.5678 30.2116 21.8022C30.078 21.8357 29.9278 21.9697 29.7608 22.2041V22.3046C29.7608 22.3715 29.7608 22.4553 29.7608 22.5557C29.7608 22.6562 29.7775 22.7734 29.8109 22.9074C29.6105 22.9409 29.5104 23.0079 29.5104 23.1083C29.5104 23.1753 29.5437 23.2423 29.6105 23.3093C29.6773 23.4432 29.7107 23.5269 29.7107 23.5604C29.6439 23.6274 29.5771 23.7446 29.5104 23.9121C29.5104 24.046 29.4937 24.2302 29.4603 24.4647C29.4603 24.6991 29.4436 24.9503 29.4102 25.2182C29.0429 25.3857 28.8926 25.6034 28.9594 25.8713L29.0095 26.2229C29.0095 26.2899 29.0095 26.3569 29.0095 26.4239C29.0429 26.4908 29.0596 26.5411 29.0596 26.5746C29.0596 26.742 29.0429 26.8592 29.0095 26.9262L28.5587 27.4788C28.3249 27.8472 28.208 28.1151 28.208 28.2826C28.3082 28.3496 28.375 28.4668 28.4084 28.6342L28.2581 29.9403C28.0578 30.1413 27.8741 30.3925 27.7072 30.6939L27.8073 31.0455V31.0958C27.8073 31.2632 27.7405 31.4976 27.607 31.7991C27.3064 31.933 27.0727 32 26.9057 32ZM15.9363 0.401885H15.8862C15.9196 0.401885 15.9363 0.401885 15.9363 0.401885ZM13.3817 2.10989C13.4151 2.0764 13.4986 2.02617 13.6322 1.95919C13.5988 1.92569 13.5153 1.92569 13.3817 1.95919V2.10989ZM13.9828 2.51177C14.1164 2.57876 14.2165 2.54527 14.2833 2.4113C14.2165 2.34432 14.1665 2.31083 14.1331 2.31083C14.0329 2.31083 13.9828 2.37781 13.9828 2.51177ZM32.4155 3.36578C32.6159 3.16484 32.716 3.01413 32.716 2.91366V2.86342C32.716 2.56201 32.5157 2.39456 32.115 2.36107C32.0148 2.32758 31.9313 2.34432 31.8645 2.4113L31.8144 2.56201C31.8144 2.66248 31.9146 2.79644 32.115 2.96389C32.3153 3.16484 32.4155 3.2988 32.4155 3.36578ZM22.3977 3.91837C22.4311 3.88488 22.5146 3.83464 22.6482 3.76766C22.6482 3.70068 22.5647 3.70068 22.3977 3.76766V3.91837ZM22.9988 4.32025C23.099 4.35374 23.1992 4.30351 23.2993 4.16954C23.2659 4.13605 23.2159 4.11931 23.1491 4.11931C23.0489 4.11931 22.9988 4.18629 22.9988 4.32025ZM31.4638 4.47096C31.4972 4.37049 31.4805 4.28676 31.4137 4.21978C31.3803 4.1528 31.3136 4.16955 31.2134 4.27002C31.2134 4.337 31.2969 4.40398 31.4638 4.47096ZM21.997 6.02826C22.0304 5.99477 21.997 5.92779 21.8968 5.82732C21.8635 5.82732 21.8134 5.86081 21.7466 5.92779L21.8968 5.97802C21.9302 5.97802 21.9469 5.99477 21.9469 6.02826C21.9803 6.02826 21.997 6.02826 21.997 6.02826ZM21.997 6.83203C22.0304 6.76505 22.0137 6.69807 21.9469 6.63108C21.8801 6.5641 21.8134 6.5641 21.7466 6.63108C21.7466 6.69807 21.8301 6.76505 21.997 6.83203ZM23.2492 6.88226V6.68132C23.2159 6.61434 23.1658 6.61434 23.099 6.68132L23.2492 6.88226ZM13.3316 8.18838C13.4652 8.02093 13.532 7.87023 13.532 7.73626C13.4986 7.66928 13.365 7.55207 13.1313 7.38462L12.6805 7.93721C12.7473 7.9707 12.8308 8.00419 12.9309 8.03768C13.0645 8.07117 13.1981 8.1214 13.3316 8.18838ZM12.38 11.6546C12.38 11.5877 12.38 11.5709 12.38 11.6044V11.6546ZM21.2958 14.8195C21.396 14.853 21.4961 14.8027 21.5963 14.6688C21.5629 14.6353 21.5128 14.6185 21.446 14.6185C21.3459 14.6185 21.2958 14.6855 21.2958 14.8195ZM19.5928 15.6232C19.6595 15.5563 19.6929 15.506 19.6929 15.4725C19.6929 15.3721 19.6261 15.3218 19.4926 15.3218C19.4258 15.4223 19.4592 15.5228 19.5928 15.6232ZM23.2492 15.6232C23.3494 15.6567 23.4496 15.6065 23.5498 15.4725C23.5164 15.439 23.4663 15.4223 23.3995 15.4223C23.2993 15.4223 23.2492 15.4893 23.2492 15.6232ZM15.8862 17.3815C15.9864 17.415 16.1032 17.3647 16.2368 17.2308C16.2034 17.1973 16.1366 17.1805 16.0364 17.1805C15.9363 17.1805 15.8862 17.2475 15.8862 17.3815ZM26.3548 17.7834C26.3881 17.7834 26.3548 17.7164 26.2546 17.5824C26.2212 17.5824 26.1711 17.6159 26.1043 17.6829L26.3548 17.7834ZM14.2332 18.1852C14.2666 18.1518 14.2833 18.1015 14.2833 18.0345C14.2833 17.9341 14.2165 17.8838 14.083 17.8838C14.0496 17.9843 14.0997 18.0848 14.2332 18.1852ZM17.8396 18.1852C17.9398 18.2187 18.0567 18.1685 18.1903 18.0345C18.1569 18.001 18.0901 17.9843 17.9899 17.9843C17.8897 17.9843 17.8396 18.0513 17.8396 18.1852ZM26.3548 18.5871C26.3881 18.5201 26.3715 18.4532 26.3047 18.3862C26.2379 18.3192 26.1544 18.3192 26.0542 18.3862C26.0876 18.4532 26.1878 18.5201 26.3548 18.5871ZM27.607 18.6374V18.4364C27.5736 18.3694 27.5235 18.3694 27.4567 18.4364L27.607 18.6374ZM14.9846 20.7975C15.018 20.7305 15.1682 20.5631 15.4354 20.2951C15.4354 20.2951 15.4688 20.1947 15.5356 19.9937L16.0364 19.4914C15.7693 19.2234 15.6357 19.0727 15.6357 19.0392C15.6357 18.8048 15.6023 18.6541 15.5356 18.5871L15.235 18.5369V18.9388L15.3853 19.3909C15.3853 19.4914 15.2684 19.5583 15.0347 19.5918V19.843C15.0681 19.843 15.0848 19.8765 15.0848 19.9435C15.0848 20.0105 15.0013 20.2616 14.8343 20.697L14.9846 20.7975ZM27.4567 22.8571C27.4567 22.7567 27.44 22.6897 27.4066 22.6562C27.3732 22.6227 27.2897 22.6395 27.1562 22.7064C27.1562 22.8069 27.2564 22.8571 27.4567 22.8571ZM25.4532 23.5604C25.5199 23.5939 25.6201 23.5437 25.7537 23.4097C25.6869 23.3428 25.6034 23.326 25.5032 23.3595C25.4365 23.4265 25.4198 23.4935 25.4532 23.5604ZM16.9881 24.314C17.0215 24.314 17.0549 24.2972 17.0883 24.2637L17.1885 24.2135C17.1885 24.18 17.1551 24.1298 17.0883 24.0628L16.9881 24.314ZM27.3064 27.4286C27.5402 27.4286 27.6571 27.2779 27.6571 26.9765C27.6571 26.742 27.5569 26.5746 27.3565 26.4741V26.1727C27.2564 26.0052 27.2897 25.8378 27.4567 25.6703L28.0077 25.4694L27.9576 25.3187H27.607L27.4567 25.2182C27.3899 25.1847 27.2897 25.168 27.1562 25.168L27.056 25.3187C26.9892 25.3857 26.9558 25.4192 26.9558 25.4192L26.7555 25.3187C26.6553 25.2517 26.5885 25.235 26.5551 25.2684C26.5217 25.3354 26.505 25.4526 26.505 25.6201C26.505 26.0555 26.5718 26.3401 26.7054 26.4741L26.9558 26.5243C26.9558 26.5243 26.9892 26.5913 27.056 26.7253C27.0894 26.7588 27.0894 26.7923 27.056 26.8257C27.0226 26.9262 27.0226 27.0434 27.056 27.1774C27.1228 27.3448 27.2063 27.4286 27.3064 27.4286ZM14.8844 25.7708C14.9846 25.8043 15.0681 25.7875 15.1348 25.7206C15.1682 25.6871 15.1515 25.6034 15.0848 25.4694C15.018 25.4694 14.9512 25.5699 14.8844 25.7708ZM17.0883 29.0863C17.0883 28.9859 17.0716 28.9189 17.0382 28.8854C16.9714 28.8184 16.888 28.8184 16.7878 28.8854C16.7878 28.9524 16.888 29.0194 17.0883 29.0863ZM26.4048 29.1868C26.4382 29.1198 26.4215 29.0529 26.3548 28.9859C26.3214 28.9524 26.2379 28.9691 26.1043 29.0361C26.1043 29.1366 26.2045 29.1868 26.4048 29.1868ZM24.4013 29.8901C24.4681 29.9236 24.5683 29.8734 24.7018 29.7394C24.6684 29.7059 24.6183 29.6892 24.5516 29.6892C24.4514 29.6892 24.4013 29.7562 24.4013 29.8901Z" fill="#FE409C"/>
  <path d="M35.961 31.6484C35.7272 31.6484 35.5436 31.6149 35.41 31.5479C35.41 31.146 35.4601 30.5767 35.5603 29.8399C35.7272 29.7729 35.8274 29.6389 35.8608 29.438V28.8854C35.8608 28.718 35.8608 28.5003 35.8608 28.2323C35.8942 27.9309 35.9109 27.6128 35.9109 27.2779C36.0779 27.2109 36.1613 27.0937 36.1613 26.9262V26.4239C36.1613 26.4239 36.1279 26.3569 36.0612 26.2229V25.2684C35.9944 25.101 35.9777 24.9168 36.0111 24.7159L36.0612 24.3642C36.0612 24.2972 36.0612 24.2302 36.0612 24.1633C36.0946 24.0963 36.1113 24.046 36.1113 24.0126C36.1446 23.9791 36.178 23.9456 36.2114 23.9121C36.2448 23.8786 36.2782 23.8284 36.3116 23.7614C36.3784 23.5604 36.4118 23.393 36.4118 23.259C36.4118 23.2255 36.3617 23.1418 36.2615 23.0078C36.1613 22.9074 36.1113 22.8237 36.1113 22.7567C36.1113 22.7902 36.178 22.6729 36.3116 22.405C36.4118 22.2376 36.4619 22.0534 36.4619 21.8524L37.3635 21.0487C37.2633 21.0152 37.1631 20.9482 37.0629 20.8477L37.0128 20.4961C37.0128 20.3956 36.9628 20.2951 36.8626 20.1947C36.729 20.0942 36.6622 19.9937 36.6622 19.8933V19.6421C36.6622 19.5751 36.6622 19.4746 36.6622 19.3407C36.6622 19.1732 36.6789 19.0058 36.7123 18.8383C36.7457 18.8048 36.7624 18.7546 36.7624 18.6876C36.7624 18.6206 36.7791 18.5369 36.8125 18.4364L36.6622 17.9341C36.729 17.8671 36.7791 17.7666 36.8125 17.6327C36.8793 17.4652 36.9461 17.2978 37.0128 17.1303V17.0298C37.0128 16.9628 36.9795 16.7954 36.9127 16.5275V16.4772C36.9127 16.4103 36.9127 16.3433 36.9127 16.2763C36.9461 16.1758 36.9628 16.0586 36.9628 15.9246L37.0128 15.3721C37.0462 15.0037 37.0629 14.7357 37.0629 14.5683C37.0963 14.4008 37.113 14.3506 37.113 14.4176C37.113 13.9822 37.0963 13.7813 37.0629 13.8148C37.0963 13.7478 37.1297 13.6808 37.1631 13.6138C37.1965 13.5468 37.2299 13.4464 37.2633 13.3124L37.3134 12.6593C37.4136 12.5589 37.5137 12.3579 37.6139 12.0565C37.5471 11.8891 37.4803 11.6379 37.4136 11.303C37.4136 11.2695 37.4637 11.2025 37.5638 11.102C37.664 11.0016 37.7141 10.9346 37.7141 10.9011L37.4636 10.5997V10.3485C37.4303 10.1476 37.447 9.94663 37.5137 9.74568C37.6473 9.6787 37.7308 9.57823 37.7642 9.44427V9.29356C37.7642 9.19309 37.7642 9.05913 37.7642 8.89168C37.7642 8.72423 37.7475 8.52329 37.7141 8.28885L37.6139 7.98744C37.5805 7.81999 37.6139 7.68603 37.7141 7.58556L38.0146 7.38462C37.9812 7.31764 37.9645 7.21716 37.9645 7.0832C37.9645 6.91575 37.9645 6.7483 37.9645 6.58085C37.9645 6.51387 37.9812 6.44689 38.0146 6.37991C38.048 6.31293 38.0814 6.21246 38.1148 6.07849L38.215 5.67661C38.215 5.67661 38.1816 5.60963 38.1148 5.47567C38.0146 5.3752 37.9645 5.30822 37.9645 5.27473C37.9645 5.04029 38.0313 4.83935 38.1649 4.6719C38.2985 4.50445 38.3653 4.337 38.3653 4.16954L38.1148 3.71743C38.1148 3.65045 38.1148 3.58346 38.1148 3.51648C38.1148 3.4495 38.1315 3.36578 38.1649 3.26531C38.1983 3.19833 38.2317 3.13135 38.2651 3.06436C38.2985 2.99738 38.3319 2.89691 38.3653 2.76295L38.2651 1.5573C38.2651 1.28938 38.3653 1.13867 38.5656 1.10518C38.7326 1.10518 38.8828 1.15542 39.0164 1.25589C39.15 1.38985 39.2335 1.45683 39.2668 1.45683L40.5692 1.00471L40.9699 1.05495L41.3205 1.15542L41.5709 1.05495C41.7045 0.987965 41.7713 0.954474 41.7713 0.954474H42.5226C42.5226 0.987966 42.5727 1.02146 42.6729 1.05495C42.7731 1.08844 42.8566 1.10518 42.9233 1.10518L43.6246 0.954474C43.6914 0.887494 43.7748 0.887494 43.875 0.954474L44.0754 1.00471C44.1422 1.00471 44.3091 0.920985 44.5763 0.753531L44.8267 0.803769L44.8768 1.80848C44.81 2.00942 44.7432 2.16013 44.6764 2.2606C44.6097 2.39456 44.5763 2.49503 44.5763 2.56201V2.76295C44.4427 2.79644 44.3759 2.94715 44.3759 3.21507L44.1756 3.26531C43.9752 3.03087 43.7915 2.88017 43.6246 2.81319V2.91366C43.6246 2.98064 43.6914 3.09785 43.8249 3.26531C43.9585 3.43276 44.0253 3.56672 44.0253 3.66719L43.9752 3.71743C43.9084 3.78441 43.875 3.88488 43.875 4.01884L44.4761 3.9686C44.4761 3.90162 44.4761 3.83464 44.4761 3.76766C44.5095 3.66719 44.5429 3.54997 44.5763 3.41601H44.7265C44.7933 3.54997 44.9436 3.75092 45.1773 4.01884L45.2274 4.32025C45.2608 4.35374 45.2942 4.38723 45.3276 4.42072C45.361 4.45421 45.3944 4.50445 45.4278 4.57143C45.4278 4.60492 45.3944 4.65516 45.3276 4.72214C45.2608 4.8561 45.2274 4.93982 45.2274 4.97331C45.2274 4.97331 45.361 5.15751 45.6281 5.5259C45.8619 5.86081 45.9788 6.06175 45.9788 6.12873C45.9788 6.2292 45.8786 6.32967 45.6782 6.43014L45.3276 6.63108V6.73156L45.8786 6.98273C45.912 7.0832 45.9621 7.2674 46.0289 7.53532C46.0956 7.56881 46.1958 7.68603 46.3294 7.88697L46.1791 8.23862C46.0789 8.47305 46.0289 8.60701 46.0289 8.6405L46.6299 9.44427L46.3795 9.79592C46.4129 9.82941 46.5297 9.91313 46.7301 10.0471V10.5997C46.7969 10.7002 46.847 10.8509 46.8804 11.0518V11.1523C46.8804 11.3532 46.8303 11.5542 46.7301 11.7551L47.0807 11.956L47.3813 12.9608L47.231 13.3626C47.2978 13.4296 47.3479 13.5133 47.3813 13.6138V13.865C47.3813 14.0994 47.5315 14.3171 47.8321 14.5181L47.2811 15.0706C47.0139 15.3386 46.8804 15.5228 46.8804 15.6232C46.8804 15.7907 47.1141 15.9079 47.5816 15.9749C48.0491 16.0419 48.2995 16.2093 48.3329 16.4772C48.3329 16.5777 48.2829 16.6782 48.1827 16.7787C48.2829 17.1136 48.3329 17.3815 48.3329 17.5824C48.3329 17.5824 48.2995 17.6327 48.2328 17.7331C48.1994 17.8336 48.1827 17.9006 48.1827 17.9341L48.6335 18.8383C48.6335 18.9053 48.5834 19.0225 48.4832 19.19L48.7837 19.4914C48.7837 19.6923 48.8004 19.8598 48.8338 19.9937C48.9006 20.0607 48.9841 20.1612 49.0843 20.2951C49.1845 20.4291 49.2345 20.6133 49.2345 20.8477C49.2679 20.8812 49.2345 20.9984 49.1344 21.1994C49.0342 21.4338 48.9841 21.5845 48.9841 21.6515C48.9841 21.685 49.101 21.8692 49.3347 22.2041C49.3347 22.2376 49.3347 22.3046 49.3347 22.405C49.3681 22.472 49.4015 22.5557 49.4349 22.6562C49.5017 22.6897 49.5685 22.7567 49.6353 22.8571C49.702 22.9241 49.7688 23.0079 49.8356 23.1083C49.8356 23.2423 49.7688 23.326 49.6353 23.3595L49.3347 23.5102V23.9121C49.4015 23.9456 49.4683 23.9791 49.5351 24.0126C49.6353 24.046 49.7521 24.0963 49.8857 24.1633C49.9525 24.2302 49.9859 24.4479 49.9859 24.8163L49.8857 24.967C49.8857 25.2015 49.9859 25.4024 50.1862 25.5699L50.5869 25.7206L50.3365 26.0722C50.3699 26.1057 50.4033 26.1392 50.4367 26.1727C50.4701 26.2062 50.5035 26.2564 50.5368 26.3234V26.6248H50.1862C50.1528 26.6583 50.1361 26.675 50.1361 26.675C50.1695 26.675 50.1695 26.6918 50.1361 26.7253L50.036 26.8257C50.2363 26.9932 50.4534 27.2276 50.6871 27.529L50.9376 28.4835V29.1868C51.0711 29.3878 51.188 29.6892 51.2882 30.0911L51.2381 30.2418C50.9376 30.4427 50.6537 30.5432 50.3866 30.5432L49.9859 30.3925L49.3347 30.4929C49.1678 30.5264 49.0342 30.5599 48.934 30.5934C48.8338 30.6269 48.767 30.6436 48.7337 30.6436L48.4832 30.5934C48.383 30.5599 48.3162 30.5599 48.2829 30.5934C48.2495 30.5934 48.2161 30.5934 48.1827 30.5934C48.1159 30.6269 48.0157 30.6604 47.8821 30.6939C47.782 30.7274 47.6651 30.7441 47.5315 30.7441H46.9805C46.9138 30.7441 46.8303 30.7609 46.7301 30.7943C46.6633 30.8613 46.5464 30.9283 46.3795 30.9953C46.0789 30.9953 45.912 30.7776 45.8786 30.3422C45.8786 30.3087 46.0122 30.0576 46.2793 29.5887C46.4129 29.3543 46.513 29.1701 46.5798 29.0361C46.6466 28.9021 46.6967 28.8017 46.7301 28.7347L46.2793 28.8854C46.0455 28.9859 45.8619 29.0361 45.7283 29.0361H45.6782L45.528 28.1821L45.2775 27.6295C45.2775 27.3951 45.4111 27.1774 45.6782 26.9765C45.6448 26.9765 45.5614 26.8927 45.4278 26.7253C45.2942 26.5913 45.2107 26.4406 45.1773 26.2732C45.1439 26.2062 45.0939 26.0052 45.0271 25.6703L44.8768 25.5196V25.168L44.977 24.967C44.7766 24.5986 44.4594 24.4144 44.0253 24.4144C44.0253 24.4144 43.9418 24.4479 43.7749 24.5149L43.4743 24.4647C43.3741 24.4312 43.274 24.4144 43.1738 24.4144L42.5727 24.5149C42.3724 24.5484 42.2221 24.5819 42.1219 24.6154C42.0551 24.6489 42.005 24.6656 41.9717 24.6656C41.9383 24.6991 41.8548 24.6824 41.7212 24.6154C41.5876 24.5484 41.5042 24.5149 41.4708 24.5149L41.2704 24.6154C41.0701 24.6824 40.9532 24.7159 40.9198 24.7159L40.8697 24.8666C40.9031 24.8666 40.9365 24.8833 40.9699 24.9168C41.0033 24.9168 41.0534 24.9335 41.1201 24.967V25.168L40.8697 25.0675C40.7695 25.168 40.7194 25.2517 40.7194 25.3187C40.853 25.4192 40.9699 25.5866 41.07 25.821L40.9198 26.2229C40.8864 26.3569 40.853 26.4908 40.8196 26.6248C40.7862 26.7253 40.7528 26.809 40.7194 26.876C40.7528 26.9765 40.7695 27.2109 40.7695 27.5793C40.5692 28.4165 40.469 28.8017 40.469 28.7347C40.469 28.7682 40.4857 28.8352 40.5191 28.9356C40.5525 29.0026 40.5859 29.1031 40.6193 29.237L40.7194 29.7394C40.7194 29.7394 40.6693 29.8231 40.5692 29.9906C40.469 30.1245 40.4189 30.2418 40.4189 30.3422V30.4427C40.4189 30.5767 40.469 30.7441 40.5692 30.9451V31.0455C40.5692 31.213 40.4022 31.2967 40.0683 31.2967C40.0683 31.2967 39.9347 31.28 39.6676 31.2465L39.2168 31.146C39.15 31.1795 39.0665 31.213 38.9663 31.2465C38.8661 31.28 38.7493 31.2967 38.6157 31.2967H38.215L36.512 31.5981C36.4118 31.6316 36.3116 31.6484 36.2114 31.6484C36.1112 31.6484 36.0278 31.6484 35.961 31.6484ZM42.723 2.66248C42.7564 2.5955 42.7397 2.52852 42.6729 2.46154C42.6395 2.42805 42.556 2.44479 42.4225 2.51177C42.4892 2.61225 42.5894 2.66248 42.723 2.66248ZM45.1273 7.88697C45.361 7.88697 45.5113 7.80325 45.5781 7.63579C45.5447 7.66928 45.5113 7.56881 45.4779 7.33438L45.1773 7.38462C45.0772 7.38462 44.9937 7.43485 44.9269 7.53532C44.8935 7.56881 44.9102 7.65254 44.977 7.7865C45.0438 7.85348 45.0939 7.88697 45.1273 7.88697ZM39.2668 11.7551C39.2668 11.7216 39.2168 11.6546 39.1166 11.5542L39.0164 11.6546C39.0498 11.6881 39.0832 11.7049 39.1166 11.7049C39.1834 11.7049 39.2335 11.7216 39.2668 11.7551ZM42.7731 19.9937L43.4743 19.7425C43.5745 19.7091 43.6914 19.5918 43.8249 19.3909L43.7248 17.9341C43.4576 17.7666 43.3574 17.281 43.4242 16.4772L43.274 16.3265L43.0736 15.4223C43.0736 15.4558 43.1237 15.3218 43.2239 15.0204L42.9233 14.7692L43.3741 14.5683L42.9734 14.3673C42.9734 14.1999 42.9233 13.999 42.8232 13.7645C42.7564 13.5971 42.7063 13.4631 42.6729 13.3626C42.6395 13.2287 42.6061 13.1115 42.5727 13.011C42.5727 12.6091 42.6729 12.3077 42.8733 12.1068L42.4225 12.0063L41.9717 12.157V12.2575C41.9717 12.3914 41.8715 12.5086 41.6711 12.6091C41.6711 12.877 41.6043 13.0277 41.4708 13.0612C41.4708 13.1952 41.4708 13.3459 41.4708 13.5133C41.5042 13.6808 41.5375 13.8817 41.5709 14.1162C41.5709 14.1497 41.5209 14.2501 41.4207 14.4176L41.4708 14.6688C41.4708 14.7023 41.4708 14.7525 41.4708 14.8195C41.5042 14.853 41.5208 14.9032 41.5208 14.9702C41.5208 15.0706 41.5042 15.1711 41.4708 15.2716C41.4708 15.3721 41.4708 15.4893 41.4708 15.6232C41.4374 15.8242 41.4207 16.0084 41.4207 16.1758C41.4207 16.3098 41.4207 16.427 41.4207 16.5275L41.4708 17.3312C41.4374 17.5657 41.2871 17.7666 41.02 17.9341L40.4189 18.336C40.2853 18.4364 40.1851 18.5369 40.1184 18.6374C40.0516 18.7043 40.0015 18.7713 39.9681 18.8383H40.469C40.5024 18.8048 40.5692 18.7546 40.6693 18.6876C40.8029 18.5871 40.8864 18.5369 40.9198 18.5369H40.9699C41.1034 18.5369 41.2036 18.6709 41.2704 18.9388C41.3038 19.3072 41.3539 19.5249 41.4207 19.5918C42.2889 19.8598 42.7397 19.9937 42.7731 19.9937ZM39.367 12.5086C39.4004 12.4417 39.3837 12.3747 39.3169 12.3077C39.2835 12.3077 39.2001 12.3412 39.0665 12.4082C39.1333 12.5086 39.2335 12.5421 39.367 12.5086ZM38.7159 17.8838L39.2668 17.8336V17.5824L39.1166 17.3815C39.1166 17.3815 39.0164 17.415 38.816 17.4819L38.3152 17.3815C38.3819 17.4485 38.2985 17.5154 38.0647 17.5824C37.831 17.6159 37.7809 17.6661 37.9145 17.7331H38.215C38.3819 17.8336 38.5489 17.8838 38.7159 17.8838ZM47.1809 21.7017L47.2811 21.6515C47.3145 21.6515 47.3312 21.6515 47.3312 21.6515C47.3312 21.618 47.3479 21.6013 47.3813 21.6013L47.2811 21.4506C47.2811 21.551 47.2477 21.6347 47.1809 21.7017ZM47.2811 23.1586C47.2477 23.0916 47.231 22.9744 47.231 22.8069C47.3646 22.7734 47.4814 22.6562 47.5816 22.4553C47.5148 22.4553 47.4146 22.4553 47.2811 22.4553C47.1809 22.4218 47.0473 22.3883 46.8804 22.3548C46.7468 22.6227 46.6466 22.7734 46.5798 22.8069C46.5464 22.8404 46.5297 22.8906 46.5297 22.9576V23.1083L46.8804 22.8571L46.9805 22.9576L47.0306 23.1586H47.2811ZM45.3777 23.46C45.4445 23.46 45.5113 23.4265 45.5781 23.3595C45.6448 23.2925 45.6281 23.2255 45.528 23.1586C45.4278 23.1586 45.3777 23.259 45.3777 23.46ZM48.0324 26.3736C48.0324 26.3066 47.999 26.2397 47.9322 26.1727C47.8654 26.1057 47.7987 26.1392 47.7319 26.2732C47.7319 26.3736 47.8321 26.4071 48.0324 26.3736ZM36.6121 29.5887L37.0128 29.438C37.3134 29.3375 37.3635 29.2203 37.1631 29.0863H37.0128C36.8793 29.0863 36.7457 29.1533 36.6121 29.2873V29.5887ZM37.664 30.5934C37.6974 30.5264 37.6807 30.4594 37.6139 30.3925C37.5805 30.359 37.497 30.3757 37.3635 30.4427C37.4303 30.5432 37.5304 30.5934 37.664 30.5934Z" fill="#FE409C"/>
  <path d="M66.3193 31.7488C66.2859 31.7153 66.2191 31.6818 66.1189 31.6484C66.0187 31.6149 65.8852 31.5814 65.7182 31.5479H64.8166C64.7498 31.5814 64.6163 31.5981 64.4159 31.5981C64.3825 31.5646 64.3157 31.5311 64.2155 31.4976C64.1488 31.4642 64.0653 31.4307 63.9651 31.3972L63.4642 31.4474C63.2972 31.4809 63.1637 31.4809 63.0635 31.4474C62.9967 31.4474 62.9466 31.4474 62.9132 31.4474C62.7129 31.4474 62.5459 31.3804 62.4123 31.2465V30.9451C62.3122 30.6102 62.3289 30.3925 62.4624 30.292C62.429 30.2585 62.3623 30.2418 62.2621 30.2418C62.2287 30.1748 62.2287 30.1245 62.2621 30.0911C62.2955 30.0241 62.3122 29.9738 62.3122 29.9403L62.3623 29.7896C62.3623 29.6892 62.2621 29.572 62.0617 29.438C62.0617 29.304 62.1786 29.1701 62.4123 29.0361V28.9859C62.2788 28.9189 62.1786 28.8352 62.1118 28.7347C62.0784 28.6677 62.045 28.5003 62.0116 28.2323C61.9782 27.9644 61.9448 27.6128 61.9115 27.1774C61.6777 26.9765 61.5608 26.7085 61.5608 26.3736C61.5608 26.2732 61.6443 25.9215 61.8113 25.3187C61.7111 25.2182 61.5441 25.1512 61.3104 25.1177C61.2436 25.0508 61.2269 24.9838 61.2603 24.9168L61.4607 24.314C61.4273 24.314 61.3772 24.2302 61.3104 24.0628C61.277 23.9958 61.2436 23.9121 61.2102 23.8116C61.1768 23.7111 61.1267 23.5772 61.0599 23.4097C61.0933 23.3093 61.11 23.0916 61.11 22.7567C61.11 22.7567 61.0766 22.7232 61.0098 22.6562C61.0098 22.5892 60.9765 22.4385 60.9097 22.2041C60.8763 21.9362 60.8262 21.618 60.7594 21.2496C60.6926 20.8812 60.6258 20.5631 60.5591 20.2951C60.5257 20.0272 60.509 19.8095 60.509 19.6421C60.509 19.4076 60.5591 19.2402 60.6592 19.1397C60.6258 19.0727 60.4756 19.0058 60.2084 18.9388C59.8077 18.9388 59.4237 19.0727 59.0564 19.3407L58.8059 20.8477C58.7725 20.8812 58.7225 20.9147 58.6557 20.9482C58.6223 20.9817 58.5722 21.0319 58.5054 21.0989V21.1994C58.5054 21.2329 58.5054 21.2998 58.5054 21.4003C58.5388 21.4673 58.5722 21.551 58.6056 21.6515C58.7392 21.6515 58.8894 21.7185 59.0564 21.8524L58.9562 22.4553C58.8894 22.6897 58.9061 22.8739 59.0063 23.0078L58.6056 22.9576L58.5054 23.1586L58.6557 23.3595C58.7559 23.4935 58.8059 23.5939 58.8059 23.6609L58.4553 25.1177L58.6056 25.7206C58.6056 25.821 58.5889 25.9048 58.5555 25.9717L58.4553 26.2229C58.4887 26.3904 58.5221 26.5913 58.5555 26.8257C58.5889 27.0267 58.6223 27.2444 58.6557 27.4788C58.6557 27.5458 58.5388 27.6965 58.3051 27.9309C58.0379 28.2658 57.9043 28.4333 57.9043 28.4333C57.9043 28.5672 58.0212 28.6677 58.255 28.7347C58.4887 28.7682 58.6056 28.7849 58.6056 28.7849L58.4553 31.146L58.3551 31.3469C58.2884 31.28 58.1548 31.1795 57.9544 31.0455L57.6539 31.0958C57.5537 31.1293 57.4702 31.146 57.4035 31.146L56.6521 30.8948C56.6521 30.8948 56.5853 30.9283 56.4518 30.9953C56.3182 31.0623 56.2347 31.0958 56.2013 31.0958C55.7672 31.1293 55.4667 31.1293 55.2997 31.0958C55.2329 31.0623 55.1328 31.012 54.9992 30.9451C54.8656 30.8781 54.7153 30.7943 54.5484 30.6939H54.3981C54.2645 30.9283 54.131 31.0455 53.9974 31.0455L53.3963 30.8948C53.3629 30.9283 53.3129 30.9451 53.2461 30.9451C53.1793 30.9451 53.1125 30.9618 53.0457 30.9953C52.7786 30.9953 52.645 30.8781 52.645 30.6436C52.7452 30.5432 52.8621 30.3757 52.9956 30.1413C52.9622 30.0743 52.9455 29.8901 52.9455 29.5887C52.9455 29.5217 52.9455 29.4547 52.9455 29.3878C52.9789 29.2873 53.0123 29.1701 53.0457 29.0361L53.1459 28.6342C53.1459 28.6007 53.1459 28.5338 53.1459 28.4333C53.1459 28.3328 53.1292 28.1988 53.0958 28.0314L52.9956 27.4286C53.029 25.8545 53.1292 24.6321 53.2962 23.7614L53.4464 23.3093C53.4464 23.2088 53.4297 23.1083 53.3963 23.0078L53.2962 22.7064C53.2962 22.6729 53.3296 22.5892 53.3963 22.4553C53.3296 22.3548 53.3296 22.2208 53.3963 22.0534L53.5967 21.6515C53.5967 21.618 53.5967 21.5678 53.5967 21.5008C53.5967 21.4338 53.58 21.3333 53.5466 21.1994L53.4464 20.7473C53.4464 20.7138 53.4965 20.4961 53.5967 20.0942C53.6969 19.6923 53.7637 19.4746 53.7971 19.4411C53.6635 19.2402 53.58 19.0392 53.5466 18.8383C53.6134 18.7713 53.6802 18.7043 53.747 18.6374C53.8137 18.5704 53.8805 18.4867 53.9473 18.3862C53.9473 18.1852 53.8471 17.9676 53.6468 17.7331L53.9473 12.5086C54.0141 12.4417 54.0809 12.3579 54.1477 12.2575C54.2479 12.157 54.3313 12.0565 54.3981 11.956C54.3647 11.9226 54.2979 11.9058 54.1978 11.9058L54.0475 11.0016C54.0475 10.7002 54.0642 10.4825 54.0976 10.3485L54.0475 10.1978C54.0809 10.1643 54.131 10.0806 54.1978 9.94663V9.59498C54.1978 9.528 54.1811 9.46102 54.1477 9.39404C54.1477 9.32705 54.1477 9.27682 54.1477 9.24333C54.2479 9.14286 54.348 8.99215 54.4482 8.79121L54.1477 8.03768V7.43485C54.1811 7.33438 54.2312 7.21716 54.2979 7.0832C54.3647 6.94924 54.4315 6.79854 54.4983 6.63108C54.4983 6.59759 54.4816 6.58085 54.4482 6.58085C54.4482 6.54736 54.4482 6.51387 54.4482 6.48038C54.4482 6.37991 54.4649 6.27944 54.4983 6.17896C54.5651 6.07849 54.6152 5.96128 54.6486 5.82732C54.5484 5.72685 54.4482 5.57614 54.348 5.3752L54.3981 4.72214C54.3981 4.58818 54.5651 4.35374 54.899 4.01884C55.1995 3.71743 55.3331 3.46625 55.2997 3.26531L54.2479 2.86342C54.3146 2.69597 54.4148 2.5955 54.5484 2.56201L54.4482 1.20565C54.348 1.0382 54.2979 0.920984 54.2979 0.854004C54.6319 0.720043 54.8489 0.669807 54.9491 0.703297C55.0159 0.703297 55.1328 0.770277 55.2997 0.904239C55.4333 1.0382 55.5669 1.10518 55.7004 1.10518C55.7672 1.0382 55.8507 0.971221 55.9509 0.904239C56.0844 0.837259 56.218 0.787023 56.3516 0.753531C56.4184 0.820513 56.5185 0.90424 56.6521 1.00471C56.8191 1.07169 56.986 1.15542 57.153 1.25589L57.2031 1.05495L57.5537 0.954474C57.7207 0.854004 57.8209 0.820514 57.8543 0.854004C57.921 0.854004 58.0713 0.954475 58.3051 1.15542C58.5388 1.38985 58.6891 1.50707 58.7559 1.50707C58.8226 1.50707 58.9729 1.42334 59.2067 1.25589C59.3736 1.18891 59.5072 1.13867 59.6074 1.10518C59.7409 1.07169 59.8411 1.07169 59.9079 1.10518L60.1082 1.15542C60.1082 1.15542 60.175 1.12193 60.3086 1.05495C60.3754 0.987965 60.4422 0.954474 60.509 0.954474C60.6425 0.954474 60.8262 1.12193 61.0599 1.45683C61.1267 1.45683 61.2102 1.38985 61.3104 1.25589C61.4106 1.15542 61.4773 1.12193 61.5107 1.15542L62.3122 1.50707C62.3789 1.50707 62.4457 1.50707 62.5125 1.50707C62.5793 1.47358 62.6461 1.44009 62.7129 1.40659L62.9633 1.70801L64.0152 1.85871C64.0486 1.8922 64.082 1.92569 64.1154 1.95919C64.1488 1.99268 64.1988 2.02617 64.2656 2.05965C64.7665 2.09314 65.1839 2.14338 65.5179 2.21036L66.4195 2.81319C66.4195 2.81319 66.4528 2.88017 66.5196 3.01413V3.06436C66.5196 3.2988 66.6866 3.51648 67.0205 3.71743L67.8219 4.16954V4.62166L68.0724 5.17426C68.039 5.3752 67.9889 5.59288 67.9221 5.82732C67.8553 6.02826 67.7885 6.24594 67.7218 6.48038C67.7218 6.51387 67.7385 6.53061 67.7719 6.53061L68.0223 6.27944C68.1559 6.14547 68.2727 6.07849 68.3729 6.07849L68.4731 6.12873C68.5065 6.16222 68.5399 6.26269 68.5733 6.43014C68.6067 6.59759 68.6568 6.83203 68.7235 7.13344L68.8738 7.38462V7.88697L68.7235 8.03768C68.7903 8.33909 68.807 8.50654 68.7736 8.54003C68.6735 8.57352 68.5733 8.67399 68.4731 8.84145C68.4731 8.84145 68.5065 8.87494 68.5733 8.94192C68.6067 8.97541 68.7235 8.99215 68.9239 8.99215V9.09262C68.9239 9.1596 68.8905 9.32705 68.8237 9.59498H68.7736C68.7402 9.59498 68.6902 9.71219 68.6234 9.94663C68.5566 10.1811 68.5566 10.2983 68.6234 10.2983C68.7235 10.2983 68.807 10.2648 68.8738 10.1978C68.9072 10.1308 68.9239 10.0471 68.9239 9.94663C68.9239 9.84615 68.9239 9.82941 68.9239 9.89639L68.8738 10.6499C68.8404 10.6834 68.7903 10.7671 68.7235 10.9011C68.7235 11.0351 68.7068 11.2193 68.6735 11.4537C68.6735 11.6881 68.6568 11.956 68.6234 12.2575L68.3729 12.7096C68.3061 12.944 68.256 13.2119 68.2227 13.5133L68.2727 13.865C68.2393 13.8985 68.2227 13.932 68.2227 13.9655C68.2227 13.999 68.206 14.0492 68.1726 14.1162C68.1392 14.5515 67.9889 14.8697 67.7218 15.0706V15.2716C67.7218 15.3386 67.7051 15.4223 67.6717 15.5228C67.6717 15.5897 67.655 15.6735 67.6216 15.7739C67.488 15.8744 67.0873 16.427 66.4195 17.4317L65.9687 17.6327C65.7683 17.7331 65.6347 17.8838 65.5679 18.0848C65.6681 18.2522 65.7516 18.4699 65.8184 18.7378C65.8184 18.9723 65.7349 19.0895 65.5679 19.0895C65.3676 19.0895 65.2674 19.1062 65.2674 19.1397C65.2674 19.2402 65.3843 19.2904 65.618 19.2904C65.785 19.2904 65.8685 19.3909 65.8685 19.5918L65.8184 20.1947C65.2173 20.2951 64.9168 20.3956 64.9168 20.4961C64.9168 20.5631 65.2674 20.63 65.9687 20.697C65.9353 20.7305 65.8852 20.8812 65.8184 21.1491L66.0688 21.2998L66.3694 22.5557L66.5697 22.9074C66.336 23.0748 66.1356 23.3093 65.9687 23.6107L66.0688 23.8116C66.2358 23.9121 66.3861 24.0795 66.5196 24.314C66.5864 24.4144 66.6365 24.5819 66.6699 24.8163L67.0205 25.0675C67.0205 25.1345 67.0205 25.2182 67.0205 25.3187C67.0205 25.4192 67.0372 25.5196 67.0706 25.6201C67.0372 25.6871 67.0205 25.8545 67.0205 26.1224C67.1207 26.2229 67.1708 26.3569 67.1708 26.5243L67.271 27.6295C67.3044 27.663 67.3377 27.73 67.3711 27.8305C67.4045 27.9309 67.4379 28.0649 67.4713 28.2323C67.3044 28.3998 67.2209 28.5505 67.2209 28.6845C67.1875 28.8854 67.2543 28.9859 67.4212 28.9859C67.4546 28.9859 67.5381 28.9524 67.6717 28.8854L67.7218 29.7394C67.7218 29.7394 67.8887 30.1245 68.2227 30.8948C68.256 30.9283 68.2727 31.0288 68.2727 31.1962C68.2727 31.5646 68.1392 31.7488 67.872 31.7488C67.5715 31.7488 67.3711 31.6986 67.271 31.5981C67.1708 31.4642 67.104 31.3972 67.0706 31.3972C66.9036 31.5311 66.6532 31.6484 66.3193 31.7488ZM61.3605 3.01413C61.3939 2.94715 61.3772 2.88017 61.3104 2.81319C61.2436 2.74621 61.1768 2.74621 61.11 2.81319C61.11 2.88017 61.1935 2.94715 61.3605 3.01413ZM55.7004 5.5259L55.9008 5.3752C55.9008 5.34171 55.834 5.34171 55.7004 5.3752C55.667 5.3752 55.667 5.42543 55.7004 5.5259ZM56.3015 5.92779C56.4017 5.96128 56.5019 5.91104 56.602 5.77708C56.5352 5.7101 56.4852 5.67661 56.4518 5.67661C56.3516 5.67661 56.3015 5.76034 56.3015 5.92779ZM65.5679 6.32967C65.6681 6.36316 65.7683 6.31293 65.8685 6.17896C65.8351 6.14547 65.785 6.12873 65.7182 6.12873C65.618 6.12873 65.5679 6.19571 65.5679 6.32967ZM61.11 14.5683L61.6109 14.2166L62.2621 14.1162L62.3122 13.9152L62.212 13.5636C62.2454 13.5301 62.2955 13.4799 62.3623 13.4129C62.4624 13.3459 62.5793 13.2622 62.7129 13.1617C62.7463 13.0277 62.8464 12.9105 63.0134 12.81C63.0134 12.4751 63.0635 11.9895 63.1637 11.3532C63.1637 11.2193 63.1637 11.0518 63.1637 10.8509C63.1971 10.6499 63.2305 10.4322 63.2639 10.1978C63.2972 10.1308 63.3306 10.0638 63.364 9.99686C63.3974 9.89639 63.4308 9.77917 63.4642 9.64521L63.364 9.44427C63.2972 9.31031 63.2639 9.24333 63.2639 9.24333C63.2305 9.14286 63.2138 9.0089 63.2138 8.84145C63.2138 8.74097 63.2138 8.62376 63.2138 8.4898C63.2472 8.35583 63.2805 8.20513 63.3139 8.03768L63.364 7.38462V7.28414C63.364 6.94924 63.0468 6.73155 62.4123 6.63108L61.7612 6.53061L61.2102 6.43014C61.0766 6.43014 60.9264 6.44689 60.7594 6.48038C60.6258 6.48038 60.4756 6.49712 60.3086 6.53061C60.1083 6.59759 59.9246 6.7483 59.7576 6.98273L59.7075 7.13344C59.5406 7.30089 59.4237 7.46834 59.3569 7.63579C59.3569 7.66928 59.3736 7.73626 59.407 7.83674C59.4738 7.90372 59.5239 8.02093 59.5573 8.18838L59.7576 8.74097C59.6908 8.80796 59.5907 8.94192 59.4571 9.14286C59.4237 9.27682 59.3736 9.41078 59.3068 9.54474C59.2734 9.6787 59.2233 9.82941 59.1566 9.99686C59.1566 9.99686 59.24 10.1141 59.407 10.3485C59.574 10.6164 59.6575 10.7504 59.6575 10.7504C59.6241 10.8844 59.574 11.0183 59.5072 11.1523C59.4738 11.2527 59.4404 11.3867 59.407 11.5542V12.2575L59.3569 13.1115V13.2622C59.3569 13.5636 59.4404 13.798 59.6074 13.9655C59.6741 14.0659 59.7743 14.1664 59.9079 14.2669C59.9413 14.2669 60.0248 14.2166 60.1583 14.1162C60.2585 14.0157 60.3253 13.9655 60.3587 13.9655C60.4589 13.9655 60.6759 14.1664 61.0098 14.5683H61.11ZM64.8166 9.79592C65.017 9.79592 65.2841 9.54474 65.618 9.04239C65.5179 8.94192 65.4511 8.84144 65.4177 8.74097L64.9669 8.59027C64.8333 8.59027 64.6663 8.69074 64.466 8.89168C64.466 9.1596 64.5829 9.46102 64.8166 9.79592ZM55.7505 10.7504C55.8507 10.7839 55.9509 10.7336 56.0511 10.5997C55.9843 10.5327 55.9342 10.4992 55.9008 10.4992C55.8006 10.4992 55.7505 10.5829 55.7505 10.7504ZM57.0528 15.6232C57.0862 15.5897 57.1029 15.5395 57.1029 15.4725C57.1029 15.3721 57.0361 15.3218 56.9026 15.3218C56.8692 15.4223 56.9193 15.5228 57.0528 15.6232ZM60.7093 15.5228C60.7761 15.5563 60.8763 15.506 61.0098 15.3721C60.9765 15.3386 60.9097 15.3218 60.8095 15.3218C60.7093 15.3218 60.6759 15.3888 60.7093 15.5228ZM64.466 17.1303L64.6163 17.0298C64.6163 16.9628 64.5996 16.9126 64.5662 16.8791L64.466 17.1303ZM58.5555 18.0848C58.5889 18.0178 58.5722 17.9508 58.5054 17.8838C58.472 17.8169 58.4052 17.8336 58.3051 17.9341C58.3051 18.0345 58.3885 18.0848 58.5555 18.0848ZM62.4123 18.6374C62.5125 18.6709 62.596 18.6541 62.6628 18.5871C62.6962 18.5536 62.6795 18.4699 62.6127 18.336C62.5459 18.336 62.4791 18.4364 62.4123 18.6374ZM64.7164 21.8524C64.7498 21.7855 64.7331 21.7185 64.6663 21.6515C64.6329 21.618 64.5495 21.6347 64.4159 21.7017C64.4159 21.8022 64.5161 21.8524 64.7164 21.8524ZM63.1136 25.7708C63.1804 25.7708 63.2806 25.7206 63.4141 25.6201C63.5477 25.5531 63.6312 25.5196 63.6646 25.5196H63.7147V24.9168L63.1136 24.7661C63.1136 24.9335 63.1303 25.034 63.1637 25.0675C63.1637 25.0675 63.147 25.1847 63.1136 25.4192C63.0802 25.4861 63.0635 25.5866 63.0635 25.7206C63.0635 25.7541 63.0802 25.7708 63.1136 25.7708ZM54.7988 26.4239C54.9992 26.3234 55.0994 26.2229 55.0994 26.1224C55.0994 25.9885 54.9825 25.8713 54.7487 25.7708L54.348 25.5699L54.2479 25.6703C54.3146 25.8043 54.3981 25.9383 54.4983 26.0722C54.5985 26.1727 54.6987 26.2899 54.7988 26.4239ZM54.5484 29.2873C54.5818 29.2203 54.5651 29.1533 54.4983 29.0863C54.4649 29.0194 54.3981 29.0361 54.2979 29.1366C54.2979 29.237 54.3814 29.2873 54.5484 29.2873ZM55.8006 29.0863H55.6503C55.6837 29.1198 55.7338 29.2036 55.8006 29.3375V29.0863Z" fill="#FE409C"/>
  <path d="M76.311 31.0958L76.2108 31.0455H75.209C75.1756 31.0455 75.1088 31.0455 75.0086 31.0455C74.9419 31.0455 74.8584 31.0288 74.7582 30.9953C74.658 30.9283 74.5078 30.8781 74.3074 30.8446L73.1554 31.0455C72.9216 30.9451 72.6211 30.8446 72.2538 30.7441L71.252 30.9451C70.9848 30.8781 70.8012 30.8111 70.701 30.7441L70.6509 30.5934L71.0015 24.113C71.3021 23.5437 71.4523 23.192 71.4523 23.0581C71.4523 22.9911 71.4523 22.9241 71.4523 22.8571C71.4523 22.7902 71.4356 22.7064 71.4022 22.606C71.3355 22.3715 71.3188 22.2041 71.3521 22.1036C71.3521 21.9362 71.4022 21.7352 71.5024 21.5008L71.6527 21.0989L71.3521 20.044L71.5024 19.5918C71.5358 19.5249 71.5692 19.4244 71.6026 19.2904C71.636 19.1565 71.6694 18.989 71.7028 18.7881L72.1035 18.1852L71.6026 17.8336L71.7028 17.4317V17.3815C71.7028 17.2475 71.636 17.1136 71.5024 16.9796L71.5525 16.7787C71.6193 16.7452 71.7028 16.7117 71.803 16.6782C71.9031 16.6112 72.02 16.5275 72.1536 16.427L72.2538 16.3768C71.8864 16.0754 71.7028 15.8744 71.7028 15.7739L71.9031 15.4223C71.9031 15.3888 71.803 15.3218 71.6026 15.2214V14.6185C71.6026 14.5515 71.6026 14.4846 71.6026 14.4176C71.636 14.3506 71.6694 14.2669 71.7028 14.1664C71.7696 14.0659 71.8864 14.0157 72.0534 14.0157L72.1536 13.9152C71.853 12.81 71.7028 12.1737 71.7028 12.0063L71.803 11.7049L71.9031 11.3532L71.9532 10.5997C71.9866 10.5662 72.02 10.5327 72.0534 10.4992C72.1202 10.4322 72.2037 10.3653 72.3038 10.2983L71.9031 9.84615C71.8697 9.6787 71.8697 9.528 71.9031 9.39404C71.803 8.89168 71.7529 8.52329 71.7529 8.28885C71.7529 8.18838 71.7863 8.10466 71.853 8.03768C71.8864 8.03768 71.9365 8.07117 72.0033 8.13815C72.0367 8.00419 72.0534 7.88697 72.0534 7.7865C72.0868 7.68603 72.1035 7.61905 72.1035 7.58556C72.0701 7.41811 72.0534 7.31764 72.0534 7.28414C72.0534 7.21716 72.0367 7.21716 72.0033 7.28414L72.2037 5.92779C72.2371 5.86081 72.2704 5.79383 72.3038 5.72685C72.3372 5.65987 72.3706 5.59288 72.404 5.5259L72.2538 5.12402C72.1202 4.88959 72.0534 4.75563 72.0534 4.72214C72.0534 4.68864 72.1369 4.47096 72.3038 4.06908L72.7546 3.8179C72.6545 3.71743 72.5042 3.66719 72.3038 3.66719C72.3038 3.56672 72.2871 3.46625 72.2538 3.36578C72.2538 3.26531 72.2538 3.16484 72.2538 3.06436C72.2538 2.49503 72.2704 2.09315 72.3038 1.85871C72.3372 1.59079 72.3706 1.50707 72.404 1.60754L72.3038 1.35636C72.2704 1.28938 72.2538 1.20565 72.2538 1.10518C72.2538 0.770278 72.5543 0.636317 73.1554 0.703297L73.4559 0.803769C73.6229 0.904239 73.723 0.954474 73.7564 0.954474L73.9568 0.854004C74.0236 0.820514 74.107 0.803769 74.2072 0.803769C74.3074 0.904239 74.4076 0.987965 74.5078 1.05495C74.9085 1.2224 75.1756 1.30612 75.3092 1.30612C75.376 1.30612 75.4427 1.2224 75.5095 1.05495C75.6431 1.02146 75.76 1.00471 75.8602 1.00471C75.9603 0.97122 76.0772 0.97122 76.2108 1.00471C76.2776 1.00471 76.4278 1.15542 76.6616 1.45683C76.8619 1.79173 76.9788 1.95919 77.0122 1.95919C77.0122 1.95919 77.1959 1.82522 77.5632 1.5573C77.8637 1.28938 78.0307 1.17216 78.0641 1.20565L78.4147 1.25589C78.4481 1.25589 78.5149 1.20565 78.615 1.10518C78.7486 1.0382 78.8321 1.00471 78.8655 1.00471C78.9991 1.00471 79.0825 1.10518 79.1159 1.30612C79.1493 1.50706 79.3163 1.62428 79.6168 1.65777H79.7671C79.8339 1.52381 79.8673 1.42334 79.8673 1.35636H80.0676L81.5202 1.65777C81.6872 1.65777 81.7873 1.72475 81.8207 1.85871L81.971 2.21036C82.4385 1.94244 82.6388 1.80848 82.5721 1.80848C82.6722 1.87546 82.8392 1.99267 83.073 2.16013L83.674 2.4113C83.8076 2.51177 83.8744 2.62899 83.8744 2.76295C83.8744 2.86342 83.8577 2.96389 83.8243 3.06436L83.7241 3.31554C83.7241 3.51649 83.9912 3.60021 84.5255 3.56672H85.1767C85.1767 3.60021 85.1767 3.66719 85.1767 3.76766C85.2101 3.83464 85.2435 3.91837 85.2769 4.01884C85.3437 4.05233 85.3937 4.10257 85.4271 4.16954C85.4939 4.23653 85.5607 4.30351 85.6275 4.37049C85.928 4.77237 86.0783 5.02355 86.0783 5.12402C86.0783 5.22449 86.0449 5.30822 85.9781 5.3752L86.0282 5.47567C86.0616 5.54265 86.0783 5.60963 86.0783 5.67661L85.7277 6.17896C85.7277 6.44689 85.9948 6.64783 86.5291 6.78179L86.479 6.88226C86.5458 7.0832 86.5792 7.30089 86.5792 7.53532L86.7294 7.73626V8.08791L86.8296 8.28885L86.7795 9.64521C86.646 9.77917 86.5291 9.94662 86.4289 10.1476C86.4289 10.1811 86.4623 10.2815 86.5291 10.449C86.6961 10.6834 86.7461 10.9848 86.6794 11.3532L86.3788 12.3077C86.3788 12.3747 86.3788 12.4751 86.3788 12.6091C86.3788 12.7431 86.3621 12.8938 86.3287 13.0612C86.2619 13.3291 86.1451 13.7143 85.9781 14.2166L85.6776 14.5181C85.7444 14.853 85.7277 15.0706 85.6275 15.1711C85.5273 15.3051 85.4772 15.3888 85.4772 15.4223C85.4438 15.6232 85.4605 15.8242 85.5273 16.0251L84.9763 16.6279C84.9763 16.6949 84.9596 16.7619 84.9262 16.8289C84.8595 16.8289 84.7259 16.8624 84.5255 16.9294C84.4587 16.9963 84.392 17.214 84.3252 17.5824C84.2918 17.7164 84.1582 17.8336 83.9245 17.9341C83.7909 17.9676 83.6907 18.0178 83.6239 18.0848C83.5905 18.1183 83.5571 18.1518 83.5238 18.1852C83.4904 18.2522 83.3902 18.4364 83.2232 18.7378C83.1898 18.7713 82.6889 18.989 81.7206 19.3909L81.0694 19.4411L80.2179 19.6923C80.1511 19.6588 80.0175 19.6086 79.8172 19.5416L79.5166 19.5918C79.4165 19.6253 79.333 19.6421 79.2662 19.6421L78.615 19.4411L77.8637 19.2904H77.5632C77.296 19.2904 77.0289 19.4244 76.7618 19.6923L76.8118 20.7473C76.7785 20.8142 76.6783 20.9314 76.5113 21.0989C76.5781 21.3333 76.6115 21.551 76.6115 21.752C76.6115 21.9194 76.6115 22.0701 76.6115 22.2041C76.6115 22.4385 76.5948 22.5892 76.5614 22.6562L76.6616 23.46C76.528 23.6274 76.4612 23.7446 76.4612 23.8116L76.6115 25.0173C76.4111 25.1512 76.311 25.3522 76.311 25.6201C76.311 25.888 76.3443 26.0387 76.4111 26.0722L76.5113 26.1224C76.4111 28.3328 76.2609 29.7561 76.0605 30.3925C76.1273 30.5264 76.2108 30.6604 76.311 30.7943V31.0958ZM73.8566 2.56201C73.9568 2.46154 73.9902 2.39456 73.9568 2.36107L73.6562 2.31083L73.6062 2.46154L73.8566 2.56201ZM73.4058 3.01413L73.506 2.91366C73.506 2.74621 73.4559 2.54527 73.3557 2.31083C73.2221 2.44479 73.1554 2.57876 73.1554 2.71272L73.2054 3.01413H73.4058ZM77.9639 2.86342C78.0641 2.89691 78.1642 2.84668 78.2644 2.71272C78.1976 2.64574 78.1142 2.62899 78.014 2.66248C77.9806 2.69597 77.9639 2.76295 77.9639 2.86342ZM81.8207 4.21978C81.8541 4.1528 81.8374 4.08582 81.7706 4.01884C81.7039 3.95186 81.6371 3.95186 81.5703 4.01884C81.5703 4.1528 81.6538 4.21978 81.8207 4.21978ZM77.4129 5.42543L77.463 5.32496C77.4296 5.22449 77.3628 5.17426 77.2626 5.17426C77.1959 5.30822 77.1458 5.39194 77.1124 5.42543H77.4129ZM76.8118 14.7692C76.8118 14.7692 76.912 14.7357 77.1124 14.6688L77.3127 14.5683C77.3795 14.6018 77.5131 14.6185 77.7134 14.6185L78.2143 14.5683C78.4147 14.5683 78.5316 14.6185 78.5649 14.719C78.7653 14.652 78.8989 14.6185 78.9657 14.6185L79.3664 14.719C79.4332 14.719 79.5333 14.6688 79.6669 14.5683C79.7671 14.4678 79.8339 14.4176 79.8673 14.4176C79.8673 14.4176 79.9174 14.4511 80.0175 14.5181C80.0843 14.5181 80.2179 14.4176 80.4182 14.2166C80.6186 13.9487 80.7689 13.798 80.869 13.7645C81.0026 13.0612 81.0527 12.6928 81.0193 12.6593L81.1195 11.8053C81.2197 11.6044 81.3198 11.3532 81.42 11.0518L81.3699 10.3987C81.3365 10.1643 81.3031 9.98012 81.2698 9.84615C81.2698 9.6787 81.2698 9.54474 81.2698 9.44427C81.4367 9.3438 81.587 9.19309 81.7206 8.99215C81.7206 8.85819 81.6204 8.72423 81.42 8.59027L81.0193 8.28885C81.0527 8.18838 81.0694 8.07117 81.0694 7.93721C81.0694 7.6023 80.9191 7.38462 80.6186 7.28414C80.652 7.28414 80.6687 7.2674 80.6687 7.23391C80.6687 7.13344 80.5351 6.94924 80.268 6.68132L79.8172 6.17896C79.7504 6.17896 79.7003 6.16222 79.6669 6.12873C79.5667 6.2292 79.5166 6.32967 79.5166 6.43014H79.0658C78.9657 6.39665 78.8321 6.37991 78.6651 6.37991C77.8637 6.37991 77.463 6.53061 77.463 6.83203L77.6634 7.23391C77.6634 7.30089 77.5465 7.43485 77.3127 7.63579C77.5131 7.9707 77.6133 8.22187 77.6133 8.38933C77.5799 8.72423 77.3962 8.90843 77.0623 8.94192C77.1291 9.14286 77.2126 9.29356 77.3127 9.39404C77.3461 9.528 77.3628 9.71219 77.3628 9.94663C77.3628 10.1476 77.3628 10.382 77.3628 10.6499L77.2626 10.8006V11.303L77.3127 11.5039C77.3461 11.6044 77.3628 11.7216 77.3628 11.8556C77.3628 11.9226 77.3127 11.9393 77.2126 11.9058C77.3795 12.0733 77.3461 12.2407 77.1124 12.4082L77.2626 12.7096C76.9955 12.9105 76.8619 13.0612 76.8619 13.1617L76.9621 13.3626L77.1124 13.7143C76.8118 14.0492 76.6616 14.3004 76.6616 14.4678L76.6115 14.6688L76.8118 14.7692ZM72.6044 7.18367C72.7046 7.18367 72.7546 7.0832 72.7546 6.88226C72.6879 6.88226 72.6211 6.91575 72.5543 6.98273C72.5209 7.01622 72.5376 7.0832 72.6044 7.18367ZM84.0246 7.93721C84.058 7.90372 84.0747 7.85348 84.0747 7.7865C84.0747 7.68603 84.0079 7.63579 83.8744 7.63579C83.841 7.73626 83.8911 7.83674 84.0246 7.93721ZM74.107 8.69074C74.2072 8.62376 74.2573 8.52329 74.2573 8.38933C74.1905 8.35583 74.1237 8.37258 74.057 8.43956C74.0236 8.47305 74.0403 8.55678 74.107 8.69074ZM85.1767 8.89168L85.2769 8.84145C85.3103 8.84145 85.3437 8.8247 85.377 8.79121L85.2769 8.6405C85.2435 8.67399 85.2268 8.70748 85.2268 8.74097C85.2268 8.77446 85.2101 8.8247 85.1767 8.89168ZM84.3252 9.94663C84.3586 9.91314 84.4421 9.8629 84.5756 9.79592C84.5422 9.76243 84.4587 9.76243 84.3252 9.79592V9.94663ZM85.7778 11.6044L85.8779 11.4537C85.8445 11.4202 85.8278 11.3197 85.8278 11.1523C85.7277 10.9513 85.5607 10.8509 85.327 10.8509H85.2268C85.0932 10.8509 84.9596 10.9178 84.8261 11.0518V11.1523C85.0598 11.1858 85.377 11.3365 85.7778 11.6044ZM73.0051 15.1711C73.0385 15.1041 73.0218 15.0372 72.955 14.9702C72.9216 14.9032 72.8548 14.9199 72.7546 15.0204C72.7546 15.1209 72.8381 15.1711 73.0051 15.1711ZM76.8619 15.7237C76.9621 15.7572 77.0456 15.7405 77.1124 15.6735C77.1458 15.64 77.1291 15.5563 77.0623 15.4223C76.9955 15.4223 76.9287 15.5228 76.8619 15.7237ZM83.3735 15.7237C83.4737 15.7572 83.5738 15.707 83.674 15.573C83.6406 15.5395 83.5905 15.5228 83.5238 15.5228C83.4236 15.5228 83.3735 15.5897 83.3735 15.7237ZM78.8655 16.2763L78.7653 16.1256L78.7152 16.1758L78.7653 16.2763H78.8655ZM79.6669 16.9796L79.717 16.7284L79.6168 16.6279L79.3664 16.5777L79.2161 16.7284C79.2495 16.7619 79.2662 16.8121 79.2662 16.8791L79.6669 16.9796ZM74.7582 18.4867C74.825 18.4867 74.8751 18.4699 74.9085 18.4364V18.1852L74.6079 18.0345C74.7081 18.001 74.7081 17.8336 74.6079 17.5322C74.6413 17.4652 74.658 17.3312 74.658 17.1303L73.9568 17.3312V17.5824C73.9234 17.6494 74.0236 17.8169 74.2573 18.0848C74.5245 18.3527 74.6914 18.4867 74.7582 18.4867ZM80.0175 18.5369L80.1678 18.336L79.9174 18.2857L79.8172 18.4867C79.8506 18.5201 79.9174 18.5369 80.0175 18.5369ZM80.6687 18.4867L80.819 18.2857H80.4683L80.6687 18.4867ZM78.0641 18.8383C78.1976 18.8718 78.2978 18.855 78.3646 18.7881L78.2644 18.6876C78.0975 18.7546 78.0307 18.8048 78.0641 18.8383ZM74.5578 22.7567L74.4076 22.606C74.3408 22.606 74.2907 22.6227 74.2573 22.6562L74.5578 22.7567ZM74.5578 23.5604C74.5912 23.4935 74.5745 23.4265 74.5078 23.3595C74.4744 23.326 74.3909 23.3428 74.2573 23.4097C74.2573 23.5102 74.3575 23.5604 74.5578 23.5604ZM75.76 23.6107C75.7934 23.5772 75.8101 23.4935 75.8101 23.3595H75.6097C75.6431 23.393 75.6932 23.4767 75.76 23.6107ZM72.5042 26.8257C72.5376 26.7923 72.571 26.7588 72.6044 26.7253C72.6712 26.6918 72.7212 26.6583 72.7546 26.6248L72.4541 26.4741L72.3539 26.5746C72.4207 26.7085 72.4708 26.7923 72.5042 26.8257ZM71.5024 26.7755C71.5692 26.8425 71.636 26.8425 71.7028 26.7755L71.6527 26.6248C71.6193 26.6248 71.5692 26.675 71.5024 26.7755ZM74.3074 29.6892C74.3408 29.6222 74.3241 29.5552 74.2573 29.4882C74.2239 29.4547 74.1404 29.4715 74.0069 29.5385C74.0069 29.6389 74.107 29.6892 74.3074 29.6892Z" fill="#FE409C"/>
</svg>